<svg width="22" height="22" viewBox="0 0 22 22" fill="none" xmlns="http://www.w3.org/2000/svg">
<path d="M17.651 0H4.34904C1.94713 0 0 1.94713 0 4.34904V17.651C0 20.0529 1.94713 22 4.34904 22H17.651C20.0529 22 22 20.0529 22 17.651V4.34904C22 1.94713 20.0529 0 17.651 0Z" fill="#FAA02A"/>
<path d="M11.0008 18.1921C14.9724 18.1921 18.1921 14.9724 18.1921 11.0008C18.1921 7.0292 14.9724 3.80957 11.0008 3.80957C7.0292 3.80957 3.80957 7.0292 3.80957 11.0008C3.80957 14.9724 7.0292 18.1921 11.0008 18.1921Z" stroke="white" stroke-width="2" stroke-miterlimit="10"/>
<path d="M11.001 8.66037C11.6447 8.66037 12.1665 8.13855 12.1665 7.49486C12.1665 6.85116 11.6447 6.32935 11.001 6.32935C10.3573 6.32935 9.83545 6.85116 9.83545 7.49486C9.83545 8.13855 10.3573 8.66037 11.001 8.66037Z" fill="white"/>
<path d="M11.0808 12.5376C11.0415 12.5077 10.9109 12.8506 10.8983 12.8836C10.5366 13.7849 10.2723 14.727 9.89955 15.6252C9.52834 16.1552 8.76549 15.8391 8.86144 15.2099C9.06277 14.5776 9.32859 13.9673 9.53621 13.3382C9.77214 12.6241 9.8382 11.8958 9.8618 11.144C9.86809 10.9584 9.89011 10.5211 9.8555 10.3623C9.83348 10.2648 9.76585 10.2396 9.68406 10.2097C9.07692 9.9895 8.18038 9.96748 7.52606 9.79289C7.29956 9.73312 7.13755 9.65762 7.05733 9.42169C6.91735 9.01117 7.22249 8.63839 7.65189 8.66356C8.33767 8.70445 9.21691 8.99701 9.931 9.09296C10.7112 9.19834 11.4473 9.17789 12.2274 9.06622C12.8865 8.97184 13.7107 8.70131 14.3445 8.66356C14.7739 8.63839 15.0791 9.01117 14.9391 9.42169C14.8227 9.76301 14.5254 9.77874 14.2218 9.84323C13.5644 9.98479 12.8943 10.0713 12.2369 10.216C12.0292 10.2695 12.0717 10.562 12.0811 10.7366C12.1614 12.3284 12.7276 13.744 13.2671 15.2146C13.3693 15.8611 12.5593 16.1568 12.2227 15.6094L11.0792 12.5392L11.0808 12.5376Z" fill="white"/>
</svg>
