<svg width="51" height="51" viewBox="0 0 51 51" fill="none" xmlns="http://www.w3.org/2000/svg">
<g id="AR 3" clip-path="url(#clip0_38_207)">
<g id="objects">
<g id="Group">
<path id="Vector" d="M40.9181 0H10.0819C4.5138 0 0 4.5138 0 10.0819V40.9181C0 46.4862 4.5138 51 10.0819 51H40.9181C46.4862 51 51 46.4862 51 40.9181V10.0819C51 4.5138 46.4862 0 40.9181 0Z" fill="#FAA02A"/>
<path id="Vector_2" d="M38.6939 17.8231C38.6939 17.7501 38.6829 17.6772 38.6647 17.6043C38.6647 17.5897 38.6574 17.5751 38.6538 17.5605C38.6355 17.4912 38.61 17.4256 38.5772 17.3636C38.5699 17.3527 38.5663 17.3417 38.559 17.3308C38.5261 17.2725 38.486 17.2141 38.4423 17.1631C38.4386 17.1594 38.435 17.1521 38.4277 17.1485C38.3803 17.0938 38.322 17.0501 38.2636 17.0063C38.2563 17.0026 38.2527 16.9954 38.2454 16.9881C38.2381 16.9844 38.2308 16.9808 38.2272 16.9771C38.1725 16.9407 38.1178 16.9115 38.0558 16.886L25.9101 12.0438C25.6695 11.949 25.4033 11.949 25.1627 12.0438L12.9405 16.886C12.8785 16.9115 12.8201 16.9443 12.7654 16.9771C12.7581 16.9808 12.7509 16.9844 12.7472 16.9881C12.7399 16.9917 12.7363 16.999 12.729 17.0026C12.6706 17.0464 12.6123 17.0938 12.5649 17.1449C12.5613 17.1485 12.5576 17.1558 12.554 17.1594C12.5102 17.2105 12.4701 17.2688 12.4373 17.3272C12.43 17.3381 12.4227 17.349 12.419 17.36C12.3862 17.422 12.3607 17.4876 12.3425 17.5569C12.3388 17.5715 12.3352 17.586 12.3315 17.6006C12.317 17.6699 12.306 17.7428 12.3024 17.8194V33.0607C12.3024 33.4727 12.5503 33.841 12.9332 33.9978L24.8783 38.8364C24.8783 38.8364 24.8892 38.8473 24.8965 38.8509C25.0642 38.964 25.2611 39.0223 25.4617 39.0223C25.4762 39.0223 25.4872 39.0223 25.5018 39.0187C25.5164 39.0187 25.5273 39.0223 25.5419 39.0223C25.7388 39.0223 25.9357 38.964 26.107 38.8509C26.1143 38.8473 26.118 38.84 26.1253 38.8364L38.0704 33.9978C38.4532 33.8446 38.7012 33.4727 38.7012 33.0607V17.8194L38.6939 17.8231ZM25.5382 14.0711L34.9784 17.834L25.5018 21.6735L16.0325 17.8376L25.5382 14.0711ZM14.326 19.3253L24.4516 23.4273V36.4882L14.326 32.3861V19.3253ZM26.5482 36.4882V23.4565L36.6739 19.329V32.3861L26.5482 36.4882Z" fill="white"/>
<g id="Group_2">
<path id="Vector_3" d="M8.12738 13.254C7.6242 13.254 7.21582 12.8456 7.21582 12.3424V8.29144C7.21582 7.78826 7.6242 7.37988 8.12738 7.37988H12.2513C12.7545 7.37988 13.1628 7.78826 13.1628 8.29144C13.1628 8.79463 12.7545 9.203 12.2513 9.203H9.03894V12.3424C9.03894 12.8456 8.63056 13.254 8.12738 13.254Z" fill="white"/>
<path id="Vector_4" d="M43.2553 43.6231H39.1314C38.6282 43.6231 38.2198 43.2147 38.2198 42.7116C38.2198 42.2084 38.6282 41.8 39.1314 41.8H42.3437V38.6606C42.3437 38.1574 42.7521 37.749 43.2553 37.749C43.7585 37.749 44.1669 38.1574 44.1669 38.6606V42.7116C44.1669 43.2147 43.7585 43.6231 43.2553 43.6231Z" fill="white"/>
<path id="Vector_5" d="M11.7955 43.6238H7.74457C7.24139 43.6238 6.83301 43.2154 6.83301 42.7122V38.5883C6.83301 38.0851 7.24139 37.6768 7.74457 37.6768C8.24775 37.6768 8.65613 38.0851 8.65613 38.5883V41.8007H11.7955C12.2987 41.8007 12.7071 42.209 12.7071 42.7122C12.7071 43.2154 12.2987 43.6238 11.7955 43.6238Z" fill="white"/>
</g>
<path id="Vector_6" d="M43.2409 12.5974C42.7377 12.5974 42.3293 12.189 42.3293 11.6859V8.47351H39.1899C38.6867 8.47351 38.2783 8.06513 38.2783 7.56195C38.2783 7.05877 38.6867 6.65039 39.1899 6.65039H43.2409C43.744 6.65039 44.1524 7.05877 44.1524 7.56195V11.6859C44.1524 12.189 43.744 12.5974 43.2409 12.5974Z" fill="white"/>
</g>
</g>
</g>
<defs>
<clipPath id="clip0_38_207">
<rect width="51" height="51" fill="white"/>
</clipPath>
</defs>
</svg>
