<svg width="22" height="22" viewBox="0 0 22 22" fill="none" xmlns="http://www.w3.org/2000/svg">
<path d="M17.651 0H4.34904C1.94713 0 0 1.94713 0 4.34904V17.651C0 20.0529 1.94713 22 4.34904 22H17.651C20.0529 22 22 20.0529 22 17.651V4.34904C22 1.94713 20.0529 0 17.651 0Z" fill="#FAA02A"/>
<path d="M16.1128 10.4079C15.7589 10.4079 15.4207 10.4692 15.1061 10.5825L13.2863 6.80911H14.3307C14.3338 7.15043 14.6107 7.42569 14.952 7.42569C15.2933 7.42569 15.5733 7.14728 15.5733 6.80439C15.5733 6.4615 15.32 6.20827 14.9976 6.18468C14.985 6.1831 14.9724 6.18153 14.9583 6.18153H12.7845C12.676 6.18153 12.5753 6.23658 12.5187 6.32781C12.4621 6.41904 12.4542 6.53386 12.5014 6.63138L13.2265 8.13349H8.64626L8.00452 6.71631H8.72963C8.94511 6.71631 9.12128 6.54015 9.12128 6.32466V6.01323C9.12128 5.79775 8.94511 5.62158 8.72963 5.62158H6.54174C6.32625 5.62158 6.15009 5.79775 6.15009 6.01323V6.32466C6.15009 6.54015 6.32625 6.71631 6.54174 6.71631H7.32661C7.33133 6.74148 7.33762 6.76822 7.34863 6.79338L8.09418 8.43863L6.96956 10.6124C6.63296 10.4802 6.26805 10.4079 5.88427 10.4079C4.23745 10.4079 2.89893 11.748 2.89893 13.3932C2.89893 15.0385 4.23903 16.3786 5.88427 16.3786C7.42413 16.3786 8.6966 15.2052 8.85388 13.7062H10.9993C11.004 13.7062 11.0087 13.7062 11.0135 13.7062C11.0229 13.7062 11.0323 13.7062 11.0402 13.7047C11.0449 13.7047 11.0496 13.7031 11.0544 13.7015C11.0638 13.6999 11.0717 13.6984 11.0811 13.6952C11.0858 13.6952 11.0905 13.6921 11.0953 13.6905C11.1031 13.6874 11.111 13.6858 11.1204 13.6811C11.1251 13.6795 11.1314 13.6763 11.1361 13.6732C11.144 13.6701 11.1503 13.6669 11.1582 13.6622C11.1629 13.659 11.1692 13.6559 11.1739 13.6528C11.1802 13.648 11.1865 13.6449 11.1928 13.6402C11.1975 13.6355 11.2022 13.6323 11.2085 13.6276C11.2132 13.6229 11.2195 13.6182 11.2242 13.6119C11.2289 13.6071 11.2337 13.6024 11.2384 13.5977C11.2431 13.5914 11.2478 13.5867 11.2525 13.5804C11.2557 13.5757 11.2604 13.5694 11.2635 13.5647C11.2651 13.5615 11.2667 13.56 11.2683 13.5568C11.2714 13.5521 11.273 13.5474 11.2761 13.5427C11.2777 13.5395 11.2809 13.5364 11.2824 13.5316L13.582 8.8696L14.5399 10.8562C13.6921 11.3831 13.1258 12.3237 13.1258 13.3932C13.1258 15.04 14.466 16.3786 16.1112 16.3786C17.7564 16.3786 19.0965 15.0385 19.0965 13.3932C19.0965 11.748 17.7564 10.4079 16.1112 10.4079H16.1128ZM5.88741 15.7526C4.58664 15.7526 3.52965 14.694 3.52965 13.3948C3.52965 12.0956 4.58821 11.037 5.88741 11.037C6.16582 11.037 6.43321 11.0858 6.68172 11.1755L5.60744 13.2517C5.55711 13.3492 5.56183 13.4656 5.61845 13.5584C5.67508 13.6512 5.77731 13.7094 5.88584 13.7094H8.22316C8.06901 14.8623 7.07966 15.7541 5.88584 15.7541L5.88741 15.7526ZM7.23853 11.4633C7.76544 11.8329 8.13507 12.4133 8.22316 13.0802H6.40175L7.23853 11.4633ZM8.85703 13.0802C8.76108 12.1711 8.25619 11.3815 7.52951 10.9018L8.44493 9.1307L10.4865 13.0786H8.85703V13.0802ZM10.9962 12.698L8.96084 8.76264H12.9371L10.9962 12.698ZM16.1128 15.7526C14.812 15.7526 13.755 14.694 13.755 13.3948C13.755 12.5738 14.1765 11.8502 14.8151 11.4271L15.8296 13.5316C15.8831 13.6433 15.9964 13.7094 16.1128 13.7094C16.1584 13.7094 16.2056 13.6999 16.2496 13.6779C16.4053 13.6024 16.4714 13.4152 16.3959 13.2595L15.3798 11.155C15.611 11.0795 15.8564 11.0386 16.1128 11.0386C17.4135 11.0386 18.4705 12.0972 18.4705 13.3964C18.4705 14.6956 17.412 15.7541 16.1128 15.7541V15.7526Z" fill="white"/>
</svg>
