<svg width="22" height="22" viewBox="0 0 22 22" fill="none" xmlns="http://www.w3.org/2000/svg">
<path d="M17.651 0H4.34904C1.94713 0 0 1.94713 0 4.34904V17.651C0 20.0529 1.94713 22 4.34904 22H17.651C20.0529 22 22 20.0529 22 17.651V4.34904C22 1.94713 20.0529 0 17.651 0Z" fill="#FAA02A"/>
<path d="M10.5669 9.28627C11.3533 11.5795 12.1005 13.9342 12.4198 16.347C7.97005 13.4937 6.50726 7.61586 9.17803 2.98999C12.3741 4.83499 14.1594 8.1821 14.1594 11.622C14.1594 13.0581 13.8495 14.5098 13.1983 15.8767C12.9593 14.2881 12.5361 12.7183 12.069 11.2005C11.8488 10.4848 11.6129 9.77386 11.3691 9.06449C11.2951 8.85215 11.0828 8.71216 10.8579 8.77508C10.6518 8.8317 10.4945 9.07393 10.5685 9.28627H10.5669Z" fill="white"/>
<path d="M13.392 19.2253C13.381 19.4518 13.2111 19.6405 12.9767 19.6405C12.7597 19.6405 12.5505 19.4486 12.5615 19.2253C12.5977 18.4986 12.5709 17.7704 12.5001 17.0453C12.4781 16.8125 12.4514 16.5813 12.4199 16.3485C12.552 16.435 12.6857 16.5168 12.8226 16.5954C12.9578 16.3595 13.0853 16.1204 13.1985 15.8782C13.3684 16.9886 13.4486 18.1085 13.392 19.2269V19.2253Z" fill="white"/>
</svg>
