<?xml version="1.0" encoding="UTF-8"?>
<svg id="Layer_2" data-name="Layer 2" xmlns="http://www.w3.org/2000/svg" viewBox="0 0 4326.94 2592">
  <defs>
    <style>
      .cls-1 {
        fill: #e0e0e0;
      }

      .cls-2 {
        stroke: #b2b2b2;
      }

      .cls-2, .cls-3, .cls-4, .cls-5, .cls-6, .cls-7, .cls-8, .cls-9, .cls-10 {
        stroke-miterlimit: 10;
      }

      .cls-2, .cls-3, .cls-5, .cls-6, .cls-8, .cls-9, .cls-10 {
        fill: none;
      }

      .cls-2, .cls-3, .cls-5, .cls-9 {
        stroke-width: 18px;
      }

      .cls-11 {
        fill: #8b6cdc;
      }

      .cls-12 {
        fill: #b7b38a;
      }

      .cls-3 {
        stroke: #96937d;
      }

      .cls-4 {
        font-family: OpenSans, 'Open Sans';
        font-size: 41.8px;
        stroke: #fff;
      }

      .cls-4, .cls-7, .cls-13 {
        fill: #fff;
      }

      .cls-4, .cls-10 {
        stroke-width: 3px;
      }

      .cls-5 {
        stroke: #939393;
      }

      .cls-14 {
        fill: #c9f78f;
      }

      .cls-6 {
        stroke: #7c4700;
        stroke-width: 6px;
      }

      .cls-15 {
        fill: #2d8e00;
      }

      .cls-16 {
        fill: #64d6f9;
      }

      .cls-7 {
        stroke-width: 7px;
      }

      .cls-7, .cls-8 {
        stroke: #8b6cdc;
      }

      .cls-8 {
        stroke-width: 4px;
      }

      .cls-17 {
        fill: #66aa3a;
      }

      .cls-18 {
        fill: #515151;
      }

      .cls-9 {
        stroke: #b7b38a;
      }

      .cls-19 {
        fill: #aa6500;
      }

      .cls-10 {
        stroke: #0f0b38;
      }

      .cls-20 {
        fill: #faa02a;
      }

      .cls-21 {
        fill: #0fafed;
      }

      .cls-22 {
        fill: #b2b2b2;
      }
    </style>
  </defs>
  <g id="Pavement">
    <g>
      <rect class="cls-13" width="4320" height="2592"/>
      <polygon class="cls-21" points="406.36 546.15 457.03 342.46 526.48 368.84 453.69 567.39 406.36 546.15"/>
      <path class="cls-16" d="M417.92,546.15S135.12,1491.49,108.14,1580.53c-26.98,89.05-65.39,273.72-74.43,338.11-9.04,64.39-14.2,98.27-14.2,114.54s-1.91,83.72,2.87,110.03,22.01,101.42,117.2,113.85l3006.54-.66,1173.87-11.5v-938.7s-.67-242.8-12.58-311.52l-7.33-159.42-3.95-69.42v-423.38H457.03s-28.03,128.94-39.11,203.69Z"/>
      <path class="cls-14" d="M406.36,546.15s278.15-.97,275.98,8.08c-2.16,9.05,224.97,16.5,225.01,6.59.04-9.91,176.35-3.4,178.41,5.23,2.06,8.63,193.19-3.31,199.37,5.85,8.93,13.25,187.6,20.95,191.13,5.62,2.38-10.33,289.74-.76,288.82,8.5-.92,9.26,135.83-5.8,139.98,4.12,4.16,9.92,231.46-3.51,235.74,6.96,4.27,10.47,248.06,25.05,252.45,7.48,4.39-17.57,176.29,5.25,176.29,5.25,0,0,272.97-5.28,271.54,8.32-1.43,13.61,426.91-16.22,423.89-6.14-3.02,10.08,152.6-35.17,138.94,17.02-13.67,52.18-11.35,78.65-302.43,73.69-235.17-4.01-118.31,75.06-141.09,112.3-8.42,13.77-2.5,91.37-5,116.29-2.5,24.92,32.45,52.88,3.34,68.11-29.12,15.23-12.51,53.16-9.17,68.94,3.34,15.78,6.67,108.81,7.5,137.05.37,12.49,21.65,127.56-5.09,139.8-26.74,12.24-2.79,172.19,9.81,177.37,13.09,5.39,71.74,204.66,61.98,261.43-9.76,56.77,21.16,161.9,11.92,170.52-11,10.26,61.78,157.88,31.61,158.63-30.17.76,48.11,143.24,48.11,143.24l-2988.43.65s-188.23,23.56-106.29-338.42c81.94-361.98,385.69-1372.5,385.69-1372.5Z"/>
      <path class="cls-14" d="M471.96,562.21s278.15-.97,275.98,8.08c-2.16,9.05,224.97,16.5,225.01,6.59.04-9.91,176.35-3.4,178.41,5.23,2.06,8.63,193.19-3.31,199.37,5.85,8.93,13.25,187.6,20.95,191.13,5.62,2.38-10.33,289.74-.76,288.82,8.5-.92,9.26,135.83-5.8,139.98,4.12,4.16,9.92,231.46-3.51,235.74,6.96,4.27,10.47,248.06,25.05,252.45,7.48,4.39-17.57,176.29,5.25,176.29,5.25,0,0,272.97-5.28,271.54,8.32-1.43,13.61,426.91-16.22,423.89-6.14-3.02,10.08,152.6-35.17,138.94,17.02-13.67,52.18-11.35,78.65-302.43,73.69-235.17-4.01-118.31,75.06-141.09,112.3-8.42,13.77-2.5,91.37-5,116.29-2.5,24.92,32.45,52.88,3.34,68.11-29.12,15.23-12.51,53.16-9.17,68.94,3.34,15.78,6.67,108.81,7.5,137.05.37,12.49,21.65,127.56-5.09,139.8-26.74,12.24-2.79,172.19,9.81,177.37,13.09,5.39,71.74,204.66,61.98,261.43-9.76,56.77,21.16,161.9,11.92,170.52-11,10.26,61.78,157.88,31.61,158.63-30.17.76,48.11,143.24,48.11,143.24l-2988.43.65s-188.23,23.56-106.29-338.42c81.94-361.98,385.69-1372.5,385.69-1372.5Z"/>
      <path class="cls-14" d="M3290.6,2252.26s-3.43-164.12-44.26-238.97c0,0-39.13-697.5-47.63-750.24,0,0-36.15-111.19-39.42-117.74,0,0,13.75-37.33,16.37-53.7,0,0,3.27-124.43,11.79-167.65,0,0,9.61-6.92,14.25-15.78,4.64-8.86,21.3-35.48,21.65-38.39.35-2.91,7.22-21.65,7.8-23.98.58-2.33,6.75-7.45,7.57-7.68s38.07,4.54,39.24,5.47,5.74,6.22,5.74,6.22l1023.92-4.68,13.44,218.97,5.89,273.21v904.78l-1036.34,10.15Z"/>
      <path class="cls-9" d="M4242.6,2245.66l-6.48-131.12s-9.7,127.56,83.87,117.03"/>
      <polyline class="cls-3" points="3484.92 1027.98 4264.95 1027.98 4311.72 1027.98"/>
      <path class="cls-9" d="M3983.34,858.47l-.18,1239.83s-26.37,1.52-41.88,1"/>
      <path class="cls-2" d="M974.3,1347.12s16.51-72.25,21.32-78.93"/>
      <path class="cls-9" d="M3470.52,1141.55s136.2,33.43,146.03-72.5v-200.51h366.79"/>
      <path class="cls-9" d="M714.41,559.24s-67.47,84.21-82.41,97.8c-14.94,13.58-86.3,89.8-33.92,190.2,52.38,100.4-53.92,371.24-82.4,476.1-28.48,104.86-257.61,908.74-257.61,908.74,0,0-44.9,28.59-133.67,10.38-88.77-18.21-96.35-125.94-96.35-129.74s11.38-195.74,19.73-198.78,273.89,80.42,273.89,80.42c0,0,121.18,41.26,217.87-3.53,0,0-32.23-107.06-13.66-167.7,0,0-124.58-45.98-132.74-41.51"/>
      <path class="cls-9" d="M3946,2099c-42.64,2.95-104.13-.96-149.01-7.85-14.96-2.3-28.08-4.92-38.04-7.74-39.84-11.26-129.03-50.23-174.06-69.28-45.03-19.05-73.61-48.5-73.61-48.5-41.57-33.77-78.8-109.98-106.53-167.14-27.73-57.15-38.95-183.59-30.29-260.66,8.66-77.07,65.81-253.73,76.85-314.41,11.03-60.68,48.55-166.01,29.04-214.09-19.51-48.08-75.26-81.53-110.8-98.25-35.54-16.72-77.35-22.3-119.16-18.81-41.81,3.48-356.23,39.29-356.23,39.29,0,0,74.65-7.36-118.35,10.54-193,17.91-414.85,117.39-463.59,136.29-48.75,18.9-266.92,130.89-304.84,143.76-37.92,12.88-196.7,53.84-235.31,65.97-38.61,12.13-204.07,30.89-283.49,35.3-79.42,4.41-214.86-2.78-257.55-6.75-42.7-3.97-262.13-54.61-262.13-54.61l-400.17-111.23"/>
      <path class="cls-9" d="M2007.38,1222.17s16.18,35.14,17.12,82.42,1.89,233.54,0,261.9c-1.89,28.36,1.89,182.48-40.66,254.34-42.55,71.86-116.29,222.19-303.5,281.76,0,0-133.69,29.52-169.99,30.06"/>
      <path class="cls-9" d="M1231.04,1316.69s-24.23,73.4-16.75,143.45c7.48,70.05,22.47,141.83,54.22,183.43,31.74,41.6,132.53,143.23,147.76,178.04,14.02,32.04,66.13,97.24,61.33,234.67-.42,11.88-1.26,24.3-2.58,37.29l-2.98,39.05h43.9"/>
      <line class="cls-5" x1="4236.13" y1="2114.54" x2="4235.84" y2="2109.05"/>
      <path class="cls-9" d="M1477.59,2056.29c-25.96,15.3-192.94,4.88-192.94,4.88l-10.22-.71"/>
      <path class="cls-9" d="M1261.01,1632.71s-44.92,14.64-77.91,11.44l-17.31,2.22"/>
      <path class="cls-1" d="M961.44,1390.65c-3.97,26.77-17.08,152.27-14.11,191.96,2.96,39.69,32.58,175.96,45.62,235.2,13.03,59.24,7.7,307.56,7.7,307.56l269.86-3.5s-3.02-218.67-27.89-286.12-52.01-151.1-77.64-197.09c-25.63-45.99-34.67-216.77-32.41-236.91l1.37-16.08s-145.59-24.52-161.1-35.02c0,0-8.26,18.97-11.39,40.01Z"/>
      <path class="cls-9" d="M1416.27,1821.62s38.44,13.77-159.34,14.13l-19.94,2.52"/>
      <path class="cls-2" d="M961.84,1390.65c-3.97,26.77-17.08,152.27-14.11,191.96,2.96,39.69,32.58,175.96,45.62,235.2,13.03,59.24,7.7,304.06,7.7,304.06l269.86,2.34s-3.02-221.01-27.89-288.46-52.01-151.1-77.64-197.09c-25.63-45.99-34.67-216.77-32.41-236.91l1.37-16.08s-145.59-24.52-161.1-35.02c0,0-8.26,18.97-11.39,40.01Z"/>
      <line class="cls-9" x1="3792.04" y1="2247.51" x2="3796.99" y2="2091.15"/>
      <path class="cls-12" d="M2026.42,1214.68c-2.35-.86-5.14-.37-6.78,2.39-2.91.02-5.87,1.9-6,5.63l-.28,8.18c-.61,1.81-1.14,3.65-1.6,5.5-1.57-2.04-3.1-4.1-4.58-6.22-3-4.32-8.91-2.7-10.63.8-3.51-1.19-7.2-1.95-11.03-2.18-7.51-.44-7.48,11.24,0,11.68,10.48.62,19.7,7.04,24.25,16.25.05,1.12.13,2.24.23,3.36.47,4.88,5.69,6.58,9,5.04,2.26-.69,4.13-2.55,4.11-5.17,1.27-.91,2.08-2.43,1.89-4.56-1.04-11.59,1.57-22.46,7.89-32.24,3.13-4.84-2.05-9.41-6.48-8.47Z"/>
      <path class="cls-12" d="M1242.37,1316.09c-6.29,2.96-11.75,7.23-16.13,12.42-3.68-9.4-9.96-17.17-21.14-19.52-7.33-1.54-10.47,9.71-3.1,11.26,10.53,2.22,14.39,11.92,16.18,21.67-.81,2.01-1.5,4.08-2.04,6.2-1.01,3.97,1.87,6.69,5,7.18,3.39,3.48,10.64,2.31,10.02-3.63-.27-2.57-.59-5.23-1.02-7.92,3.78-7.72,10.03-13.77,18.12-17.58,6.8-3.2.87-13.27-5.9-10.09Z"/>
      <path class="cls-12" d="M595.02,1154.68c-1.28-.46-2.46-1.06-3.54-1.77-.63-1.76-2.22-3.22-4.15-3.84-2.86-3.71-4.21-8.55-3.75-13.42.7-7.48-10.98-7.43-11.68,0-.57,6.05.87,11.85,3.76,16.82-1.24.55-2.47,1.09-3.7,1.64-4.08,1.05-7.99,2.54-11.85,4.58-5.11,2.71-2.76,11.05,2.95,10.88,8.04-.23,15.51-2.69,21.95-7.15,2.13,1.44,4.45,2.63,6.92,3.5,7.1,2.52,10.15-8.76,3.1-11.26Z"/>
      <path class="cls-12" d="M419.19,1779.68c-8.53-1.29-16.19-6.4-19.46-14.62-2.74-6.9-14.05-3.89-11.26,3.11,1.99,5,4.95,9.48,8.65,13.15-5.98.25-11.78,1.39-17.33,3.63-2.92,1.18-4.98,3.89-4.08,7.18.76,2.77,4.24,5.27,7.18,4.08,4.63-1.87,9.34-3.02,14.33-3.22,4.19-.17,6.05-3.91,5.55-7.11,3.94,2.55,8.43,4.32,13.31,5.06,7.35,1.12,10.52-10.14,3.11-11.26Z"/>
      <path class="cls-12" d="M358.75,1998.09c-5.25-.67-10.03-3.47-13.54-7.4-1.01-3.48-2.78-6.63-5.13-9.23-.38-1.33-.64-2.7-.75-4.08-.35-4.52-4.8-6.32-8.11-5.35-2.03-1.09-4.63-1.2-6.86.62-.73.6-1.49,1.17-2.26,1.72-5.04.48-9.86,2.81-13.55,6.31-1.88.49-3.8.85-5.74,1.07-7.08.79-7.45,11.54-.9,11.71-.12.99-.16,1.99-.12,3.01.29,6.37,3.02,12.19,7.36,16.29,1.43,4.5,2.65,9.06,3.69,13.68,1.64,7.33,12.9,4.23,11.26-3.11-.21-.94-.44-1.87-.67-2.8.74-.69,1.5-1.33,2.29-1.95,5.22-.45,10.22-2.9,13.97-6.58,1.11-.23,2.23-.42,3.38-.54,2.93-.29,4.71-2.3,5.33-4.58,3.21,1.43,6.68,2.42,10.34,2.89,7.43.95,7.37-10.74,0-11.68Z"/>
      <path class="cls-12" d="M1273.9,1647.35c-7.29-5.5-15.01-10.28-23.16-14.37,3.77-7.58,4.86-16.39,2.6-25.13-2.07-8-14.47-4.61-12.39,3.42,2.38,9.2-1.02,19.21-8.92,24.68-6.75,4.68-.33,15.82,6.48,11.09,1.6-1.11,3.1-2.32,4.48-3.63.1.05.19.11.29.16,8.51,4.2,16.55,9.15,24.12,14.86,6.6,4.98,13.01-6.17,6.48-11.09Z"/>
      <path class="cls-12" d="M1483.68,2104.16c-2.88-15.24-8.07-29.8-15.29-43.52-.11-.2-.22-.39-.34-.57,4.27-3.96,8.14-8.36,11.56-13.2,4.78-6.77-6.35-13.19-11.09-6.48-6.39,9.05-14.86,16.02-24.71,21.01-7.38,3.73-.88,14.82,6.48,11.09,2.61-1.32,5.1-2.79,7.5-4.37,6.44,12.47,10.89,25.65,13.5,39.46,1.53,8.11,13.92,4.68,12.39-3.42Z"/>
      <path class="cls-12" d="M3501.18,1140.83c-.59.02-1.17.05-1.75.09-.37-.21-.77-.39-1.21-.55-7.52-2.59-12.54-9.81-12.7-17.69-.17-8.26-13.02-8.28-12.85,0,.17,8.44,3.53,16.09,9.07,21.8-5.77,2.07-11.23,5.01-16.21,8.84-6.46,4.97-.07,16.14,6.48,11.09,8.58-6.6,18.3-10.39,29.16-10.74,8.25-.27,8.28-13.12,0-12.85Z"/>
      <path class="cls-12" d="M3810.23,2092.09c-5.52,1.21-10.43,4.24-14.18,8.32-1.31-3.34-2.72-6.64-4.24-9.91-3.48-7.49-14.56-.97-11.09,6.48,3.24,6.99,5.83,14.19,7.9,21.59-.01.94.01,1.89.11,2.83.81,8.15,13.67,8.24,12.85,0,0-.09,0-.17-.01-.26.37-1.06.44-2.3.09-3.67.85-6.36,5.33-11.55,12.01-13.01,8.07-1.77,4.66-14.16-3.42-12.39Z"/>
      <rect class="cls-22" x="4012.7" y="1122.91" width="252.26" height="991.63" rx="28.83" ry="28.83"/>
      <path class="cls-17" d="M1120.24,1446.88h-107.79c-1.78,0-3.14-1.72-2.88-3.63l2.94-22.2c.25-1.86,1.71-3.24,3.43-3.24h102.75c1.5,0,3.09.85,3.2,2.49l1.18,23.27c.12,1.79-1.18,3.31-2.82,3.31Z"/>
      <path class="cls-17" d="M1123.51,1493.37l-115.86.21c-1.82,0-3.23-1.91-3.01-4.08l2.17-21.15c.19-1.82,1.47-3.19,3-3.19l112.37-.18c1.62,0,2.96,1.52,3.03,3.47.21,5.87.72,13.23,1.31,20.95.16,2.13-1.23,3.97-3.01,3.97Z"/>
      <path class="cls-17" d="M1127.98,1538.24l-127.2.2c-.37,0-2.44-1.34-2.36-2.38l1.54-19.17c.15-1.84,1.67-3.26,3.5-3.27l120.7-.15c2.59,0,4.93,2.12,5.18,4.73.47,4.89,1.23,10.44,1.81,16.48.18,1.9-1.29,3.55-3.18,3.56Z"/>
      <path class="cls-17" d="M1136.12,1590.95l-132.04.22c-.16,0-1.56-.03-3.1-.1-2.49-.11-4.54-2.28-4.81-5.1l-.87-9.12s0-.09,0-.14l.08-8.66c.03-2.97,2.15-5.37,4.76-5.37l131.22-.19c2.19,0,4.06,1.81,4.4,4.28.78,5.82,1.87,12.41,3.18,20.29.33,2.01-1.02,3.89-2.82,3.89Z"/>
      <path class="cls-17" d="M1148.07,1638.32l-134.69.23c-.17,0-1.74,0-3.38-.03-2.32-.05-4.3-1.92-4.77-4.5l-3.6-19.8c-.43-2.37,1.17-4.59,3.3-4.59l137.23.29c1.54,0,2.87,1.19,3.25,2.88,1.3,5.74,3.22,11.79,5.98,20.08.87,2.62-.84,5.43-3.31,5.43Z"/>
      <line class="cls-9" x1="1472.03" y1="2132.63" x2="285.66" y2="2127.79"/>
      <path class="cls-6" d="M1543.02,1386.03s-18.91,57.29-13.07,111.98c5.84,54.68,17.54,110.71,42.32,143.18,24.78,32.47,103.45,111.8,115.34,138.98,10.94,25.01,51.62,75.9,47.87,183.18-.32,9.27-.98,18.97-2.02,29.11l-2.33,30.49"/>
      <polyline class="cls-10" points="4075.18 1167.57 4142.25 1167.57 4142.25 1200.74 4075.18 1200.74"/>
      <polyline class="cls-10" points="4209.27 1200.68 4142.19 1200.7 4142.18 1167.53 4209.26 1167.51"/>
      <polyline class="cls-10" points="4075.19 1200.89 4142.26 1200.89 4142.26 1234.06 4075.19 1234.06"/>
      <polyline class="cls-10" points="4209.27 1234 4142.2 1234.01 4142.19 1200.84 4209.27 1200.83"/>
      <polyline class="cls-10" points="4075.19 1234.27 4142.26 1234.27 4142.26 1267.44 4075.19 1267.44"/>
      <polyline class="cls-10" points="4209.27 1267.38 4142.2 1267.4 4142.19 1234.23 4209.27 1234.21"/>
      <polyline class="cls-10" points="4074.92 1267.44 4141.99 1267.44 4141.99 1300.61 4074.92 1300.61"/>
      <polyline class="cls-10" points="4209 1300.55 4141.93 1300.57 4141.92 1267.4 4209 1267.38"/>
      <polyline class="cls-10" points="4074.86 1300.74 4141.93 1300.74 4141.93 1333.91 4074.86 1333.91"/>
      <polyline class="cls-10" points="4208.94 1333.85 4141.87 1333.87 4141.86 1300.7 4208.93 1300.68"/>
      <polyline class="cls-10" points="4074.9 1335.23 4141.98 1335.23 4141.98 1368.4 4074.9 1368.4"/>
      <polyline class="cls-10" points="4208.99 1368.34 4141.92 1368.35 4141.91 1335.18 4208.98 1335.17"/>
      <polyline class="cls-10" points="4074.9 1369.34 4141.98 1369.34 4141.98 1402.51 4074.9 1402.51"/>
      <polyline class="cls-10" points="4208.99 1402.45 4141.92 1402.46 4141.91 1369.29 4208.98 1369.28"/>
      <polyline class="cls-10" points="4074.3 1402.42 4141.38 1402.42 4141.38 1435.59 4074.3 1435.59"/>
      <polyline class="cls-10" points="4208.39 1435.53 4141.31 1435.55 4141.31 1402.38 4208.38 1402.36"/>
      <polyline class="cls-10" points="4071.48 1692.93 4138.55 1692.93 4138.55 1726.09 4071.48 1726.09"/>
      <polyline class="cls-10" points="4205.57 1726.03 4138.49 1726.05 4138.48 1692.88 4205.56 1692.86"/>
      <polyline class="cls-10" points="4071.48 1726.31 4138.55 1726.31 4138.55 1759.48 4071.48 1759.48"/>
      <polyline class="cls-10" points="4205.57 1759.42 4138.49 1759.44 4138.48 1726.27 4205.56 1726.25"/>
      <polyline class="cls-10" points="4071.21 1759.48 4138.28 1759.48 4138.28 1792.65 4071.21 1792.65"/>
      <polyline class="cls-10" points="4205.29 1792.59 4138.22 1792.61 4138.21 1759.44 4205.29 1759.42"/>
      <polyline class="cls-10" points="4071.15 1792.78 4138.22 1792.78 4138.22 1825.95 4071.15 1825.95"/>
      <polyline class="cls-10" points="4205.23 1825.89 4138.16 1825.9 4138.15 1792.74 4205.22 1792.72"/>
      <polyline class="cls-10" points="4071.2 1827.27 4138.27 1827.27 4138.27 1860.43 4071.2 1860.43"/>
      <polyline class="cls-10" points="4205.28 1860.37 4138.21 1860.39 4138.2 1827.22 4205.27 1827.21"/>
      <polyline class="cls-10" points="4071.2 1861.38 4138.27 1861.38 4138.27 1894.54 4071.2 1894.54"/>
      <polyline class="cls-10" points="4205.28 1894.48 4138.21 1894.5 4138.2 1861.33 4205.27 1861.31"/>
      <polyline class="cls-10" points="4070.59 1894.46 4137.67 1894.46 4137.67 1927.63 4070.59 1927.63"/>
      <polyline class="cls-10" points="4204.68 1927.57 4137.6 1927.58 4137.6 1894.41 4204.67 1894.4"/>
      <polyline class="cls-10" points="4071.38 1928.23 4138.46 1928.23 4138.46 1961.4 4071.38 1961.4"/>
      <polyline class="cls-10" points="4205.47 1961.34 4138.4 1961.36 4138.39 1928.19 4205.46 1928.17"/>
      <path class="cls-18" d="M758.54,1985.43l-4.79-3.62,12.69-16.77c-15.79,1.89-33.73-6.06-50.51-22.67-24-23.75-44.13-65.41-34.83-91.35l157.98-495.28-42.12-11.86,1.63-5.78,48.09,13.54-159.92,501.35c-7.62,21.16,7.36,59.34,33.39,85.1,18.13,17.95,37.34,24.97,52.68,19.26l9.65-3.59-23.95,31.65Z"/>
      <path class="cls-18" d="M636.81,1916.84l-3.02-5.19,14.41-8.38c-25.9-13.5-23.15-50.55-23.11-50.95l.03-.34.1-.32,123.12-386-32.39-10.79,1.9-5.69,38,12.67-.9,2.82-123.91,388.47c-.21,3.66-1.41,38.14,24.79,46.87l6.3,2.1-25.33,14.73Z"/>
      <path class="cls-18" d="M583.03,1900.79l-3.02-5.19,14.41-8.38c-25.9-13.5-23.15-50.55-23.11-50.95l.03-.34.1-.32,123.12-386-32.39-10.79,1.9-5.69,38,12.67-124.81,391.3c-.21,3.67-1.41,38.14,24.79,46.87l6.3,2.1-25.33,14.73Z"/>
      <path class="cls-18" d="M797.93,1399.96l-9.33-15.1c-.41-.66-1.13-1.06-1.91-1.06h-6.94v-7.09h3.19c2.57,0,4.66-2.09,4.66-4.66s-2.09-4.66-4.66-4.66h-3.19v-4.37h3.23c2.57,0,4.66-2.09,4.66-4.66s-2.09-4.66-4.66-4.66h-68.33c-2.57,0-4.66,2.09-4.66,4.66s2.09,4.66,4.66,4.66h1.45v4.37h-1.49c-2.57,0-4.66,2.09-4.66,4.66s2.09,4.66,4.66,4.66h1.49v7.09h-5.06c-.77,0-1.48.39-1.89,1.04l-9.62,15.1c-.5.78-.43,1.68-.01,2.37v26.2h2.19v-25.12h8.38v9.02h2.19v-9.02h73.43v9.34h2.19v-9.34h7.94v25.58h2.19v-26.82c.33-.65.35-1.46-.09-2.17ZM718.28,1363.02h59.28v4.37h-59.28v-4.37ZM718.28,1376.71h59.28v7.09h-59.28v-7.09Z"/>
      <path class="cls-18" d="M1667.31,1252.01l-9.33-15.1c-.41-.66-1.13-1.06-1.91-1.06h-6.94v-7.09h3.19c2.57,0,4.66-2.09,4.66-4.66s-2.09-4.66-4.66-4.66h-3.19v-4.37h3.23c2.57,0,4.66-2.09,4.66-4.66h0c0-2.57-2.09-4.66-4.66-4.66h-68.33c-2.57,0-4.66,2.09-4.66,4.66h0c0,2.57,2.09,4.66,4.66,4.66h1.45v4.37h-1.49c-2.57,0-4.66,2.09-4.66,4.66s2.09,4.66,4.66,4.66h1.49v7.09h-5.06c-.77,0-1.48.39-1.89,1.04l-9.62,15.1c-.5.78-.43,1.68-.01,2.37v26.2h2.19v-25.12h8.38v9.02h2.19v-9.02h73.43v9.34h2.19v-9.34h7.94v25.58h2.19v-26.82c.33-.65.35-1.46-.09-2.17ZM1587.66,1215.06h59.28v4.37h-59.28v-4.37ZM1587.66,1228.75h59.28v7.09h-59.28v-7.09Z"/>
      <g>
        <circle class="cls-7" cx="4139.97" cy="1565.29" r="99.9"/>
        <path class="cls-11" d="M4087.31,1556.31l21.65-33.21c.95-1.46,2.59-2.33,4.34-2.31l26.82.4-.44,61.52h-27.6s.25-12.07-11.83-11.83c0,0-9.46-.69-9.86,12.33l-38.25-1.58c-1.4-.06-2.48-1.23-2.43-2.63l.47-13.77c.08-2.22,1.8-4.03,4.01-4.22l29.54-2.54c1.46-.13,2.79-.92,3.59-2.15Z"/>
        <path class="cls-11" d="M4191.66,1556.32l-21.65-33.21c-.95-1.46-2.59-2.33-4.34-2.31l-26.82.4.44,61.52h27.6s-.25-12.07,11.83-11.83c0,0,9.46-.69,9.86,12.33l38.25-1.58c1.4-.06,2.48-1.23,2.43-2.63l-.47-13.77c-.08-2.22-1.8-4.03-4.01-4.22l-29.54-2.54c-1.46-.13-2.79-.92-3.59-2.15Z"/>
        <circle class="cls-11" cx="4101.19" cy="1581.6" r="9.43"/>
        <circle class="cls-11" cx="4177.83" cy="1581.74" r="9.43"/>
        <text class="cls-4" transform="translate(4128.16 1567.24)"><tspan x="0" y="0">P</tspan></text>
      </g>
      <rect class="cls-22" x="4015.54" y="905.71" width="164.52" height="105.21" rx="21.3" ry="21.3"/>
      <path class="cls-17" d="M1016.21,1398.45l4.54-22.5c.39-1.92,2.12-3.14,3.89-2.74l63.07,14.3c1.88.43,3.18,2.28,3.06,4.37l-.47,8.26c-.1,1.8-1.49,3.2-3.15,3.18l-68.15-1.02c-1.84-.03-3.2-1.89-2.81-3.85Z"/>
      <path class="cls-17" d="M1169.9,1698.71l-143,1.04c-4.34.03-8.13-3.32-9.14-8.09-1.44-6.8-3.18-14.27-4.58-20.93-.91-4.32,2-8.46,5.93-8.46h141.13c4.28,0,8.15,2.87,9.87,7.3,2.13,5.48,4.39,11.64,6.56,17.68,1.96,5.45-1.57,11.42-6.78,11.46Z"/>
      <path class="cls-17" d="M1217.92,1826h-164.64c-3.31,0-6.14-2.57-6.76-6.13-1.44-8.36-3.08-17.94-4.85-28.34-.79-4.64,2.46-8.92,6.76-8.92h160.69c2.97,0,5.62,2.09,6.53,5.19,2.8,9.49,5.92,18.95,8.78,28.26,1.5,4.89-1.81,9.95-6.52,9.95Z"/>
      <path class="cls-17" d="M1237.21,1877.75l-173.05.51c-3.37,0-6.2-2.87-6.51-6.66-.43-5.31-1.01-10.68-1.6-15.57-.43-3.51,2-6.63,5.15-6.61l171.2-.5c2.85.01,5.35,3.31,6.1,6.41,1.21,5,2.36,10.28,3.44,15.79.67,3.4-1.64,6.62-4.73,6.63Z"/>
      <path class="cls-17" d="M1246.19,1925.98l-180.3-.09c-2.99,0-5.43-2.7-5.48-6.07-.08-6.15-1.16-12.07-1.32-18.08-.07-2.97,3.08-5.43,5.72-5.43l178.75-.09c2.14,0,3.95,1.78,4.25,4.16.86,6.93,1.34,13.81,2.04,20.99.24,2.45-1.47,4.6-3.66,4.6Z"/>
      <path class="cls-17" d="M1250.8,1975.87h-181.55c-2.8,0-5.07-2.57-5.09-5.76-.02-5.37-.06-10.83-.11-16.32-.03-3.22,2.26-5.85,5.09-5.85h180.47c2.63,0,4.83,2.28,5.07,5.27.43,5.52.83,11,1.2,16.41.23,3.37-2.11,6.24-5.07,6.24Z"/>
      <path class="cls-17" d="M1252.54,2023.28h-180.76c-3.21,0-5.8-3.31-5.77-7.38.03-4.13.06-8.43.07-12.88.02-4.03,2.6-7.28,5.77-7.28h180.06c3.04,0,5.56,2.99,5.76,6.84.23,4.47.44,8.81.63,12.97s-2.45,7.74-5.77,7.74Z"/>
      <path class="cls-13" d="M1499.15,1934.25c-.08-6.14-.2-12.31-.35-18.44"/>
      <path class="cls-13" d="M1758.24,1915.81c.76,6.13,1.47,12.3,2.13,18.44"/>
      <path class="cls-17" d="M1256.55,2070.43h-184.01c-3.27,0-5.91-3.31-5.88-7.38.03-4.13.06-8.43.08-12.88.02-4.03,2.64-7.28,5.88-7.28h183.3c3.09,0,5.66,2.99,5.87,6.84.24,4.47.45,8.81.64,12.97.19,4.2-2.49,7.74-5.87,7.74Z"/>
      <line class="cls-8" x1="1069.63" y1="1402.73" x2="995.2" y2="1402.16"/>
      <line class="cls-8" x1="1061.43" y1="1448.81" x2="987" y2="1448.25"/>
      <line class="cls-8" x1="1055.99" y1="1494.34" x2="981.56" y2="1493.77"/>
      <line class="cls-8" x1="1053.13" y1="1540.09" x2="978.7" y2="1539.52"/>
      <line class="cls-8" x1="1058.96" y1="1593.52" x2="984.53" y2="1592.95"/>
      <line class="cls-8" x1="1072.99" y1="1639.02" x2="998.55" y2="1638.46"/>
      <line class="cls-8" x1="1082.7" y1="1699" x2="1008.26" y2="1698.44"/>
      <line class="cls-8" x1="1109.07" y1="1826.9" x2="1034.63" y2="1826.34"/>
      <line class="cls-8" x1="1121.77" y1="1877.68" x2="1047.34" y2="1877.11"/>
      <line class="cls-8" x1="1124.89" y1="1928.43" x2="1050.46" y2="1927.86"/>
      <line class="cls-8" x1="1124.89" y1="1977.22" x2="1050.46" y2="1976.65"/>
      <line class="cls-8" x1="1124.89" y1="2024.68" x2="1050.46" y2="2024.12"/>
      <line class="cls-8" x1="1124.89" y1="2073.47" x2="1050.46" y2="2072.9"/>
      <rect class="cls-18" x="3386.88" y="1585.4" width="34.96" height="82.81" rx="10.28" ry="10.28" transform="translate(-74.97 167.21) rotate(-2.78)"/>
      <rect class="cls-18" x="2626.73" y="891.51" width="34.96" height="82.81" rx="10.28" ry="10.28" transform="translate(2923.37 -1857.11) rotate(76.28)"/>
      <rect class="cls-18" x="2350.39" y="1049.02" width="34.96" height="82.81" rx="10.28" ry="10.28" transform="translate(2463.75 -1514.7) rotate(67.38)"/>
      <rect class="cls-18" x="1977.37" y="1149.71" width="34.96" height="82.81" rx="10.28" ry="10.28" transform="translate(2446.9 -1087.88) rotate(70.38)"/>
      <rect class="cls-18" x="1622.45" y="1301.65" width="34.96" height="82.81" rx="10.28" ry="10.28" transform="translate(2769.28 -450.75) rotate(82.88)"/>
      <rect class="cls-18" x="1924.57" y="1797.28" width="34.96" height="82.81" rx="10.28" ry="10.28" transform="translate(1179.53 -724.69) rotate(30)"/>
      <rect class="cls-18" x="417.27" y="1465.02" width="34.96" height="82.81" rx="10.28" ry="10.28" transform="translate(393.68 -60.94) rotate(14.6)"/>
      <rect class="cls-18" x="490.24" y="1826.34" width="21.93" height="51.93" rx="6.28" ry="6.28" transform="translate(250.43 -50.15) rotate(7.63)"/>
      <rect class="cls-18" x="490.93" y="1882.04" width="21.93" height="51.93" rx="6.28" ry="6.28" transform="translate(-209.02 67.63) rotate(-6.38)"/>
      <rect class="cls-18" x="500.29" y="1938.58" width="21.93" height="51.93" rx="6.28" ry="6.28" transform="translate(-462.65 183.44) rotate(-14.08)"/>
      <rect class="cls-22" x="707.28" y="1228.46" width="164.52" height="90.71" rx="19.8" ry="19.8" transform="translate(369.42 -164.75) rotate(15.51)"/>
      <rect class="cls-22" x="816.81" y="2014.05" width="164.52" height="95.3" rx="20.27" ry="20.27" transform="translate(15.85 -6.84) rotate(.44)"/>
      <path class="cls-17" d="M3511.42,1044.85l77.21.44c5.93.03,10.52,5.16,9.94,11.06-2.33,23.42-15.85,75.77-90.37,72.26-7.26-.34-12.47-7.18-10.77-14.24,5.74-23.83,8.25-45.99,6.91-61.95-.34-4.11,2.96-7.6,7.09-7.58Z"/>
      <path class="cls-20" d="M3547.22,946.35c-6.85-4.65-19.75,1.82-24.69,4.64v-6.85c.89-.85,1.44-2.04,1.44-3.36,0-2.57-2.09-4.66-4.66-4.66s-4.66,2.09-4.66,4.66c0,1.42.65,2.68,1.65,3.53v106.45c-.96.85-1.57,2.08-1.57,3.47,0,2.57,2.09,4.66,4.66,4.66s4.66-2.09,4.66-4.66c0-1.36-.59-2.57-1.52-3.43v-69.35c4.5-4.12,15.66-12.59,23.77-4.11,10.15,10.62,26.69-1.84,26.69-1.84l.61-30.07c-7.36,3.37-17.79,6.75-26.39.92Z"/>
      <path class="cls-18" d="M3528.34,1168.71c-9.29,0-19.12-.62-29.47-1.86l.48-3.97c10.2,1.22,19.87,1.83,29,1.83,35.62,0,63.06-9.29,81.82-27.75,31.63-31.13,27.13-78.27,27.08-78.74l3.98-.42c.05.49,4.77,49.48-28.22,81.98-19.53,19.24-47.93,28.92-84.66,28.93Z"/>
      <path class="cls-18" d="M3717.08,1181.76l-9.33-15.1c-.41-.66-1.13-1.06-1.91-1.06h-6.94v-7.09h3.19c2.57,0,4.66-2.09,4.66-4.66s-2.09-4.66-4.66-4.66h-3.19v-4.37h3.23c2.57,0,4.66-2.09,4.66-4.66h0c0-2.57-2.09-4.66-4.66-4.66h-68.33c-2.57,0-4.66,2.09-4.66,4.66h0c0,2.57,2.09,4.66,4.66,4.66h1.45v4.37h-1.49c-2.57,0-4.66,2.09-4.66,4.66s2.09,4.66,4.66,4.66h1.49v7.09h-5.06c-.77,0-1.48.39-1.89,1.04l-9.62,15.1c-.5.78-.43,1.68-.01,2.37v26.2h2.19v-25.12h8.38v9.02h2.19v-9.02h73.43v9.34h2.19v-9.34h7.94v25.58h2.19v-26.82c.33-.65.35-1.46-.09-2.17ZM3637.44,1144.82h59.28v4.37h-59.28v-4.37ZM3637.44,1158.51h59.28v7.09h-59.28v-7.09Z"/>
      <g>
        <path class="cls-18" d="M194.64,1895.66c-7.36,3.37-17.79,6.75-26.39.92-6.85-4.65-19.75,1.82-24.69,4.64v-6.85c.89-.85,1.44-2.04,1.44-3.36,0-2.57-2.09-4.66-4.66-4.66s-4.66,2.09-4.66,4.66c0,1.42.65,2.68,1.65,3.53v106.45c-.96.85-1.57,2.08-1.57,3.47,0,2.57,2.09,4.66,4.66,4.66s4.66-2.09,4.66-4.66c0-1.36-.59-2.57-1.52-3.43v-69.35c4.5-4.12,15.66-12.59,23.77-4.11,10.15,10.62,26.69-1.84,26.69-1.84l.61-30.07Z"/>
        <path class="cls-18" d="M244.25,1974.19c-7.36,3.37-17.79,6.75-26.39.92-6.85-4.65-19.75,1.82-24.69,4.64v-6.85c.89-.85,1.44-2.04,1.44-3.36,0-2.57-2.09-4.66-4.66-4.66s-4.66,2.09-4.66,4.66c0,1.42.65,2.68,1.65,3.53v106.45c-.96.85-1.57,2.08-1.57,3.47,0,2.57,2.09,4.66,4.66,4.66s4.66-2.09,4.66-4.66c0-1.36-.59-2.57-1.52-3.43v-69.35c4.5-4.12,15.66-12.59,23.77-4.11,10.15,10.62,26.69-1.84,26.69-1.84l.61-30.07Z"/>
        <path class="cls-18" d="M260.52,2061.38c-6.85-4.65-19.75,1.82-24.69,4.64v-6.85c.89-.85,1.44-2.04,1.44-3.36,0-2.57-2.09-4.66-4.66-4.66s-4.66,2.09-4.66,4.66c0,1.42.65,2.68,1.65,3.53v106.45c-.96.85-1.57,2.08-1.57,3.47,0,2.57,2.09,4.66,4.66,4.66s4.66-2.09,4.66-4.66c0-1.36-.59-2.57-1.52-3.43v-69.35c4.5-4.12,15.66-12.59,23.77-4.11,10.15,10.62,26.69-1.84,26.69-1.84l.61-30.07c-7.36,3.37-17.79,6.75-26.39.92Z"/>
      </g>
      <rect class="cls-18" x="123.01" y="2038.02" width="6" height="141.15" transform="translate(-1291.5 542.48) rotate(-38.73)"/>
      <polygon class="cls-18" points="118.8 2059.08 86.19 2017.34 90.65 1968.19 96.63 1968.73 92.38 2015.52 123.53 2055.39 118.8 2059.08"/>
      <polygon class="cls-18" points="213.15 2211.54 163.81 2210.42 122.6 2160.94 127.21 2157.1 166.68 2204.49 213.28 2205.55 213.15 2211.54"/>
      <g id="Layer_1-2" data-name="Layer 1-2">
        <path class="cls-19" d="M454.92,772.64c2.64,22.22-2.96,38.18-14.83,49.41l41.47.04c-19.34-9.6-16.66-30.53-16.63-54.82l-6.14-6.74-3.85,12.11Z"/>
        <g>
          <circle class="cls-15" cx="444.44" cy="719.25" r="20.55"/>
          <circle class="cls-15" cx="430.72" cy="739.83" r="20.55"/>
          <circle class="cls-15" cx="442.67" cy="763.77" r="20.55"/>
          <circle class="cls-15" cx="475.36" cy="760.27" r="20.55"/>
          <circle class="cls-15" cx="468.17" cy="737.44" r="20.55"/>
          <circle class="cls-15" cx="475.79" cy="722.48" r="20.55"/>
          <circle class="cls-15" cx="490.71" cy="739.21" r="20.55"/>
        </g>
      </g>
      <g id="Layer_1-2-2" data-name="Layer 1-2">
        <path class="cls-19" d="M466.52,1101.27c2.64,22.22-2.96,38.18-14.83,49.41l41.47.04c-19.34-9.6-16.66-30.53-16.63-54.82l-6.14-6.74-3.85,12.11Z"/>
        <g>
          <circle class="cls-15" cx="456.03" cy="1047.88" r="20.55"/>
          <circle class="cls-15" cx="442.32" cy="1068.46" r="20.55"/>
          <circle class="cls-15" cx="454.27" cy="1092.4" r="20.55"/>
          <circle class="cls-15" cx="486.96" cy="1088.9" r="20.55"/>
          <circle class="cls-15" cx="479.77" cy="1066.07" r="20.55"/>
          <circle class="cls-15" cx="487.38" cy="1051.11" r="20.55"/>
          <circle class="cls-15" cx="502.31" cy="1067.84" r="20.55"/>
        </g>
      </g>
      <g id="Layer_1-2-3" data-name="Layer 1-2">
        <path class="cls-19" d="M302.21,1371.9c2.64,22.22-2.96,38.18-14.83,49.41l41.47.04c-19.34-9.6-16.66-30.53-16.63-54.82l-6.14-6.74-3.85,12.11Z"/>
        <g>
          <circle class="cls-15" cx="291.72" cy="1318.51" r="20.55"/>
          <circle class="cls-15" cx="278.01" cy="1339.09" r="20.55"/>
          <circle class="cls-15" cx="289.95" cy="1363.04" r="20.55"/>
          <circle class="cls-15" cx="322.65" cy="1359.53" r="20.55"/>
          <circle class="cls-15" cx="315.45" cy="1336.71" r="20.55"/>
          <circle class="cls-15" cx="323.07" cy="1321.75" r="20.55"/>
          <circle class="cls-15" cx="338" cy="1338.47" r="20.55"/>
        </g>
      </g>
      <g id="Layer_1-2-4" data-name="Layer 1-2">
        <path class="cls-19" d="M615.37,1340.97c2.64,22.22-2.96,38.18-14.83,49.41l41.47.04c-19.34-9.6-16.66-30.53-16.63-54.82l-6.14-6.74-3.85,12.11Z"/>
        <g>
          <circle class="cls-15" cx="604.88" cy="1287.58" r="20.55"/>
          <circle class="cls-15" cx="591.17" cy="1308.16" r="20.55"/>
          <circle class="cls-15" cx="603.12" cy="1332.11" r="20.55"/>
          <circle class="cls-15" cx="635.81" cy="1328.6" r="20.55"/>
          <circle class="cls-15" cx="628.62" cy="1305.78" r="20.55"/>
          <circle class="cls-15" cx="636.23" cy="1290.82" r="20.55"/>
          <circle class="cls-15" cx="651.16" cy="1307.54" r="20.55"/>
        </g>
      </g>
      <g id="Layer_1-2-5" data-name="Layer 1-2">
        <path class="cls-19" d="M718.63,863.59c2.64,22.22-2.96,38.18-14.83,49.41l41.47.04c-19.34-9.6-16.66-30.53-16.63-54.82l-6.14-6.74-3.85,12.11Z"/>
        <g>
          <circle class="cls-15" cx="708.15" cy="810.2" r="20.55"/>
          <circle class="cls-15" cx="694.43" cy="830.78" r="20.55"/>
          <circle class="cls-15" cx="706.38" cy="854.72" r="20.55"/>
          <circle class="cls-15" cx="739.07" cy="851.22" r="20.55"/>
          <circle class="cls-15" cx="731.88" cy="828.4" r="20.55"/>
          <circle class="cls-15" cx="739.5" cy="813.43" r="20.55"/>
          <circle class="cls-15" cx="754.42" cy="830.16" r="20.55"/>
        </g>
      </g>
      <g id="Layer_1-2-6" data-name="Layer 1-2">
        <path class="cls-19" d="M1025.89,1119.13c2.64,22.22-2.96,38.18-14.83,49.41l41.47.04c-19.34-9.6-16.66-30.53-16.63-54.82l-6.14-6.74-3.85,12.11Z"/>
        <g>
          <circle class="cls-15" cx="1015.4" cy="1065.74" r="20.55"/>
          <circle class="cls-15" cx="1001.69" cy="1086.32" r="20.55"/>
          <circle class="cls-15" cx="1013.64" cy="1110.26" r="20.55"/>
          <circle class="cls-15" cx="1046.33" cy="1106.76" r="20.55"/>
          <circle class="cls-15" cx="1039.14" cy="1083.94" r="20.55"/>
          <circle class="cls-15" cx="1046.75" cy="1068.97" r="20.55"/>
          <circle class="cls-15" cx="1061.68" cy="1085.7" r="20.55"/>
        </g>
      </g>
      <g id="Layer_1-2-7" data-name="Layer 1-2">
        <path class="cls-19" d="M1473.69,1248.08c2.64,22.22-2.96,38.18-14.83,49.41l41.47.04c-19.34-9.6-16.66-30.53-16.63-54.82l-6.14-6.74-3.85,12.11Z"/>
        <g>
          <circle class="cls-15" cx="1463.2" cy="1194.69" r="20.55"/>
          <circle class="cls-15" cx="1449.49" cy="1215.27" r="20.55"/>
          <circle class="cls-15" cx="1461.44" cy="1239.22" r="20.55"/>
          <circle class="cls-15" cx="1494.13" cy="1235.71" r="20.55"/>
          <circle class="cls-15" cx="1486.93" cy="1212.89" r="20.55"/>
          <circle class="cls-15" cx="1494.55" cy="1197.93" r="20.55"/>
          <circle class="cls-15" cx="1509.48" cy="1214.65" r="20.55"/>
        </g>
      </g>
      <g id="Layer_1-2-8" data-name="Layer 1-2">
        <path class="cls-19" d="M538.05,1658.01c2.64,22.22-2.96,38.18-14.83,49.41l41.47.04c-19.34-9.6-16.66-30.53-16.63-54.82l-6.14-6.74-3.85,12.11Z"/>
        <g>
          <circle class="cls-15" cx="527.56" cy="1604.61" r="20.55"/>
          <circle class="cls-15" cx="513.85" cy="1625.2" r="20.55"/>
          <circle class="cls-15" cx="525.8" cy="1649.14" r="20.55"/>
          <circle class="cls-15" cx="558.49" cy="1645.64" r="20.55"/>
          <circle class="cls-15" cx="551.29" cy="1622.81" r="20.55"/>
          <circle class="cls-15" cx="558.91" cy="1607.85" r="20.55"/>
          <circle class="cls-15" cx="573.84" cy="1624.58" r="20.55"/>
        </g>
      </g>
      <g id="Layer_1-2-9" data-name="Layer 1-2">
        <path class="cls-19" d="M412.02,2180.13c2.64,22.22-2.96,38.18-14.83,49.41l41.47.04c-19.34-9.6-16.66-30.53-16.63-54.82l-6.14-6.74-3.85,12.11Z"/>
        <g>
          <circle class="cls-15" cx="401.53" cy="2126.74" r="20.55"/>
          <circle class="cls-15" cx="387.82" cy="2147.32" r="20.55"/>
          <circle class="cls-15" cx="399.77" cy="2171.26" r="20.55"/>
          <circle class="cls-15" cx="432.46" cy="2167.76" r="20.55"/>
          <circle class="cls-15" cx="425.27" cy="2144.93" r="20.55"/>
          <circle class="cls-15" cx="432.88" cy="2129.97" r="20.55"/>
          <circle class="cls-15" cx="447.81" cy="2146.7" r="20.55"/>
        </g>
      </g>
      <g id="Layer_1-2-10" data-name="Layer 1-2">
        <path class="cls-19" d="M610.79,2181.87c2.64,22.22-2.96,38.18-14.83,49.41l41.47.04c-19.34-9.6-16.66-30.53-16.63-54.82l-6.14-6.74-3.85,12.11Z"/>
        <g>
          <circle class="cls-15" cx="600.3" cy="2128.48" r="20.55"/>
          <circle class="cls-15" cx="586.58" cy="2149.06" r="20.55"/>
          <circle class="cls-15" cx="598.53" cy="2173.01" r="20.55"/>
          <circle class="cls-15" cx="631.23" cy="2169.5" r="20.55"/>
          <circle class="cls-15" cx="624.03" cy="2146.68" r="20.55"/>
          <circle class="cls-15" cx="631.65" cy="2131.72" r="20.55"/>
          <circle class="cls-15" cx="646.57" cy="2148.44" r="20.55"/>
        </g>
      </g>
      <g id="Layer_1-2-11" data-name="Layer 1-2">
        <path class="cls-19" d="M1011.53,2185.36c2.64,22.22-2.96,38.18-14.83,49.41l41.47.04c-19.34-9.6-16.66-30.53-16.63-54.82l-6.14-6.74-3.85,12.11Z"/>
        <g>
          <circle class="cls-15" cx="1001.04" cy="2131.97" r="20.55"/>
          <circle class="cls-15" cx="987.33" cy="2152.55" r="20.55"/>
          <circle class="cls-15" cx="999.28" cy="2176.49" r="20.55"/>
          <circle class="cls-15" cx="1031.97" cy="2172.99" r="20.55"/>
          <circle class="cls-15" cx="1024.78" cy="2150.16" r="20.55"/>
          <circle class="cls-15" cx="1032.39" cy="2135.2" r="20.55"/>
          <circle class="cls-15" cx="1047.32" cy="2151.93" r="20.55"/>
        </g>
      </g>
      <g id="Layer_1-2-12" data-name="Layer 1-2">
        <path class="cls-19" d="M1602.86,2173.15c2.64,22.22-2.96,38.18-14.83,49.41l41.47.04c-19.34-9.6-16.66-30.53-16.63-54.82l-6.14-6.74-3.85,12.11Z"/>
        <g>
          <circle class="cls-15" cx="1592.37" cy="2119.76" r="20.55"/>
          <circle class="cls-15" cx="1578.65" cy="2140.34" r="20.55"/>
          <circle class="cls-15" cx="1590.6" cy="2164.29" r="20.55"/>
          <circle class="cls-15" cx="1623.3" cy="2160.78" r="20.55"/>
          <circle class="cls-15" cx="1616.1" cy="2137.96" r="20.55"/>
          <circle class="cls-15" cx="1623.72" cy="2123" r="20.55"/>
          <circle class="cls-15" cx="1638.64" cy="2139.72" r="20.55"/>
        </g>
      </g>
      <g>
        <rect class="cls-19" x="444.98" y="1846.22" width="23.34" height="33.21" transform="translate(67.54 -15.27) rotate(2.07)"/>
        <polygon class="cls-15" points="457.17 1733.41 500.54 1780.83 416.65 1779.01 457.17 1733.41"/>
        <polyline class="cls-15" points="417.09 1814.11 457.62 1768.51 500.99 1815.93"/>
        <polyline class="cls-15" points="416.1 1851.02 456.62 1805.42 499.99 1852.84"/>
      </g>
      <g>
        <rect class="cls-19" x="1311.41" y="1376.15" width="23.34" height="33.21" transform="translate(51.14 -46.85) rotate(2.07)"/>
        <polygon class="cls-15" points="1323.6 1263.34 1366.97 1310.76 1283.08 1308.94 1323.6 1263.34"/>
        <polyline class="cls-15" points="1283.52 1344.04 1324.05 1298.44 1367.42 1345.86"/>
        <polyline class="cls-15" points="1282.53 1380.95 1323.05 1335.35 1366.42 1382.77"/>
      </g>
      <g>
        <rect class="cls-19" x="377.15" y="1969.53" width="25.57" height="36.38" transform="translate(72 -12.78) rotate(2.07)"/>
        <polygon class="cls-15" points="390.5 1845.96 438.01 1897.9 346.11 1895.9 390.5 1845.96"/>
        <polyline class="cls-15" points="346.6 1934.36 390.99 1884.41 438.5 1936.35"/>
        <polyline class="cls-15" points="345.5 1974.79 389.9 1924.84 437.4 1976.78"/>
      </g>
      <g id="Layer_1-2-13" data-name="Layer 1-2">
        <path class="cls-19" d="M3385.26,2186.21c2.64,22.22-2.96,38.18-14.83,49.41l41.47.04c-19.34-9.6-16.66-30.53-16.63-54.82l-6.14-6.74-3.85,12.11Z"/>
        <g>
          <circle class="cls-15" cx="3374.77" cy="2132.82" r="20.55"/>
          <circle class="cls-15" cx="3361.06" cy="2153.4" r="20.55"/>
          <circle class="cls-15" cx="3373" cy="2177.35" r="20.55"/>
          <circle class="cls-15" cx="3405.7" cy="2173.85" r="20.55"/>
          <circle class="cls-15" cx="3398.5" cy="2151.02" r="20.55"/>
          <circle class="cls-15" cx="3406.12" cy="2136.06" r="20.55"/>
          <circle class="cls-15" cx="3421.05" cy="2152.79" r="20.55"/>
        </g>
      </g>
      <g id="Layer_1-2-14" data-name="Layer 1-2">
        <path class="cls-19" d="M3643.76,2185.58c2.64,22.22-2.96,38.18-14.83,49.41l41.47.04c-19.34-9.6-16.66-30.53-16.63-54.82l-6.14-6.74-3.85,12.11Z"/>
        <g>
          <circle class="cls-15" cx="3633.27" cy="2132.19" r="20.55"/>
          <circle class="cls-15" cx="3619.56" cy="2152.77" r="20.55"/>
          <circle class="cls-15" cx="3631.51" cy="2176.72" r="20.55"/>
          <circle class="cls-15" cx="3664.2" cy="2173.21" r="20.55"/>
          <circle class="cls-15" cx="3657.01" cy="2150.39" r="20.55"/>
          <circle class="cls-15" cx="3664.62" cy="2135.43" r="20.55"/>
          <circle class="cls-15" cx="3679.55" cy="2152.15" r="20.55"/>
        </g>
      </g>
      <g id="Layer_1-2-15" data-name="Layer 1-2">
        <path class="cls-19" d="M3943.58,2187.82c2.64,22.22-2.96,38.18-14.83,49.41l41.47.04c-19.34-9.6-16.66-30.53-16.63-54.82l-6.14-6.74-3.85,12.11Z"/>
        <g>
          <circle class="cls-15" cx="3933.09" cy="2134.43" r="20.55"/>
          <circle class="cls-15" cx="3919.38" cy="2155.01" r="20.55"/>
          <circle class="cls-15" cx="3931.33" cy="2178.96" r="20.55"/>
          <circle class="cls-15" cx="3964.02" cy="2175.45" r="20.55"/>
          <circle class="cls-15" cx="3956.82" cy="2152.63" r="20.55"/>
          <circle class="cls-15" cx="3964.44" cy="2137.67" r="20.55"/>
          <circle class="cls-15" cx="3979.37" cy="2154.39" r="20.55"/>
        </g>
      </g>
      <g>
        <path class="cls-15" d="M1620.45,1531.04s-27.3-11.7-35.1-50.7c0,0,11.14,17.13,21.23,20.1,0,0-18.97-19.53-11.28-33.25,0,0,12.47,27.31,22.56,27.91,0,0-18.41-21.97-14.25-37.41,4.16-15.44,0,0,0,0,0,0,13.66,29.69,21.38,31.47,0,0-20.19-31.47-11.28-38.59,0,0,9.5,33.25,18.41,35.03,0,0-8.91-25.53-5.94-35.63,0,0,8.31,33.25,11.88,33.84,0,0-5.34-24.34-1.78-33.25,0,0,8.91,24.34,6.53,32.66l-2.38,48.69-19.98-.87"/>
        <path class="cls-15" d="M1659.16,1529.85s27.3-11.7,35.1-50.7c0,0-11.14,17.13-21.23,20.1,0,0,18.97-19.53,11.28-33.25,0,0-12.47,27.31-22.56,27.91,0,0,18.41-21.97,14.25-37.41-4.16-15.44,0,0,0,0,0,0-13.66,29.69-21.38,31.47,0,0,20.19-31.47,11.28-38.59,0,0-9.5,33.25-18.41,35.03,0,0,8.91-25.53,5.94-35.63,0,0-8.31,33.25-11.88,33.84,0,0,5.34-24.34,1.78-33.25,0,0-8.91,24.34-6.53,32.66l2.38,48.69,19.98-.87"/>
        <path class="cls-17" d="M1638.34,1536.06s-33.19,2.91-47.61-3.23,16.48-17.69,16.48-17.69c0,0,25.96,8.07,36.35,5.68,10.39-2.39,21.06-14.46,31.12-8.05,10.05,6.41,26.44,15.94,20.69,22.44l-57.02.86Z"/>
      </g>
      <g>
        <path class="cls-17" d="M1688.51,1701.65s-27.3-11.7-35.1-50.7c0,0,11.14,17.13,21.23,20.1,0,0-18.97-19.53-11.28-33.25,0,0,12.47,27.31,22.56,27.91,0,0-18.41-21.97-14.25-37.41,4.16-15.44,0,0,0,0,0,0,13.66,29.69,21.38,31.47,0,0-20.19-31.47-11.28-38.59,0,0,9.5,33.25,18.41,35.03,0,0-8.91-25.53-5.94-35.63,0,0,8.31,33.25,11.88,33.84,0,0-5.34-24.34-1.78-33.25,0,0,8.91,24.34,6.53,32.66l-2.38,48.69-19.98-.87"/>
        <path class="cls-17" d="M1727.22,1700.46s27.3-11.7,35.1-50.7c0,0-11.14,17.13-21.23,20.1,0,0,18.97-19.53,11.28-33.25,0,0-12.47,27.31-22.56,27.91,0,0,18.41-21.97,14.25-37.41-4.16-15.44,0,0,0,0,0,0-13.66,29.69-21.38,31.47,0,0,20.19-31.47,11.28-38.59,0,0-9.5,33.25-18.41,35.03,0,0,8.91-25.53,5.94-35.63,0,0-8.31,33.25-11.88,33.84,0,0,5.34-24.34,1.78-33.25,0,0-8.91,24.34-6.53,32.66l2.38,48.69,19.98-.87"/>
        <path class="cls-15" d="M1706.39,1706.67s-33.19,2.91-47.61-3.23c-14.42-6.14,16.48-17.69,16.48-17.69,0,0,25.96,8.07,36.35,5.68,10.39-2.39,21.06-14.46,31.12-8.05,10.05,6.41,26.44,15.94,20.69,22.44l-57.02.86Z"/>
      </g>
      <g>
        <path class="cls-17" d="M3267.49,1312.41s-27.3-11.7-35.1-50.7c0,0,11.14,17.13,21.23,20.1,0,0-18.97-19.53-11.28-33.25,0,0,12.47,27.31,22.56,27.91,0,0-18.41-21.97-14.25-37.41,4.16-15.44,0,0,0,0,0,0,13.66,29.69,21.38,31.47,0,0-20.19-31.47-11.28-38.59,0,0,9.5,33.25,18.41,35.03,0,0-8.91-25.53-5.94-35.63,0,0,8.31,33.25,11.88,33.84,0,0-5.34-24.34-1.78-33.25,0,0,8.91,24.34,6.53,32.66l-2.38,48.69-19.98-.87"/>
        <path class="cls-17" d="M3306.21,1311.22s27.3-11.7,35.1-50.7c0,0-11.14,17.13-21.23,20.1,0,0,18.97-19.53,11.28-33.25,0,0-12.47,27.31-22.56,27.91,0,0,18.41-21.97,14.25-37.41-4.16-15.44,0,0,0,0,0,0-13.66,29.69-21.38,31.47,0,0,20.19-31.47,11.28-38.59,0,0-9.5,33.25-18.41,35.03,0,0,8.91-25.53,5.94-35.63,0,0-8.31,33.25-11.88,33.84,0,0,5.34-24.34,1.78-33.25,0,0-8.91,24.34-6.53,32.66l2.38,48.69,19.98-.87"/>
        <path class="cls-15" d="M3285.38,1317.43s-33.19,2.91-47.61-3.23c-14.42-6.14,16.48-17.69,16.48-17.69,0,0,25.96,8.07,36.35,5.68,10.39-2.39,21.06-14.46,31.12-8.05,10.05,6.41,26.44,15.94,20.69,22.44l-57.02.86Z"/>
      </g>
      <g>
        <path class="cls-17" d="M3260.3,1625s-27.3-11.7-35.1-50.7c0,0,11.14,17.13,21.23,20.1,0,0-18.97-19.53-11.28-33.25,0,0,12.47,27.31,22.56,27.91,0,0-18.41-21.97-14.25-37.41,4.16-15.44,0,0,0,0,0,0,13.66,29.69,21.38,31.47,0,0-20.19-31.47-11.28-38.59,0,0,9.5,33.25,18.41,35.03,0,0-8.91-25.53-5.94-35.63,0,0,8.31,33.25,11.88,33.84,0,0-5.34-24.34-1.78-33.25,0,0,8.91,24.34,6.53,32.66l-2.38,48.69-19.98-.87"/>
        <path class="cls-17" d="M3299.02,1623.82s27.3-11.7,35.1-50.7c0,0-11.14,17.13-21.23,20.1,0,0,18.97-19.53,11.28-33.25,0,0-12.47,27.31-22.56,27.91,0,0,18.41-21.97,14.25-37.41-4.16-15.44,0,0,0,0,0,0-13.66,29.69-21.38,31.47,0,0,20.19-31.47,11.28-38.59,0,0-9.5,33.25-18.41,35.03,0,0,8.91-25.53,5.94-35.63,0,0-8.31,33.25-11.88,33.84,0,0,5.34-24.34,1.78-33.25,0,0-8.91,24.34-6.53,32.66l2.38,48.69,19.98-.87"/>
        <path class="cls-15" d="M3278.19,1630.02s-33.19,2.91-47.61-3.23c-14.42-6.14,16.48-17.69,16.48-17.69,0,0,25.96,8.07,36.35,5.68,10.39-2.39,21.06-14.46,31.12-8.05,10.05,6.41,26.44,15.94,20.69,22.44l-57.02.86Z"/>
      </g>
      <g>
        <path class="cls-17" d="M3299.83,1926.82s-27.3-11.7-35.1-50.7c0,0,11.14,17.13,21.23,20.1,0,0-18.97-19.53-11.28-33.25,0,0,12.47,27.31,22.56,27.91,0,0-18.41-21.97-14.25-37.41,4.16-15.44,0,0,0,0,0,0,13.66,29.69,21.38,31.47,0,0-20.19-31.47-11.28-38.59,0,0,9.5,33.25,18.41,35.03,0,0-8.91-25.53-5.94-35.63,0,0,8.31,33.25,11.88,33.84,0,0-5.34-24.34-1.78-33.25,0,0,8.91,24.34,6.53,32.66l-2.38,48.69-19.98-.87"/>
        <path class="cls-17" d="M3338.54,1925.63s27.3-11.7,35.1-50.7c0,0-11.14,17.13-21.23,20.1,0,0,18.97-19.53,11.28-33.25,0,0-12.47,27.31-22.56,27.91,0,0,18.41-21.97,14.25-37.41-4.16-15.44,0,0,0,0,0,0-13.66,29.69-21.38,31.47,0,0,20.19-31.47,11.28-38.59,0,0-9.5,33.25-18.41,35.03,0,0,8.91-25.53,5.94-35.63,0,0-8.31,33.25-11.88,33.84,0,0,5.34-24.34,1.78-33.25,0,0-8.91,24.34-6.53,32.66l2.38,48.69,19.98-.87"/>
        <path class="cls-15" d="M3317.72,1931.84s-33.19,2.91-47.61-3.23c-14.42-6.14,16.48-17.69,16.48-17.69,0,0,25.96,8.07,36.35,5.68,10.39-2.39,21.06-14.46,31.12-8.05,10.05,6.41,26.44,15.94,20.69,22.44l-57.02.86Z"/>
      </g>
      <g>
        <path class="cls-17" d="M1596,1994.49s-27.3-11.7-35.1-50.7c0,0,11.14,17.13,21.23,20.1,0,0-18.97-19.53-11.28-33.25,0,0,12.47,27.31,22.56,27.91,0,0-18.41-21.97-14.25-37.41,4.16-15.44,0,0,0,0,0,0,13.66,29.69,21.38,31.47,0,0-20.19-31.47-11.28-38.59,0,0,9.5,33.25,18.41,35.03,0,0-8.91-25.53-5.94-35.63,0,0,8.31,33.25,11.88,33.84,0,0-5.34-24.34-1.78-33.25,0,0,8.91,24.34,6.53,32.66l-2.38,48.69-19.98-.87"/>
        <path class="cls-17" d="M1634.72,1993.3s27.3-11.7,35.1-50.7c0,0-11.14,17.13-21.23,20.1,0,0,18.97-19.53,11.28-33.25,0,0-12.47,27.31-22.56,27.91,0,0,18.41-21.97,14.25-37.41-4.16-15.44,0,0,0,0,0,0-13.66,29.69-21.38,31.47,0,0,20.19-31.47,11.28-38.59,0,0-9.5,33.25-18.41,35.03,0,0,8.91-25.53,5.94-35.63,0,0-8.31,33.25-11.88,33.84,0,0,5.34-24.34,1.78-33.25,0,0-8.91,24.34-6.53,32.66l2.38,48.69,19.98-.87"/>
        <path class="cls-15" d="M1613.89,1999.51s-33.19,2.91-47.61-3.23c-14.42-6.14,16.48-17.69,16.48-17.69,0,0,25.96,8.07,36.35,5.68,10.39-2.39,21.06-14.46,31.12-8.05,10.05,6.41,26.44,15.94,20.69,22.44l-57.02.86Z"/>
      </g>
      <g>
        <path class="cls-15" d="M1782.4,1863.23s-27.3-11.7-35.1-50.7c0,0,11.14,17.13,21.23,20.1,0,0-18.97-19.53-11.28-33.25,0,0,12.47,27.31,22.56,27.91,0,0-18.41-21.97-14.25-37.41,4.16-15.44,0,0,0,0,0,0,13.66,29.69,21.38,31.47,0,0-20.19-31.47-11.28-38.59,0,0,9.5,33.25,18.41,35.03,0,0-8.91-25.53-5.94-35.63,0,0,8.31,33.25,11.88,33.84,0,0-5.34-24.34-1.78-33.25,0,0,8.91,24.34,6.53,32.66l-2.38,48.69-19.98-.87"/>
        <path class="cls-15" d="M1821.12,1862.04s27.3-11.7,35.1-50.7c0,0-11.14,17.13-21.23,20.1,0,0,18.97-19.53,11.28-33.25,0,0-12.47,27.31-22.56,27.91,0,0,18.41-21.97,14.25-37.41-4.16-15.44,0,0,0,0,0,0-13.66,29.69-21.38,31.47,0,0,20.19-31.47,11.28-38.59,0,0-9.5,33.25-18.41,35.03,0,0,8.91-25.53,5.94-35.63,0,0-8.31,33.25-11.88,33.84,0,0,5.34-24.34,1.78-33.25,0,0-8.91,24.34-6.53,32.66l2.38,48.69,19.98-.87"/>
        <path class="cls-17" d="M1800.29,1868.25s-33.19,2.91-47.61-3.23c-14.42-6.14,16.48-17.69,16.48-17.69,0,0,25.96,8.07,36.35,5.68,10.39-2.39,21.06-14.46,31.12-8.05,10.05,6.41,26.44,15.94,20.69,22.44l-57.02.86Z"/>
      </g>
      <g>
        <path class="cls-15" d="M2843.67,1094.49s-27.3-11.7-35.1-50.7c0,0,11.14,17.13,21.23,20.1,0,0-18.97-19.53-11.28-33.25,0,0,12.47,27.31,22.56,27.91,0,0-18.41-21.97-14.25-37.41,4.16-15.44,0,0,0,0,0,0,13.66,29.69,21.38,31.47,0,0-20.19-31.47-11.28-38.59,0,0,9.5,33.25,18.41,35.03,0,0-8.91-25.53-5.94-35.63,0,0,8.31,33.25,11.88,33.84,0,0-5.34-24.34-1.78-33.25,0,0,8.91,24.34,6.53,32.66l-2.38,48.69-19.98-.87"/>
        <path class="cls-15" d="M2882.38,1093.3s27.3-11.7,35.1-50.7c0,0-11.14,17.13-21.23,20.1,0,0,18.97-19.53,11.28-33.25,0,0-12.47,27.31-22.56,27.91,0,0,18.41-21.97,14.25-37.41-4.16-15.44,0,0,0,0,0,0-13.66,29.69-21.38,31.47,0,0,20.19-31.47,11.28-38.59,0,0-9.5,33.25-18.41,35.03,0,0,8.91-25.53,5.94-35.63,0,0-8.31,33.25-11.88,33.84,0,0,5.34-24.34,1.78-33.25,0,0-8.91,24.34-6.53,32.66l2.38,48.69,19.98-.87"/>
        <path class="cls-17" d="M2861.56,1099.51s-33.19,2.91-47.61-3.23c-14.42-6.14,16.48-17.69,16.48-17.69,0,0,25.96,8.07,36.35,5.68,10.39-2.39,21.06-14.46,31.12-8.05,10.05,6.41,26.44,15.94,20.69,22.44l-57.02.86Z"/>
      </g>
      <g>
        <path class="cls-15" d="M2832.89,1421.45s-27.3-11.7-35.1-50.7c0,0,11.14,17.13,21.23,20.1,0,0-18.97-19.53-11.28-33.25,0,0,12.47,27.31,22.56,27.91,0,0-18.41-21.97-14.25-37.41,4.16-15.44,0,0,0,0,0,0,13.66,29.69,21.38,31.47,0,0-20.19-31.47-11.28-38.59,0,0,9.5,33.25,18.41,35.03,0,0-8.91-25.53-5.94-35.63,0,0,8.31,33.25,11.88,33.84,0,0-5.34-24.34-1.78-33.25,0,0,8.91,24.34,6.53,32.66l-2.38,48.69-19.98-.87"/>
        <path class="cls-15" d="M2871.6,1420.26s27.3-11.7,35.1-50.7c0,0-11.14,17.13-21.23,20.1,0,0,18.97-19.53,11.28-33.25,0,0-12.47,27.31-22.56,27.91,0,0,18.41-21.97,14.25-37.41-4.16-15.44,0,0,0,0,0,0-13.66,29.69-21.38,31.47,0,0,20.19-31.47,11.28-38.59,0,0-9.5,33.25-18.41,35.03,0,0,8.91-25.53,5.94-35.63,0,0-8.31,33.25-11.88,33.84,0,0,5.34-24.34,1.78-33.25,0,0-8.91,24.34-6.53,32.66l2.38,48.69,19.98-.87"/>
        <path class="cls-17" d="M2850.78,1426.47s-33.19,2.91-47.61-3.23c-14.42-6.14,16.48-17.69,16.48-17.69,0,0,25.96,8.07,36.35,5.68,10.39-2.39,21.06-14.46,31.12-8.05,10.05,6.41,26.44,15.94,20.69,22.44l-57.02.86Z"/>
      </g>
      <g>
        <path class="cls-15" d="M2890.38,1759.19s-27.3-11.7-35.1-50.7c0,0,11.14,17.13,21.23,20.1,0,0-18.97-19.53-11.28-33.25,0,0,12.47,27.31,22.56,27.91,0,0-18.41-21.97-14.25-37.41,4.16-15.44,0,0,0,0,0,0,13.66,29.69,21.38,31.47,0,0-20.19-31.47-11.28-38.59,0,0,9.5,33.25,18.41,35.03,0,0-8.91-25.53-5.94-35.63,0,0,8.31,33.25,11.88,33.84,0,0-5.34-24.34-1.78-33.25,0,0,8.91,24.34,6.53,32.66l-2.38,48.69-19.98-.87"/>
        <path class="cls-15" d="M2929.09,1758.01s27.3-11.7,35.1-50.7c0,0-11.14,17.13-21.23,20.1,0,0,18.97-19.53,11.28-33.25,0,0-12.47,27.31-22.56,27.91,0,0,18.41-21.97,14.25-37.41-4.16-15.44,0,0,0,0,0,0-13.66,29.69-21.38,31.47,0,0,20.19-31.47,11.28-38.59,0,0-9.5,33.25-18.41,35.03,0,0,8.91-25.53,5.94-35.63,0,0-8.31,33.25-11.88,33.84,0,0,5.34-24.34,1.78-33.25,0,0-8.91,24.34-6.53,32.66l2.38,48.69,19.98-.87"/>
        <path class="cls-17" d="M2908.26,1764.21s-33.19,2.91-47.61-3.23,16.48-17.69,16.48-17.69c0,0,25.96,8.07,36.35,5.68,10.39-2.39,21.06-14.46,31.12-8.05,10.05,6.41,26.44,15.94,20.69,22.44l-57.02.86Z"/>
      </g>
      <g>
        <path class="cls-15" d="M2919.12,2086.16s-27.3-11.7-35.1-50.7c0,0,11.14,17.13,21.23,20.1,0,0-18.97-19.53-11.28-33.25,0,0,12.47,27.31,22.56,27.91,0,0-18.41-21.97-14.25-37.41s0,0,0,0c0,0,13.66,29.69,21.38,31.47,0,0-20.19-31.47-11.28-38.59,0,0,9.5,33.25,18.41,35.03,0,0-8.91-25.53-5.94-35.63,0,0,8.31,33.25,11.88,33.84,0,0-5.34-24.34-1.78-33.25,0,0,8.91,24.34,6.53,32.66l-2.38,48.69-19.98-.87"/>
        <path class="cls-15" d="M2957.84,2084.97s27.3-11.7,35.1-50.7c0,0-11.14,17.13-21.23,20.1,0,0,18.97-19.53,11.28-33.25,0,0-12.47,27.31-22.56,27.91,0,0,18.41-21.97,14.25-37.41-4.16-15.44,0,0,0,0,0,0-13.66,29.69-21.38,31.47,0,0,20.19-31.47,11.28-38.59,0,0-9.5,33.25-18.41,35.03,0,0,8.91-25.53,5.94-35.63,0,0-8.31,33.25-11.88,33.84,0,0,5.34-24.34,1.78-33.25,0,0-8.91,24.34-6.53,32.66l2.38,48.69,19.98-.87"/>
        <path class="cls-17" d="M2937.01,2091.18s-33.19,2.91-47.61-3.23c-14.42-6.14,16.48-17.69,16.48-17.69,0,0,25.96,8.07,36.35,5.68,10.39-2.39,21.06-14.46,31.12-8.05,10.05,6.41,26.44,15.94,20.69,22.44l-57.02.86Z"/>
      </g>
      <g>
        <path class="cls-15" d="M1577.01,1816.41s-27.3-11.7-35.1-50.7c0,0,11.14,17.13,21.23,20.1,0,0-18.97-19.53-11.28-33.25,0,0,12.47,27.31,22.56,27.91,0,0-18.41-21.97-14.25-37.41,4.16-15.44,0,0,0,0,0,0,13.66,29.69,21.38,31.47,0,0-20.19-31.47-11.28-38.59,0,0,9.5,33.25,18.41,35.03,0,0-8.91-25.53-5.94-35.63,0,0,8.31,33.25,11.88,33.84,0,0-5.34-24.34-1.78-33.25,0,0,8.91,24.34,6.53,32.66l-2.38,48.69-19.98-.87"/>
        <path class="cls-15" d="M1615.72,1815.22s27.3-11.7,35.1-50.7c0,0-11.14,17.13-21.23,20.1,0,0,18.97-19.53,11.28-33.25,0,0-12.47,27.31-22.56,27.91,0,0,18.41-21.97,14.25-37.41s0,0,0,0c0,0-13.66,29.69-21.38,31.47,0,0,20.19-31.47,11.28-38.59,0,0-9.5,33.25-18.41,35.03,0,0,8.91-25.53,5.94-35.63,0,0-8.31,33.25-11.88,33.84,0,0,5.34-24.34,1.78-33.25,0,0-8.91,24.34-6.53,32.66l2.38,48.69,19.98-.87"/>
        <path class="cls-17" d="M1594.9,1821.43s-33.19,2.91-47.61-3.23c-14.42-6.14,16.48-17.69,16.48-17.69,0,0,25.96,8.07,36.35,5.68,10.39-2.39,21.06-14.46,31.12-8.05,10.05,6.41,26.44,15.94,20.69,22.44l-57.02.86Z"/>
      </g>
      <rect class="cls-22" x="3636.16" y="884.49" width="328.51" height="62.02" rx="13.01" ry="13.01"/>
      <rect class="cls-18" x="3985.1" y="857.19" width="28.57" height="82.81" rx="10.28" ry="10.28"/>
      <rect class="cls-18" x="3584.68" y="857.19" width="28.57" height="82.81" rx="10.28" ry="10.28"/>
      <rect class="cls-18" x="3672.53" y="903.46" width="18.92" height="53.32" rx="4.34" ry="4.34" transform="translate(2751.87 4612.12) rotate(-90)"/>
      <rect class="cls-18" x="3733.65" y="903.46" width="18.92" height="53.32" rx="4.34" ry="4.34" transform="translate(2812.99 4673.24) rotate(-90)"/>
      <rect class="cls-18" x="3795.5" y="903.46" width="18.92" height="53.32" rx="4.34" ry="4.34" transform="translate(2874.84 4735.09) rotate(-90)"/>
      <rect class="cls-18" x="3855.1" y="903.46" width="18.92" height="53.32" rx="4.34" ry="4.34" transform="translate(2934.43 4794.68) rotate(-90)"/>
      <rect class="cls-18" x="3913.17" y="903.51" width="18.92" height="53.32" rx="4.34" ry="4.34" transform="translate(2992.46 4852.8) rotate(-90)"/>
    </g>
  </g>
</svg>