<?xml version="1.0" encoding="UTF-8"?>
<svg id="icon--map-gf" xmlns="http://www.w3.org/2000/svg" viewBox="0 0 234.76 234.55">
  <rect y=".21" width="234.34" height="234.34" rx="12" ry="12" fill="#4c5c6b"/>
  <g>
    <polygon points="205.46 101.79 197.51 114.56 204.67 104.19 206.07 101.93 205.46 101.79" fill="#0fafed"/>
    <polygon points="140.39 157.77 182.18 136.75 119.58 101.3 65.5 105 140.39 157.77" fill="#9fb2c1"/>
    <polygon points="65.5 105 140.39 157.77 102.85 196.81 45.77 117.8 65.5 105" fill="#fff"/>
    <polygon points="182.18 136.75 206.07 101.93 136.94 84.74 119.58 101.3 182.18 136.75" fill="#fff"/>
    <polygon points="65.5 105 45.77 117.8 102.85 196.81 140.39 157.77 182.25 136.84 206.21 101.97 136.94 84.74 119.58 101.3 67.56 104.86 65.5 105" fill="none" stroke="#4c5c6b" stroke-miterlimit="10" stroke-width="6"/>
    <path d="M117.64,38.53c-18.81.38-32,18.74-26.73,36.8,2.85,9.76,11.81,27.37,27.42,43.9,15.61-16.53,24.48-34.09,27.32-43.85,5.27-18.06-7.98-36.48-26.79-36.86,0,0-1.2,0-1.23,0h0Z" fill="#fff" stroke="#4c5c6b" stroke-miterlimit="10" stroke-width="4.4"/>
    <circle cx="118.33" cy="67.76" r="11.12" fill="#4c5c6b"/>
  </g>
</svg>