<?xml version="1.0" encoding="UTF-8"?>
<svg id="Pavement" xmlns="http://www.w3.org/2000/svg" xmlns:xlink="http://www.w3.org/1999/xlink" version="1.1" viewBox="0 0 2867 4778.4">
  <!-- Generator: Adobe Illustrator 29.3.1, SVG Export Plug-In . SVG Version: 2.1.0 Build 151)  -->
  <defs>
    <style>
      .st0 {
        fill: #e0e0e0;
      }

      .st1 {
        stroke: #b2b2b2;
      }

      .st1, .st2, .st3, .st4, .st5, .st6, .st7, .st8 {
        stroke-miterlimit: 10;
      }

      .st1, .st2, .st3, .st4, .st5, .st7, .st8 {
        fill: none;
      }

      .st1, .st2, .st3, .st7 {
        stroke-width: 18px;
      }

      .st9 {
        fill: #514f43;
        font-size: 100px;
      }

      .st9, .st10 {
        font-family: PTSans-Regular, 'PT Sans';
      }

      .st11 {
        fill: #b7b38a;
      }

      .st12 {
        fill: #13132d;
      }

      .st2 {
        stroke: #96937d;
      }

      .st10 {
        font-size: 28px;
      }

      .st10, .st13, .st6 {
        fill: #fff;
      }

      .st3 {
        stroke: #939393;
      }

      .st14 {
        fill: #686868;
        font-size: 71.2px;
      }

      .st14, .st15 {
        font-family: PTSans-Bold, 'PT Sans';
        font-weight: 700;
      }

      .st16 {
        fill: #c9f78f;
      }

      .st4 {
        stroke: #7c4700;
        stroke-width: 6px;
      }

      .st17 {
        fill: #2d8e00;
      }

      .st18 {
        fill: #64d6f9;
      }

      .st15 {
        fill: #0f0b38;
        font-size: 47px;
      }

      .st5 {
        stroke: #8b6cdc;
        stroke-width: 4px;
      }

      .st19 {
        fill: #d8ffca;
      }

      .st20 {
        fill: #66aa3a;
      }

      .st21 {
        fill: #515151;
      }

      .st6 {
        stroke: #686868;
        stroke-width: 7px;
      }

      .st7 {
        stroke: #b7b38a;
      }

      .st22 {
        fill: #aa6500;
      }

      .st23 {
        fill: #79aa71;
      }

      .st8 {
        stroke: #0f0b38;
        stroke-width: 3px;
      }

      .st24 {
        fill: #0fafed;
      }

      .st25 {
        fill: #b2b2b2;
      }
    </style>
  </defs>
  <image width="198" height="198" transform="translate(2259.8 2574.5) rotate(90) scale(1.8)" xlink:href="Tulip_Tulipa_clusiana_&apos;Lady_Jane&apos;_Rock_Ledge_Flower_2000px.jpg"/>
  <rect class="st23" x="-952.3" y="955.7" width="4778.4" height="2867" transform="translate(3827.1 954) rotate(90)"/>
  <g>
    <polygon class="st24" points="2183.9 779.8 2387.6 830.6 2361.2 900.1 2162.7 827.1 2183.9 779.8"/>
    <path class="st18" d="M2183.9,791.4s-945.1-283.5-1034.2-310.5c-89-27-273.7-65.6-338.1-74.7-64.4-9.1-98.3-14.3-114.5-14.3s-83.7-2-110,2.8c-26.3,4.8-101.4,21.9-113.9,117.1l-1.6,3006.5,10.6,1173.9,938.7.7s242.8-.5,311.5-12.3l159.4-7.2,69.4-3.9,423.4.3,2.8-3839.1s-128.9-28.1-203.7-39.3Z"/>
    <path class="st16" d="M2183.9,779.8s.8,278.1-8.3,276c-9-2.2-16.7,225-6.8,225,9.9,0,3.3,176.4-5.4,178.4-8.6,2.1,3.2,193.2-6,199.4-13.3,8.9-21.1,187.6-5.8,191.1,10.3,2.4.6,289.7-8.7,288.8-9.3-.9,5.7,135.8-4.2,140-9.9,4.1,3.3,231.5-7.1,235.7-10.5,4.3-25.2,248-7.7,252.4,17.6,4.4-5.4,176.3-5.4,176.3,0,0,5.1,273-8.5,271.5-13.6-1.4,15.9,426.9,5.8,423.9-10.1-3,35.1,152.6-17.1,138.9-52.2-13.7-78.6-11.4-73.5-302.5,4.2-235.2-75-118.4-112.2-141.2-13.8-8.4-91.4-2.6-116.3-5.1-24.9-2.5-52.9,32.4-68.1,3.3-15.2-29.1-53.1-12.5-68.9-9.2-15.8,3.3-108.8,6.6-137.1,7.4-12.5.4-127.6,21.6-139.8-5.2-12.2-26.7-172.2-2.9-177.4,9.7-5.4,13.1-204.7,71.6-261.5,61.8-56.8-9.8-161.9,21-170.5,11.8-10.3-11-157.9,61.7-158.7,31.5-.7-30.2-143.3,48-143.3,48l1.5-2988.4s-23.4-188.2,338.5-106c361.9,82.2,1372.2,386.7,1372.2,386.7Z"/>
    <path class="st16" d="M2167.8,845.4s.8,278.1-8.3,276c-9-2.2-16.7,225-6.8,225,9.9,0,3.3,176.4-5.4,178.4-8.6,2.1,3.2,193.2-6,199.4-13.3,8.9-21.1,187.6-5.8,191.1,10.3,2.4.6,289.7-8.7,288.8-9.3-.9,5.7,135.8-4.2,140-9.9,4.1,3.3,231.5-7.1,235.7-10.5,4.3-25.2,248-7.7,252.4,17.6,4.4-5.4,176.3-5.4,176.3,0,0,5.1,273-8.5,271.5-13.6-1.4,15.9,426.9,5.8,423.9-10.1-3,35.1,152.6-17.1,138.9-52.2-13.7-78.6-11.4-73.5-302.5,4.2-235.2-75-118.4-112.2-141.2-13.8-8.4-91.4-2.6-116.3-5.1-24.9-2.5-52.9,32.4-68.1,3.3-15.2-29.1-53.1-12.5-68.9-9.2-15.8,3.3-108.8,6.6-137.1,7.4-12.5.4-127.6,21.6-139.8-5.2-12.2-26.7-172.2-2.9-177.4,9.7-5.4,13.1-204.7,71.6-261.5,61.8-56.8-9.8-161.9,21-170.5,11.8-10.3-11-157.9,61.7-158.7,31.5-.7-30.2-143.3,48-143.3,48l1.5-2988.4s-23.4-188.2,338.5-106c361.9,82.2,1372.2,386.7,1372.2,386.7Z"/>
    <path class="st16" d="M475.7,3662.8s164.1-3.3,239-44.1c0,0,697.5-38.6,750.3-47.1,0,0,111.2-36.1,117.8-39.3,0,0,37.3,13.8,53.7,16.4,0,0,124.4,3.4,167.6,11.9,0,0,6.9,9.6,15.8,14.3,8.9,4.6,35.5,21.3,38.4,21.7s21.6,7.2,24,7.8,7.4,6.8,7.7,7.6-4.6,38.1-5.5,39.2c-.9,1.2-6.2,5.7-6.2,5.7l3.9,1023.9-219,13.3-273.2,5.7-343.1-.3-327-.2-234.7-.2-9.4-1036.3Z"/>
    <path class="st7" d="M481.6,4614.8l131.1-6.4s-127.6-9.8-117.1,83.8"/>
    <polyline class="st2" points="1699.8 3858 1699.3 4638 1699.2 4684.8"/>
    <path class="st7" d="M1869,4356.5l-1239.8-1.1s-1.5-26.4-1-41.9"/>
    <path class="st19" d="M2162.5,1066"/>
    <path class="st1" d="M1382.5,1347.2s72.2,16.6,78.9,21.4"/>
    <path class="st7" d="M1586.3,3843.5s-33.5,136.2,72.4,146.1h200.5c0,.1-.3,366.9-.3,366.9"/>
    <path class="st7" d="M2170.6,1087.8s-84.2-67.5-97.7-82.5c-13.6-15-89.7-86.4-190.2-34.1-100.4,52.3-371.2-54.2-476-82.8-104.8-28.6-908.6-258.3-908.6-258.3,0,0-28.6-44.9-10.3-133.7,18.3-88.8,126-96.3,129.8-96.3s195.7,11.5,198.8,19.9-80.6,273.8-80.6,273.8c0,0-41.3,121.2,3.4,217.9,0,0,107.1-32.1,167.7-13.5,0,0,46.1-124.6,41.6-132.7"/>
    <path class="st7" d="M628.5,4318.3c-2.9-42.6,1-104.1,8-149,2.3-15,4.9-28.1,7.8-38,11.3-39.8,50.3-129,69.4-174,19.1-45,48.5-73.6,48.5-73.6,33.8-41.5,110-78.7,167.2-106.4,57.2-27.7,183.6-38.8,260.7-30.1,77.1,8.7,253.7,66,314.4,77.1,60.7,11.1,166,48.7,214.1,29.2,48.1-19.5,81.6-75.2,98.3-110.7,16.8-35.5,22.4-77.3,18.9-119.1-3.5-41.8-39-356.3-39-356.3,0,0,7.3,74.7-10.5-118.4-17.8-193-117.1-414.9-136-463.7-18.9-48.8-130.7-267-143.5-304.9-12.9-37.9-53.7-196.7-65.8-235.4-12.1-38.6-30.7-204.1-35.1-283.5-4.4-79.4,2.9-214.9,6.9-257.5,4-42.7,54.8-262.1,54.8-262.1l111.5-400.1"/>
    <path class="st7" d="M1506.7,2380.3s-35.2,16.2-82.4,17.1c-47.3.9-233.5,1.7-261.9-.2-28.4-1.9-182.5,1.8-254.3-40.8-71.8-42.6-222.1-116.5-281.5-303.7,0,0-29.4-133.7-29.9-170"/>
    <path class="st7" d="M1412.8,1603.9s-73.4-24.3-143.4-16.9c-70.1,7.4-141.9,22.4-183.5,54.1-41.6,31.7-143.3,132.4-178.2,147.6-32.1,14-97.3,66.1-234.7,61.2-11.9-.4-24.3-1.3-37.3-2.6l-39.1-3v43.9"/>
    <line class="st3" x1="612.7" y1="4608.4" x2="618.2" y2="4608.1"/>
    <path class="st7" d="M673,1849.9c-15.3-26-4.7-192.9-4.7-192.9l.7-10.2"/>
    <path class="st7" d="M1096.7,1633.6s-14.6-44.9-11.4-77.9l-2.2-17.3"/>
    <path class="st0" d="M1339,1334.3c-26.8-4-152.3-17.2-192-14.3-39.7,2.9-176,32.5-235.2,45.4-59.3,13-307.6,7.5-307.6,7.5l3.3,269.9s218.7-2.9,286.1-27.7c67.5-24.8,151.1-51.9,197.1-77.5,46-25.6,216.8-34.5,236.9-32.2l16.1,1.4s24.6-145.6,35.1-161.1c0,0-19-8.3-40-11.4Z"/>
    <path class="st7" d="M907.7,1788.8s-13.8,38.4-14-159.4l-2.5-19.9"/>
    <path class="st1" d="M1339,1334.7c-26.8-4-152.3-17.2-192-14.3-39.7,2.9-176,32.5-235.2,45.4-59.3,13-304.1,7.5-304.1,7.5l-2.5,269.9s221-2.9,288.5-27.7,151.1-51.9,197.1-77.5c46-25.6,216.8-34.5,236.9-32.2l16.1,1.4s24.6-145.6,35.1-161.1c0,0-19-8.3-40-11.4Z"/>
    <line class="st7" x1="480.1" y1="4164.2" x2="636.4" y2="4169.3"/>
    <path class="st11" d="M1514.2,2399.4c.9-2.3.4-5.1-2.4-6.8,0-2.9-1.9-5.9-5.6-6l-8.2-.3c-1.8-.6-3.6-1.1-5.5-1.6,2-1.6,4.1-3.1,6.2-4.6,4.3-3,2.7-8.9-.8-10.6,1.2-3.5,2-7.2,2.2-11,.4-7.5-11.2-7.5-11.7,0-.6,10.5-7.1,19.7-16.3,24.2-1.1,0-2.2.1-3.4.2-4.9.5-6.6,5.7-5,9,.7,2.3,2.5,4.1,5.2,4.1.9,1.3,2.4,2.1,4.6,1.9,11.6-1,22.5,1.6,32.2,7.9,4.8,3.1,9.4-2,8.5-6.5Z"/>
    <path class="st11" d="M1413.4,1615.2c-3-6.3-7.2-11.8-12.4-16.1,9.4-3.7,17.2-9.9,19.5-21.1,1.5-7.3-9.7-10.5-11.3-3.1-2.2,10.5-11.9,14.4-21.7,16.2-2-.8-4.1-1.5-6.2-2-4-1-6.7,1.9-7.2,5-3.5,3.4-2.3,10.6,3.6,10,2.6-.3,5.2-.6,7.9-1,7.7,3.8,13.8,10,17.6,18.1,3.2,6.8,13.3.9,10.1-5.9Z"/>
    <path class="st11" d="M1575.3,968c.5-1.3,1.1-2.5,1.8-3.5,1.8-.6,3.2-2.2,3.8-4.1,3.7-2.9,8.5-4.2,13.4-3.7,7.5.7,7.4-11,0-11.7-6.1-.6-11.9.9-16.8,3.7-.5-1.2-1.1-2.5-1.6-3.7-1-4.1-2.5-8-4.6-11.9-2.7-5.1-11-2.8-10.9,2.9.2,8,2.7,15.5,7.1,22-1.4,2.1-2.6,4.4-3.5,6.9-2.5,7.1,8.8,10.2,11.3,3.1Z"/>
    <path class="st11" d="M950.4,791.7c1.3-8.5,6.4-16.2,14.6-19.4,6.9-2.7,3.9-14-3.1-11.3-5,2-9.5,4.9-13.2,8.6-.2-6-1.4-11.8-3.6-17.3-1.2-2.9-3.9-5-7.2-4.1-2.8.8-5.3,4.2-4.1,7.2,1.9,4.6,3,9.3,3.2,14.3.2,4.2,3.9,6.1,7.1,5.6-2.6,3.9-4.3,8.4-5.1,13.3-1.1,7.4,10.1,10.5,11.3,3.1Z"/>
    <path class="st11" d="M732,731.1c.7-5.3,3.5-10,7.4-13.5,3.5-1,6.6-2.8,9.2-5.1,1.3-.4,2.7-.6,4.1-.7,4.5-.3,6.3-4.8,5.4-8.1,1.1-2,1.2-4.6-.6-6.9-.6-.7-1.2-1.5-1.7-2.3-.5-5-2.8-9.9-6.3-13.6-.5-1.9-.8-3.8-1.1-5.7-.8-7.1-11.5-7.5-11.7-.9-1-.1-2-.2-3-.1-6.4.3-12.2,3-16.3,7.3-4.5,1.4-9.1,2.6-13.7,3.7-7.3,1.6-4.2,12.9,3.1,11.3.9-.2,1.9-.4,2.8-.7.7.7,1.3,1.5,2,2.3.4,5.2,2.9,10.2,6.6,14,.2,1.1.4,2.2.5,3.4.3,2.9,2.3,4.7,4.6,5.3-1.4,3.2-2.4,6.7-2.9,10.3-1,7.4,10.7,7.4,11.7,0Z"/>
    <path class="st11" d="M1082.1,1646.5c5.5-7.3,10.3-15,14.4-23.1,7.6,3.8,16.4,4.9,25.1,2.6,8-2.1,4.6-14.5-3.4-12.4-9.2,2.4-19.2-1-24.7-8.9-4.7-6.8-15.8-.3-11.1,6.5,1.1,1.6,2.3,3.1,3.6,4.5,0,0-.1.2-.2.3-4.2,8.5-9.2,16.5-14.9,24.1-5,6.6,6.2,13,11.1,6.5Z"/>
    <path class="st11" d="M625.1,1856c15.2-2.9,29.8-8.1,43.5-15.3.2-.1.4-.2.6-.3,4,4.3,8.4,8.1,13.2,11.6,6.8,4.8,13.2-6.3,6.5-11.1-9-6.4-16-14.9-21-24.7-3.7-7.4-14.8-.9-11.1,6.5,1.3,2.6,2.8,5.1,4.4,7.5-12.5,6.4-25.7,10.9-39.5,13.5-8.1,1.5-4.7,13.9,3.4,12.4Z"/>
    <path class="st11" d="M1587,3874.2c0-.6,0-1.2,0-1.8.2-.4.4-.8.5-1.2,2.6-7.5,9.8-12.5,17.7-12.7,8.3-.2,8.3-13,0-12.8-8.4.2-16.1,3.5-21.8,9.1-2.1-5.8-5-11.2-8.8-16.2-5-6.5-16.1,0-11.1,6.5,6.6,8.6,10.4,18.3,10.7,29.2.3,8.2,13.1,8.3,12.8,0Z"/>
    <path class="st11" d="M635.5,4182.5c-1.2-5.5-4.2-10.4-8.3-14.2,3.3-1.3,6.6-2.7,9.9-4.2,7.5-3.5,1-14.6-6.5-11.1-7,3.2-14.2,5.8-21.6,7.9-.9,0-1.9,0-2.8.1-8.2.8-8.2,13.7,0,12.8,0,0,.2,0,.3,0,1.1.4,2.3.4,3.7,0,6.4.9,11.5,5.3,13,12,1.8,8.1,14.2,4.7,12.4-3.4Z"/>
    <rect class="st25" x="985.1" y="4016.2" width="252.3" height="991.6" rx="28.8" ry="28.8" transform="translate(5624.1 3404.1) rotate(90)"/>
    <path class="st20" d="M1282.7,1493v-107.8c0-1.8,1.8-3.1,3.7-2.9l22.2,3c1.9.2,3.2,1.7,3.2,3.4v102.7c0,1.5-.9,3.1-2.6,3.2l-23.3,1.2c-1.8.1-3.3-1.2-3.3-2.8Z"/>
    <path class="st20" d="M1236.2,1496.3v-115.9c-.1-1.8,1.8-3.2,4-3l21.1,2.2c1.8.2,3.2,1.5,3.2,3v112.4c0,1.6-1.4,3-3.4,3-5.9.2-13.2.7-20.9,1.3-2.1.2-4-1.2-4-3Z"/>
    <path class="st20" d="M1191.3,1500.7v-127.2c-.1-.4,1.2-2.4,2.3-2.4l19.2,1.6c1.8.2,3.3,1.7,3.3,3.5v120.7c0,2.6-2.1,4.9-4.7,5.2-4.9.5-10.4,1.2-16.5,1.8-1.9.2-3.6-1.3-3.6-3.2Z"/>
    <path class="st20" d="M1138.6,1508.8v-132c-.1-.2,0-1.6,0-3.1.1-2.5,2.3-4.5,5.1-4.8l9.1-.9s0,0,.1,0h8.7c3,.1,5.4,2.2,5.4,4.8v131.2c0,2.2-1.7,4.1-4.2,4.4-5.8.8-12.4,1.9-20.3,3.2-2,.3-3.9-1-3.9-2.8Z"/>
    <path class="st20" d="M1091.2,1520.7v-134.7c-.1-.2-.1-1.7,0-3.4,0-2.3,1.9-4.3,4.5-4.8l19.8-3.6c2.4-.4,4.6,1.2,4.6,3.3l-.4,137.2c0,1.5-1.2,2.9-2.9,3.2-5.7,1.3-11.8,3.2-20.1,6s-5.4-.8-5.4-3.3Z"/>
    <line class="st7" x1="596.7" y1="1844.3" x2="602.4" y2="657.9"/>
    <path class="st4" d="M1343.2,1915.8s-57.3-19-112-13.2c-54.7,5.8-110.7,17.5-143.2,42.2-32.5,24.8-111.9,103.4-139.1,115.2-25,10.9-75.9,51.6-183.2,47.7-9.3-.3-19-1-29.1-2l-30.5-2.3"/>
    <g>
      <polyline class="st8" points="1508.2 4447.6 1508.1 4514.6 1474.9 4514.6 1475 4447.5"/>
      <polyline class="st8" points="1474.9 4581.6 1475 4514.6 1508.1 4514.6 1508.1 4581.6"/>
      <polyline class="st8" points="1474.8 4447.6 1474.8 4514.6 1441.6 4514.6 1441.7 4447.5"/>
      <polyline class="st8" points="1441.6 4581.6 1441.7 4514.5 1474.8 4514.6 1474.8 4581.6"/>
      <polyline class="st8" points="1441.5 4447.5 1441.4 4514.6 1408.2 4514.6 1408.3 4447.5"/>
      <polyline class="st8" points="1408.2 4581.6 1408.3 4514.5 1441.4 4514.5 1441.4 4581.6"/>
      <polyline class="st8" points="1408.3 4447.2 1408.2 4514.3 1375.1 4514.3 1375.1 4447.2"/>
      <polyline class="st8" points="1375.1 4581.3 1375.1 4514.2 1408.3 4514.2 1408.2 4581.3"/>
      <polyline class="st8" points="1375 4447.1 1374.9 4514.2 1341.8 4514.2 1341.8 4447.1"/>
      <polyline class="st8" points="1341.8 4581.2 1341.8 4514.1 1375 4514.2 1374.9 4581.2"/>
      <polyline class="st8" points="1340.5 4447.2 1340.4 4514.2 1307.3 4514.2 1307.3 4447.1"/>
      <polyline class="st8" points="1307.3 4581.2 1307.3 4514.2 1340.5 4514.2 1340.5 4581.2"/>
      <polyline class="st8" points="1306.4 4447.1 1306.3 4514.2 1273.2 4514.2 1273.2 4447.1"/>
      <polyline class="st8" points="1273.2 4581.2 1273.2 4514.1 1306.4 4514.1 1306.4 4581.2"/>
      <polyline class="st8" points="1273.3 4446.5 1273.3 4513.6 1240.1 4513.6 1240.1 4446.5"/>
      <polyline class="st8" points="1240.1 4580.6 1240.1 4513.5 1273.3 4513.5 1273.3 4580.6"/>
      <polyline class="st8" points="982.8 4443.5 982.8 4510.6 949.6 4510.5 949.6 4443.5"/>
      <polyline class="st8" points="949.6 4577.5 949.6 4510.5 982.8 4510.5 982.8 4577.6"/>
      <polyline class="st8" points="949.4 4443.5 949.4 4510.5 916.2 4510.5 916.2 4443.4"/>
      <polyline class="st8" points="916.2 4577.5 916.2 4510.4 949.4 4510.5 949.4 4577.5"/>
      <polyline class="st8" points="916.2 4443.2 916.2 4510.2 883 4510.2 883.1 4443.1"/>
      <polyline class="st8" points="883 4577.2 883.1 4510.1 916.2 4510.2 916.2 4577.2"/>
      <polyline class="st8" points="883 4443.1 882.9 4510.1 849.7 4510.1 849.8 4443.1"/>
      <polyline class="st8" points="849.7 4577.1 849.8 4510.1 882.9 4510.1 882.9 4577.2"/>
      <polyline class="st8" points="848.5 4443.1 848.4 4510.2 815.2 4510.1 815.3 4443.1"/>
      <polyline class="st8" points="815.3 4577.2 815.3 4510.1 848.5 4510.1 848.4 4577.2"/>
      <polyline class="st8" points="814.4 4443.1 814.3 4510.1 781.1 4510.1 781.2 4443"/>
      <polyline class="st8" points="781.1 4577.1 781.2 4510.1 814.3 4510.1 814.3 4577.2"/>
      <polyline class="st8" points="781.3 4442.4 781.2 4509.5 748.1 4509.5 748.1 4442.4"/>
      <polyline class="st8" points="748.1 4576.5 748.1 4509.4 781.3 4509.5 781.2 4576.5"/>
      <polyline class="st8" points="747.5 4443.2 747.4 4510.3 714.3 4510.3 714.3 4443.2"/>
      <polyline class="st8" points="714.3 4577.3 714.3 4510.2 747.5 4510.2 747.5 4577.3"/>
    </g>
    <path class="st21" d="M744.4,1130.9l3.6-4.8,16.8,12.7c-1.9-15.8,6.1-33.7,22.7-50.5,23.8-24,65.4-44.1,91.4-34.8l495.2,158.3,11.9-42.1,5.8,1.6-13.6,48.1-501.2-160.3c-21.2-7.6-59.3,7.3-85.1,33.3-18,18.1-25,37.3-19.3,52.7l3.6,9.7-31.6-24Z"/>
    <path class="st21" d="M813.1,1009.2l5.2-3,8.4,14.4c13.5-25.9,50.6-23.1,51-23.1h.3s.3.1.3.1l385.9,123.4,10.8-32.4,5.7,1.9-12.7,38-2.8-.9-388.4-124.2c-3.7-.2-38.1-1.4-46.9,24.8l-2.1,6.3-14.7-25.3Z"/>
    <path class="st21" d="M829.2,955.5l5.2-3,8.4,14.4c13.5-25.9,50.6-23.1,51-23.1h.3s.3.1.3.1l385.9,123.4,10.8-32.4,5.7,1.9-12.7,38-391.2-125.1c-3.7-.2-38.1-1.4-46.9,24.8l-2.1,6.3-14.7-25.3Z"/>
    <path class="st21" d="M1563,1999.5l-9.1-15.2c-.4-.7-1.1-1.1-1.9-1.1h-6.9c0,0,0-7.2,0-7.2h3.2c2.6,0,4.7-2,4.7-4.6s-2-4.7-4.6-4.7h-3.2s0-4.4,0-4.4h3.2c2.6,0,4.7-2,4.7-4.6h0c0-2.6-2-4.7-4.6-4.7l-68.3-.9c-2.6,0-4.7,2-4.7,4.6h0c0,2.6,2,4.7,4.6,4.7h1.4s0,4.4,0,4.4h-1.5c-2.6,0-4.7,2-4.7,4.6s2,4.7,4.6,4.7h1.5s0,7.1,0,7.1h-5.1c-.8,0-1.5.3-1.9.9l-9.8,15c-.5.8-.5,1.7,0,2.4l-.3,26.2h2.2s.3-25.1.3-25.1h8.4c0,.1-.1,9.1-.1,9.1h2.2s.1-9,.1-9l73.4,1v9.3c-.1,0,2.1,0,2.1,0v-9.3c.1,0,8.1.1,8.1.1l-.3,25.6h2.2s.4-26.8.4-26.8c.3-.6.4-1.5,0-2.2ZM1483.9,1961.5l59.3.8v4.4c0,0-59.3-.8-59.3-.8v-4.4ZM1483.7,1975.1l59.3.8v7.1c0,0-59.4-.8-59.4-.8v-7.1Z"/>
    <rect class="st25" x="1686.8" y="4462.4" width="164.5" height="105.2" rx="21.3" ry="21.3" transform="translate(6285.3 2749.3) rotate(90)"/>
    <path class="st20" d="M1331.2,1389l22.5,4.6c1.9.4,3.1,2.1,2.7,3.9l-14.3,63.1c-.4,1.9-2.3,3.2-4.4,3.1l-8.3-.5c-1.8-.1-3.2-1.5-3.2-3.2l1.1-68.1c0-1.8,1.9-3.2,3.8-2.8Z"/>
    <path class="st20" d="M1030.8,1542.5l-.9-143c0-4.3,3.3-8.1,8.1-9.1,6.8-1.4,14.3-3.2,20.9-4.6,4.3-.9,8.5,2,8.5,5.9v141.1c-.1,4.3-3,8.1-7.4,9.9-5.5,2.1-11.6,4.4-17.7,6.6-5.5,2-11.4-1.6-11.5-6.8Z"/>
    <path class="st20" d="M903.5,1590.4v-164.6c.1-3.3,2.7-6.1,6.3-6.8,8.4-1.4,17.9-3.1,28.3-4.8,4.6-.8,8.9,2.5,8.9,6.8v160.7c-.1,3-2.2,5.6-5.3,6.5-9.5,2.8-19,5.9-28.3,8.8-4.9,1.5-9.9-1.8-9.9-6.5Z"/>
    <path class="st20" d="M851.7,1609.7l-.4-173.1c0-3.4,2.9-6.2,6.7-6.5,5.3-.4,10.7-1,15.6-1.6,3.5-.4,6.6,2,6.6,5.2l.4,171.2c0,2.8-3.3,5.3-6.4,6.1-5,1.2-10.3,2.4-15.8,3.4-3.4.7-6.6-1.6-6.6-4.7Z"/>
    <path class="st20" d="M803.5,1618.6l.2-180.3c0-3,2.7-5.4,6.1-5.5,6.2,0,12.1-1.2,18.1-1.3,3,0,5.4,3.1,5.4,5.7v178.7c0,2.1-1.8,4-4.2,4.2-6.9.9-13.8,1.3-21,2-2.5.2-4.6-1.5-4.6-3.7Z"/>
    <path class="st20" d="M753.6,1623.2v-181.5c.1-2.8,2.7-5.1,5.9-5.1,5.4,0,10.8,0,16.3,0,3.2,0,5.8,2.3,5.8,5.1v180.5c-.1,2.6-2.4,4.8-5.4,5.1-5.5.4-11,.8-16.4,1.2s-6.2-2.1-6.2-5.1Z"/>
    <path class="st20" d="M706.2,1624.9v-180.8c.1-3.2,3.4-5.8,7.5-5.8,4.1,0,8.4,0,12.9,0s7.3,2.6,7.3,5.8v180.1c-.1,3-3.1,5.6-7,5.8-4.5.2-8.8.4-13,.6s-7.7-2.5-7.7-5.8Z"/>
    <path class="st13" d="M795,1871.6c6.1,0,12.3-.2,18.4-.3"/>
    <path class="st13" d="M813.3,2130.7c-6.1.8-12.3,1.5-18.4,2.1"/>
    <path class="st20" d="M659,1628.9v-184c.1-3.3,3.5-5.9,7.5-5.9s8.4,0,12.9,0c4,0,7.3,2.6,7.3,5.9v183.3c-.1,3.1-3.1,5.7-7,5.9-4.5.2-8.8.4-13,.6-4.2.2-7.7-2.5-7.7-5.9Z"/>
    <line class="st5" x1="1326.9" y1="1442.4" x2="1327.5" y2="1368"/>
    <line class="st5" x1="1280.8" y1="1434.2" x2="1281.4" y2="1359.8"/>
    <line class="st5" x1="1235.3" y1="1428.7" x2="1235.9" y2="1354.3"/>
    <line class="st5" x1="1189.5" y1="1425.8" x2="1190.1" y2="1351.4"/>
    <line class="st5" x1="1136.1" y1="1431.6" x2="1136.7" y2="1357.2"/>
    <line class="st5" x1="1090.6" y1="1445.6" x2="1091.2" y2="1371.2"/>
    <line class="st5" x1="1030.6" y1="1455.3" x2="1031.2" y2="1380.9"/>
    <line class="st5" x1="902.7" y1="1481.6" x2="903.3" y2="1407.1"/>
    <line class="st5" x1="851.9" y1="1494.2" x2="852.5" y2="1419.8"/>
    <line class="st5" x1="801.1" y1="1497.3" x2="801.7" y2="1422.9"/>
    <line class="st5" x1="752.3" y1="1497.3" x2="753" y2="1422.8"/>
    <line class="st5" x1="704.9" y1="1497.2" x2="705.5" y2="1422.8"/>
    <line class="st5" x1="656.1" y1="1497.2" x2="656.7" y2="1422.8"/>
    <rect class="st21" x="1083.6" y="3735.6" width="35" height="82.8" rx="10.3" ry="10.3" transform="translate(4821.1 2496.6) rotate(87.3)"/>
    <rect class="st21" x="1778" y="2976" width="35" height="82.8" rx="10.3" ry="10.3" transform="translate(4253.6 5524.6) rotate(166.3)"/>
    <rect class="st21" x="1520.3" y="2326.4" width="35" height="82.8" rx="10.3" ry="10.3" transform="translate(3780.2 4083.4) rotate(160.4)"/>
    <rect class="st21" x="1368.6" y="1971.4" width="35" height="82.8" rx="10.3" ry="10.3" transform="translate(3009.8 3839.4) rotate(172.9)"/>
    <rect class="st21" x="875.8" y="2267.1" width="35" height="82.8" rx="10.3" ry="10.3" transform="translate(3338.9 2691) rotate(120)"/>
    <rect class="st21" x="1240.7" y="768.6" width="35" height="82.8" rx="10.3" ry="10.3" transform="translate(2359.9 -202.6) rotate(104.6)"/>
    <rect class="st21" x="866.7" y="847.7" width="21.9" height="51.9" rx="6.3" ry="6.3" transform="translate(1860.8 120.5) rotate(97.7)"/>
    <rect class="st21" x="811" y="848.4" width="21.9" height="51.9" rx="6.3" ry="6.3" transform="translate(1600.2 -39.2) rotate(83.7)"/>
    <rect class="st21" x="754.5" y="857.7" width="21.9" height="51.9" rx="6.3" ry="6.3" transform="translate(1437 -73.3) rotate(76)"/>
    <rect class="st25" x="1373.7" y="1117.1" width="164.5" height="90.7" rx="19.8" ry="19.8" transform="translate(2966.3 71.5) rotate(105.6)"/>
    <rect class="st25" x="585.8" y="1223.7" width="164.5" height="95.3" rx="20.3" ry="20.3" transform="translate(1945 614.1) rotate(90.5)"/>
    <path class="st20" d="M1682.9,3884.5l-.5,77.2c0,5.9-5.2,10.5-11.1,9.9-23.4-2.3-75.8-15.9-72.2-90.4.3-7.3,7.2-12.5,14.3-10.8,23.8,5.8,46,8.3,61.9,7,4.1-.3,7.6,3,7.6,7.1Z"/>
    <path class="st21" d="M1559.1,3901.3c0-9.3.6-19.1,1.9-29.5l4,.5c-1.2,10.2-1.8,19.9-1.9,29,0,35.6,9.2,63.1,27.7,81.8,31.1,31.6,78.3,27.2,78.7,27.1l.4,4c-.5,0-49.5,4.7-82-28.3-19.2-19.5-28.9-48-28.9-84.7Z"/>
    <path class="st21" d="M1603.8,4049.4l-9.4-15.1c-.4-.7-1.1-1.1-1.9-1.1h-6.9s0-7.1,0-7.1h3.2c2.6,0,4.7-2.1,4.6-4.7s-2.1-4.7-4.7-4.6h-3.2s0-4.4,0-4.4h3.2c2.6,0,4.7-2.1,4.6-4.7h0c0-2.6-2.1-4.7-4.7-4.6h-68.3c-2.6.2-4.7,2.2-4.6,4.8h0c0,2.6,2.1,4.7,4.7,4.6h1.4s0,4.4,0,4.4h-1.5c-2.6,0-4.7,2.1-4.6,4.7s2.1,4.7,4.7,4.6h1.5s0,7.1,0,7.1h-5.1c-.8,0-1.5.4-1.9,1.1l-9.6,15.1c-.5.8-.4,1.7,0,2.4v26.2c0,0,2.2,0,2.2,0v-25.1c0,0,8.3,0,8.3,0v9s2.2,0,2.2,0v-9s73.4-.2,73.4-.2v9.3s2.2,0,2.2,0v-9.3s7.9,0,7.9,0v25.6c0,0,2.2,0,2.2,0v-26.8c.3-.7.3-1.5-.2-2.2ZM1524.1,4012.6h59.3c0-.1,0,4.2,0,4.2h-59.3c0,.1,0-4.2,0-4.2ZM1524.1,4026.3h59.3c0-.1,0,7,0,7h-59.3c0,.1,0-7,0-7Z"/>
    <g>
      <path class="st21" d="M807.3,436.4c-7.4,3.4-17.8,6.8-26.4,1-6.9-4.6-19.7,1.8-24.7,4.7v-6.9c.9-.8,1.4-2,1.4-3.4,0-2.6-2.1-4.7-4.7-4.7s-4.7,2.1-4.7,4.7.7,2.7,1.7,3.5v106.5c-.8.9-1.4,2.1-1.4,3.5,0,2.6,2.1,4.7,4.7,4.7s4.7-2.1,4.7-4.7-.6-2.6-1.5-3.4v-69.4c4.4-4.1,15.6-12.6,23.7-4.1,10.2,10.6,26.7-1.9,26.7-1.9l.6-30.1Z"/>
      <path class="st21" d="M734.1,496.5c-7.4,3.4-17.8,6.7-26.4.9-6.8-4.7-19.8,1.8-24.7,4.6v-6.9c.9-.8,1.5-2,1.5-3.4,0-2.6-2.1-4.7-4.7-4.7s-4.7,2.1-4.7,4.7.6,2.7,1.6,3.5v106.5c-1.1.9-1.7,2.1-1.7,3.5,0,2.6,2.1,4.7,4.7,4.7s4.7-2.1,4.7-4.7-.6-2.6-1.5-3.4v-69.4c4.6-4.1,15.7-12.6,23.8-4.1,10.1,10.6,26.7-1.8,26.7-1.8l.6-30.1Z"/>
      <path class="st21" d="M631.2,534.9c-6.8-4.7-19.8,1.6-24.7,4.3v-6.9c1-.8,1.6-2,1.6-3.3,0-2.6-2-4.7-4.6-4.7s-4.7,2-4.7,4.6.6,2.7,1.6,3.6l-1.3,106.4c-1,.8-1.6,2.1-1.6,3.4,0,2.6,2,4.7,4.6,4.7s4.7-2,4.7-4.6-.6-2.6-1.5-3.4l.9-69.3c4.6-4.1,15.8-12.4,23.8-3.8,10,10.7,26.7-1.5,26.7-1.5l1-30.1c-7.4,3.3-17.9,6.5-26.4.6Z"/>
    </g>
    <rect class="st21" x="551.1" y="495.3" width="141.1" height="6" transform="translate(-175.1 497.9) rotate(-38.7)"/>
    <polygon class="st21" points="671.2 491.1 713 458.5 762.1 463 761.6 469 714.8 464.7 674.9 495.9 671.2 491.1"/>
    <polygon class="st21" points="518.7 585.4 519.8 536 569.4 494.9 573.2 499.5 525.8 538.9 524.7 585.5 518.7 585.4"/>
    <g id="Layer_1-2">
      <path class="st22" d="M1964,846.3c2.9,22.2-2.5,38.2-14.3,49.6l41.5-.4c-19.4-9.4-17-30.3-17.2-54.6l-6.2-6.7-3.7,12.2Z"/>
      <g>
        <circle class="st17" cx="1952.9" cy="793" r="20.5"/>
        <circle class="st17" cx="1939.4" cy="813.8" r="20.5"/>
        <circle class="st17" cx="1951.6" cy="837.6" r="20.5"/>
        <circle class="st17" cx="1984.3" cy="833.7" r="20.5"/>
        <circle class="st17" cx="1976.8" cy="811" r="20.5"/>
        <circle class="st17" cx="1984.3" cy="795.9" r="20.5"/>
        <circle class="st17" cx="1999.4" cy="812.5" r="20.5"/>
      </g>
    </g>
    <g id="Layer_1-21" data-name="Layer_1-2">
      <path class="st22" d="M1635.2,857.6c2.6,22.2-3,38.2-14.9,49.4h41.5c-19.3-9.5-16.6-30.4-16.5-54.7l-6.1-6.7-3.9,12.1Z"/>
      <g>
        <circle class="st17" cx="1624.8" cy="804.2" r="20.5"/>
        <circle class="st17" cx="1611" cy="824.7" r="20.5"/>
        <circle class="st17" cx="1623" cy="848.7" r="20.5"/>
        <circle class="st17" cx="1655.7" cy="845.3" r="20.5"/>
        <circle class="st17" cx="1648.5" cy="822.4" r="20.5"/>
        <circle class="st17" cx="1656.1" cy="807.5" r="20.5"/>
        <circle class="st17" cx="1671" cy="824.2" r="20.5"/>
      </g>
    </g>
    <g id="Layer_1-22" data-name="Layer_1-2">
      <path class="st22" d="M1364.7,693.1c2.7,22.2-2.9,38.2-14.7,49.4h41.5c-19.4-9.6-16.7-30.5-16.8-54.8l-6.2-6.7-3.8,12.1Z"/>
      <g>
        <circle class="st17" cx="1354.1" cy="639.7" r="20.5"/>
        <circle class="st17" cx="1340.4" cy="660.3" r="20.5"/>
        <circle class="st17" cx="1352.5" cy="684.3" r="20.5"/>
        <circle class="st17" cx="1385.1" cy="680.7" r="20.5"/>
        <circle class="st17" cx="1377.9" cy="657.9" r="20.5"/>
        <circle class="st17" cx="1385.5" cy="642.9" r="20.5"/>
        <circle class="st17" cx="1400.4" cy="659.6" r="20.5"/>
      </g>
    </g>
    <g id="Layer_1-23" data-name="Layer_1-2">
      <path class="st22" d="M1395.6,1006.4c3,22.2-2.3,38.2-13.9,49.7l41.5-.7c-19.5-9.2-17.2-30.2-17.6-54.5l-6.3-6.6-3.6,12.2Z"/>
      <g>
        <circle class="st17" cx="1384.2" cy="953.2" r="20.5"/>
        <circle class="st17" cx="1370.8" cy="974" r="20.5"/>
        <circle class="st17" cx="1383.2" cy="997.7" r="20.5"/>
        <circle class="st17" cx="1415.8" cy="993.6" r="20.5"/>
        <circle class="st17" cx="1408.2" cy="970.9" r="20.5"/>
        <circle class="st17" cx="1415.6" cy="955.8" r="20.5"/>
        <circle class="st17" cx="1430.8" cy="972.3" r="20.5"/>
      </g>
    </g>
    <g id="Layer_1-24" data-name="Layer_1-2">
      <path class="st22" d="M1872.8,1109.9c2.7,22.2-2.8,38.2-14.6,49.5h41.5c-19.4-9.7-16.8-30.6-16.9-54.9l-6.2-6.7-3.8,12.1Z"/>
      <g>
        <circle class="st17" cx="1862" cy="1056.6" r="20.5"/>
        <circle class="st17" cx="1848.4" cy="1077.2" r="20.5"/>
        <circle class="st17" cx="1860.5" cy="1101.1" r="20.5"/>
        <circle class="st17" cx="1893.1" cy="1097.4" r="20.5"/>
        <circle class="st17" cx="1885.8" cy="1074.7" r="20.5"/>
        <circle class="st17" cx="1893.4" cy="1059.7" r="20.5"/>
        <circle class="st17" cx="1908.4" cy="1076.3" r="20.5"/>
      </g>
    </g>
    <g id="Layer_1-25" data-name="Layer_1-2">
      <path class="st22" d="M1639.1,1439.2c2.8,22.2-2.6,38.2-14.4,49.5l41.5-.3c-19.4-9.4-16.9-30.4-17.1-54.7l-6.2-6.7-3.7,12.1Z"/>
      <g>
        <circle class="st17" cx="1628.1" cy="1385.9" r="20.5"/>
        <circle class="st17" cx="1614.6" cy="1406.6" r="20.5"/>
        <circle class="st17" cx="1626.7" cy="1430.4" r="20.5"/>
        <circle class="st17" cx="1659.4" cy="1426.6" r="20.5"/>
        <circle class="st17" cx="1652" cy="1403.9" r="20.5"/>
        <circle class="st17" cx="1659.5" cy="1388.8" r="20.5"/>
        <circle class="st17" cx="1674.6" cy="1405.4" r="20.5"/>
      </g>
    </g>
    <g id="Layer_1-26" data-name="Layer_1-2">
      <path class="st22" d="M1487.8,1864.7c3,22.2-2.4,38.2-14.1,49.6l41.5-.5c-19.5-9.3-17.1-30.3-17.4-54.6l-6.2-6.7-3.7,12.2Z"/>
      <g>
        <circle class="st17" cx="1476.6" cy="1811.5" r="20.5"/>
        <circle class="st17" cx="1463.2" cy="1832.3" r="20.5"/>
        <circle class="st17" cx="1475.5" cy="1856" r="20.5"/>
        <circle class="st17" cx="1508.1" cy="1852.1" r="20.5"/>
        <circle class="st17" cx="1500.6" cy="1829.4" r="20.5"/>
        <circle class="st17" cx="1508" cy="1814.3" r="20.5"/>
        <circle class="st17" cx="1523.1" cy="1830.8" r="20.5"/>
      </g>
    </g>
    <g id="Layer_1-27" data-name="Layer_1-2">
      <path class="st22" d="M1078.6,928.8c3,22.2-2.4,38.2-14.1,49.6l41.5-.6c-19.5-9.3-17.1-30.3-17.4-54.6l-6.2-6.6-3.7,12.2Z"/>
      <g>
        <circle class="st17" cx="1067.3" cy="875.6" r="20.5"/>
        <circle class="st17" cx="1053.9" cy="896.3" r="20.5"/>
        <circle class="st17" cx="1066.2" cy="920.1" r="20.5"/>
        <circle class="st17" cx="1098.9" cy="916.1" r="20.5"/>
        <circle class="st17" cx="1091.3" cy="893.4" r="20.5"/>
        <circle class="st17" cx="1098.7" cy="878.3" r="20.5"/>
        <circle class="st17" cx="1113.9" cy="894.9" r="20.5"/>
      </g>
    </g>
    <g id="Layer_1-28" data-name="Layer_1-2">
      <path class="st22" d="M529.8,799.4c2.5,22.2-3.2,38.2-15.1,49.3l41.5.3c-19.3-9.7-16.5-30.6-16.3-54.9l-6.1-6.8-3.9,12.1Z"/>
      <g>
        <circle class="st17" cx="519.6" cy="745.9" r="20.5"/>
        <circle class="st17" cx="505.8" cy="766.4" r="20.5"/>
        <circle class="st17" cx="517.6" cy="790.4" r="20.5"/>
        <circle class="st17" cx="550.3" cy="787.1" r="20.5"/>
        <circle class="st17" cx="543.3" cy="764.3" r="20.5"/>
        <circle class="st17" cx="551" cy="749.3" r="20.5"/>
        <circle class="st17" cx="565.8" cy="766.2" r="20.5"/>
      </g>
    </g>
    <g id="Layer_1-29" data-name="Layer_1-2">
      <path class="st22" d="M527.3,1001c2.3,22.3-3.6,38.1-15.6,49.2l41.5.7c-19.2-9.9-16.2-30.8-15.7-55.1l-6-6.8-4.1,12Z"/>
      <g>
        <circle class="st17" cx="517.7" cy="947.4" r="20.5"/>
        <circle class="st17" cx="503.6" cy="967.8" r="20.5"/>
        <circle class="st17" cx="515.2" cy="991.9" r="20.5"/>
        <circle class="st17" cx="547.9" cy="988.9" r="20.5"/>
        <circle class="st17" cx="541.1" cy="966" r="20.5"/>
        <circle class="st17" cx="549" cy="951.2" r="20.5"/>
        <circle class="st17" cx="563.6" cy="968.1" r="20.5"/>
      </g>
    </g>
    <g id="Layer_1-210" data-name="Layer_1-2">
      <path class="st22" d="M526,1399.4c2.1,22.3-3.8,38.1-15.9,49.1l41.5,1c-19.1-10-16-30.9-15.4-55.2l-6-6.9-4.1,12Z"/>
      <g>
        <circle class="st17" cx="516.7" cy="1345.8" r="20.5"/>
        <circle class="st17" cx="502.5" cy="1366.1" r="20.5"/>
        <circle class="st17" cx="513.9" cy="1390.3" r="20.5"/>
        <circle class="st17" cx="546.7" cy="1387.5" r="20.5"/>
        <circle class="st17" cx="540" cy="1364.5" r="20.5"/>
        <circle class="st17" cx="547.9" cy="1349.7" r="20.5"/>
        <circle class="st17" cx="562.5" cy="1366.8" r="20.5"/>
      </g>
    </g>
    <g id="Layer_1-211" data-name="Layer_1-2">
      <path class="st22" d="M529.7,1993.6c2.5,22.2-3.1,38.2-15.1,49.3l41.5.2c-19.3-9.7-16.5-30.6-16.4-54.9l-6.1-6.8-3.9,12.1Z"/>
      <g>
        <circle class="st17" cx="519.5" cy="1940.1" r="20.5"/>
        <circle class="st17" cx="505.7" cy="1960.6" r="20.5"/>
        <circle class="st17" cx="517.5" cy="1984.6" r="20.5"/>
        <circle class="st17" cx="550.2" cy="1981.3" r="20.5"/>
        <circle class="st17" cx="543.1" cy="1958.4" r="20.5"/>
        <circle class="st17" cx="550.8" cy="1943.5" r="20.5"/>
        <circle class="st17" cx="565.6" cy="1960.3" r="20.5"/>
      </g>
    </g>
    <g>
      <rect class="st22" x="886.3" y="814.6" width="23.3" height="33.2" transform="translate(4.8 -5.1) rotate(.3)"/>
      <polygon class="st17" points="894.6 701.8 939.3 747.9 855.4 748.6 894.6 701.8"/>
      <polyline class="st17" points="856.9 783.7 896.1 736.9 940.9 783"/>
      <polyline class="st17" points="857.1 820.6 896.2 773.8 941 819.9"/>
    </g>
    <g>
      <rect class="st22" x="1326.7" y="1786.3" width="23.3" height="33.2" transform="translate(39.8 -28.9) rotate(1.3)"/>
      <polygon class="st17" points="1337 1673.5 1381.1 1720.3 1297.2 1719.6 1337 1673.5"/>
      <polyline class="st17" points="1298.1 1754.7 1338 1708.6 1382 1755.4"/>
      <polyline class="st17" points="1297.6 1791.7 1337.5 1745.5 1381.5 1792.3"/>
    </g>
    <g>
      <rect class="st22" x="777.8" y="768.2" width="25.6" height="36.4" transform="translate(11.3 -11.2) rotate(.8)"/>
      <polygon class="st17" points="788.1 644.7 836.7 695.6 744.8 695.6 788.1 644.7"/>
      <polyline class="st17" points="746.1 734 789.4 683.1 838 734"/>
      <polyline class="st17" points="745.9 774.5 789.2 723.6 837.8 774.5"/>
    </g>
    <g id="Layer_1-212" data-name="Layer_1-2">
      <path class="st22" d="M548.1,3775.5c2.5,22.2-3.1,38.2-15.1,49.3l41.5.2c-19.3-9.7-16.5-30.6-16.4-54.9l-6.1-6.8-3.9,12.1Z"/>
      <g>
        <circle class="st17" cx="537.8" cy="3722.1" r="20.5"/>
        <circle class="st17" cx="524" cy="3742.6" r="20.5"/>
        <circle class="st17" cx="535.8" cy="3766.6" r="20.5"/>
        <circle class="st17" cx="568.6" cy="3763.2" r="20.5"/>
        <circle class="st17" cx="561.5" cy="3740.4" r="20.5"/>
        <circle class="st17" cx="569.1" cy="3725.4" r="20.5"/>
        <circle class="st17" cx="584" cy="3742.2" r="20.5"/>
      </g>
    </g>
    <g id="Layer_1-213" data-name="Layer_1-2">
      <path class="st22" d="M548.4,4034c2.4,22.2-3.4,38.2-15.3,49.3l41.5.5c-19.2-9.8-16.3-30.7-16.1-55l-6.1-6.8-4,12.1Z"/>
      <g>
        <circle class="st17" cx="538.5" cy="3980.5" r="20.5"/>
        <circle class="st17" cx="524.6" cy="4000.9" r="20.5"/>
        <circle class="st17" cx="536.3" cy="4025" r="20.5"/>
        <circle class="st17" cx="569" cy="4021.8" r="20.5"/>
        <circle class="st17" cx="562" cy="3998.9" r="20.5"/>
        <circle class="st17" cx="569.8" cy="3984" r="20.5"/>
        <circle class="st17" cx="584.6" cy="4000.9" r="20.5"/>
      </g>
    </g>
    <g id="Layer_1-214" data-name="Layer_1-2">
      <path class="st22" d="M546.1,4333.9c2.7,22.2-2.9,38.2-14.7,49.4h41.5c-19.4-9.6-16.7-30.5-16.7-54.8l-6.2-6.7-3.8,12.1Z"/>
      <g>
        <circle class="st17" cx="535.5" cy="4280.5" r="20.5"/>
        <circle class="st17" cx="521.9" cy="4301.1" r="20.5"/>
        <circle class="st17" cx="533.9" cy="4325" r="20.5"/>
        <circle class="st17" cx="566.5" cy="4321.5" r="20.5"/>
        <circle class="st17" cx="559.3" cy="4298.6" r="20.5"/>
        <circle class="st17" cx="566.9" cy="4283.7" r="20.5"/>
        <circle class="st17" cx="581.8" cy="4300.4" r="20.5"/>
      </g>
    </g>
    <g>
      <path class="st17" d="M1224.5,2025.9s-26.9-12.6-33.3-51.9c0,0,10.5,17.5,20.5,20.8,0,0-18.3-20.2-10.1-33.6,0,0,11.5,27.7,21.6,28.7,0,0-17.6-22.6-13-37.9,4.7-15.3,0,0,0,0,0,0,12.6,30.1,20.3,32.2,0,0-19.1-32.1-10-39,0,0,8.4,33.6,17.2,35.6,0,0-8-25.8-4.7-35.8,0,0,7.2,33.5,10.7,34.2,0,0-4.5-24.5-.6-33.3,0,0,8.1,24.6,5.4,32.9l-4,48.6-19.9-1.6"/>
      <path class="st17" d="M1263.3,2026s27.7-10.8,36.8-49.5c0,0-11.7,16.7-21.9,19.4,0,0,19.6-18.9,12.4-32.8,0,0-13.4,26.9-23.5,27.1,0,0,19.1-21.3,15.5-36.9-3.6-15.6,0,0,0,0,0,0-14.7,29.2-22.4,30.7,0,0,21.3-30.8,12.6-38.2,0,0-10.6,32.9-19.6,34.4,0,0,9.8-25.2,7.2-35.4,0,0-9.4,32.9-13,33.4,0,0,6.2-24.1,2.9-33.2,0,0-9.7,24-7.6,32.4l.7,48.7,20-.2"/>
      <path class="st20" d="M1242.2,2031.5s-33.3,1.8-47.5-4.9c-14.2-6.6,17.1-17.1,17.1-17.1,0,0,25.7,9,36.1,6.9,10.5-2,21.5-13.7,31.4-7s25.9,16.8,19.9,23.1l-57-1.1Z"/>
    </g>
    <g>
      <path class="st20" d="M1058.8,2104.1s-27-12.5-33.7-51.7c0,0,10.7,17.4,20.7,20.7,0,0-18.4-20.1-10.3-33.6,0,0,11.7,27.7,21.8,28.5,0,0-17.8-22.5-13.2-37.8,4.6-15.3,0,0,0,0,0,0,12.8,30.1,20.5,32.1,0,0-19.3-32-10.2-38.9,0,0,8.6,33.5,17.4,35.5,0,0-8.2-25.8-4.9-35.8,0,0,7.4,33.5,10.9,34.2,0,0-4.7-24.5-.8-33.3,0,0,8.2,24.6,5.6,32.8l-3.7,48.6-19.9-1.4"/>
      <path class="st20" d="M1097.5,2104s27.6-10.9,36.5-49.7c0,0-11.6,16.8-21.8,19.5,0,0,19.5-19,12.2-32.9,0,0-13.2,27-23.3,27.3,0,0,19-21.4,15.3-37-3.7-15.5,0,0,0,0,0,0-14.5,29.3-22.3,30.9,0,0,21.1-30.9,12.4-38.3,0,0-10.4,33-19.4,34.5,0,0,9.6-25.3,6.9-35.4,0,0-9.2,33-12.8,33.5,0,0,6-24.2,2.7-33.2,0,0-9.6,24.1-7.4,32.5l1,48.7,20-.3"/>
      <path class="st17" d="M1076.5,2109.6s-33.3,2-47.5-4.6,17-17.2,17-17.2c0,0,25.7,8.8,36.2,6.7,10.5-2.1,21.5-13.9,31.3-7.2,9.9,6.7,26,16.7,20.1,23l-57-.7Z"/>
    </g>
    <g>
      <path class="st20" d="M1432.3,3698.6s-27-12.4-33.8-51.6c0,0,10.7,17.4,20.7,20.7,0,0-18.5-20-10.4-33.5,0,0,11.7,27.6,21.8,28.5,0,0-17.8-22.4-13.3-37.8,4.6-15.3,0,0,0,0,0,0,12.9,30,20.5,32,0,0-19.3-32-10.3-38.9,0,0,8.6,33.5,17.5,35.5,0,0-8.2-25.8-5-35.8,0,0,7.4,33.5,11,34.1,0,0-4.7-24.5-.9-33.3,0,0,8.3,24.6,5.7,32.8l-3.7,48.6-19.9-1.4"/>
      <path class="st20" d="M1471.1,3698.4s27.6-11,36.4-49.8c0,0-11.6,16.8-21.8,19.5,0,0,19.5-19,12.2-32.9,0,0-13.2,27-23.3,27.3,0,0,19-21.5,15.2-37-3.7-15.5,0,0,0,0,0,0-14.4,29.3-22.2,30.9,0,0,21-30.9,12.3-38.3,0,0-10.4,33-19.3,34.5,0,0,9.6-25.3,6.9-35.5,0,0-9.2,33-12.8,33.5,0,0,6-24.2,2.7-33.2,0,0-9.5,24.1-7.4,32.5l1.1,48.7,20-.3"/>
      <path class="st17" d="M1450.1,3704.1s-33.3,2-47.5-4.5c-14.3-6.5,16.9-17.3,16.9-17.3,0,0,25.7,8.8,36.2,6.6,10.4-2.1,21.4-13.9,31.3-7.2,9.9,6.7,26,16.6,20.1,23l-57-.6Z"/>
    </g>
    <g>
      <path class="st20" d="M1119.7,3691.2s-27-12.5-33.7-51.7c0,0,10.7,17.4,20.7,20.7,0,0-18.4-20.1-10.3-33.6,0,0,11.7,27.7,21.8,28.5,0,0-17.8-22.5-13.2-37.8,4.6-15.3,0,0,0,0,0,0,12.8,30.1,20.5,32.1,0,0-19.3-32-10.2-38.9,0,0,8.6,33.5,17.4,35.5,0,0-8.2-25.8-4.9-35.8,0,0,7.4,33.5,10.9,34.2,0,0-4.7-24.5-.8-33.3,0,0,8.2,24.6,5.6,32.8l-3.7,48.6-19.9-1.4"/>
      <path class="st20" d="M1158.4,3691.1s27.6-10.9,36.5-49.7c0,0-11.6,16.8-21.8,19.5,0,0,19.5-19,12.2-32.9,0,0-13.2,27-23.3,27.3,0,0,19-21.4,15.3-37-3.7-15.5,0,0,0,0,0,0-14.5,29.3-22.3,30.9,0,0,21.1-30.9,12.4-38.3,0,0-10.4,33-19.4,34.5,0,0,9.6-25.3,6.9-35.4,0,0-9.2,33-12.8,33.5,0,0,6-24.2,2.7-33.2,0,0-9.6,24.1-7.4,32.5l1,48.7,20-.3"/>
      <path class="st17" d="M1137.4,3696.7s-33.3,2-47.5-4.6c-14.2-6.5,17-17.2,17-17.2,0,0,25.7,8.8,36.2,6.7,10.5-2.1,21.5-13.9,31.3-7.2,9.9,6.7,26,16.7,20.1,23l-57-.7Z"/>
    </g>
    <g>
      <path class="st20" d="M818.5,3730.8s-27.2-12-34.5-51.1c0,0,10.9,17.3,21,20.3,0,0-18.7-19.8-10.9-33.4,0,0,12.1,27.5,22.2,28.2,0,0-18.1-22.2-13.8-37.6,4.3-15.4,0,0,0,0,0,0,13.3,29.8,21,31.7,0,0-19.8-31.7-10.8-38.7,0,0,9.1,33.4,18,35.2,0,0-8.6-25.6-5.5-35.7,0,0,7.9,33.3,11.5,34,0,0-5.1-24.4-1.4-33.3,0,0,8.6,24.4,6.1,32.7l-2.9,48.7-20-1.1"/>
      <path class="st20" d="M857.2,3730.1s27.4-11.4,35.7-50.3c0,0-11.3,17-21.5,19.9,0,0,19.2-19.3,11.7-33.1,0,0-12.8,27.2-22.9,27.6,0,0,18.7-21.8,14.7-37.2-4-15.5,0,0,0,0,0,0-14,29.5-21.7,31.2,0,0,20.6-31.2,11.7-38.5,0,0-9.9,33.1-18.8,34.8,0,0,9.2-25.4,6.4-35.6,0,0-8.7,33.2-12.3,33.7,0,0,5.6-24.3,2.2-33.2,0,0-9.2,24.2-6.9,32.6l1.8,48.7,20-.6"/>
      <path class="st17" d="M836.3,3736s-33.2,2.5-47.6-3.8c-14.4-6.3,16.7-17.5,16.7-17.5,0,0,25.9,8.4,36.3,6.1,10.4-2.3,21.2-14.2,31.2-7.7,10,6.5,26.3,16.2,20.4,22.7l-57,.2Z"/>
    </g>
    <g>
      <path class="st20" d="M752.2,2027s-27.2-11.9-34.7-50.9c0,0,11,17.2,21.1,20.2,0,0-18.8-19.7-11-33.3,0,0,12.3,27.4,22.4,28.1,0,0-18.3-22.1-14-37.5s0,0,0,0c0,0,13.4,29.8,21.2,31.6,0,0-20-31.6-11-38.7,0,0,9.3,33.3,18.2,35.2,0,0-8.7-25.6-5.7-35.7,0,0,8.1,33.3,11.6,33.9,0,0-5.2-24.4-1.5-33.3,0,0,8.7,24.4,6.3,32.7l-2.7,48.7-20-1"/>
      <path class="st20" d="M790.9,2026.1s27.4-11.5,35.5-50.5c0,0-11.3,17.1-21.4,20,0,0,19.1-19.4,11.5-33.2,0,0-12.7,27.2-22.8,27.7,0,0,18.6-21.8,14.5-37.3-4-15.5,0,0,0,0,0,0-13.9,29.6-21.6,31.3,0,0,20.4-31.3,11.6-38.5,0,0-9.7,33.2-18.7,34.9,0,0,9.1-25.5,6.2-35.6,0,0-8.5,33.2-12.1,33.8,0,0,5.5-24.3,2-33.2,0,0-9.1,24.3-6.8,32.6l2,48.7,20-.7"/>
      <path class="st17" d="M770.1,2032.2s-33.2,2.7-47.6-3.6c-14.4-6.2,16.6-17.6,16.6-17.6,0,0,25.9,8.2,36.3,5.9s21.2-14.3,31.2-7.8c10,6.5,26.3,16.1,20.5,22.6l-57,.5Z"/>
    </g>
    <g>
      <path class="st17" d="M883.5,2213.6s-27.3-11.8-34.9-50.8c0,0,11.1,17.2,21.2,20.2,0,0-18.9-19.6-11.2-33.3,0,0,12.4,27.4,22.5,28,0,0-18.3-22-14.1-37.5,4.2-15.4,0,0,0,0,0,0,13.6,29.7,21.3,31.5,0,0-20.1-31.5-11.1-38.6,0,0,9.4,33.3,18.3,35.1,0,0-8.8-25.6-5.8-35.6,0,0,8.2,33.3,11.8,33.9,0,0-5.3-24.4-1.7-33.3,0,0,8.8,24.4,6.4,32.7l-2.5,48.7-20-.9"/>
      <path class="st17" d="M922.2,2212.5s27.3-11.6,35.3-50.6c0,0-11.2,17.1-21.3,20,0,0,19-19.5,11.4-33.2,0,0-12.6,27.3-22.7,27.8,0,0,18.5-21.9,14.4-37.4-4.1-15.5,0,0,0,0,0,0-13.8,29.6-21.5,31.4,0,0,20.3-31.4,11.4-38.6,0,0-9.6,33.2-18.5,35,0,0,9-25.5,6.1-35.6,0,0-8.4,33.2-12,33.8,0,0,5.4-24.3,1.9-33.2,0,0-9,24.3-6.6,32.6l2.2,48.7,20-.8"/>
      <path class="st20" d="M901.3,2218.7s-33.2,2.8-47.6-3.4c-14.4-6.2,16.5-17.6,16.5-17.6,0,0,25.9,8.2,36.3,5.8s21.1-14.4,31.1-7.9c10,6.4,26.4,16,20.6,22.5l-57,.7Z"/>
    </g>
    <g>
      <path class="st17" d="M1651,3275.2s-27.1-12.1-34.3-51.2c0,0,10.9,17.3,20.9,20.4,0,0-18.7-19.8-10.8-33.4,0,0,12.1,27.5,22.1,28.2,0,0-18.1-22.2-13.7-37.6,4.4-15.4,0,0,0,0,0,0,13.2,29.9,20.9,31.8,0,0-19.7-31.8-10.7-38.8,0,0,9,33.4,17.9,35.3,0,0-8.5-25.7-5.4-35.7,0,0,7.8,33.4,11.4,34,0,0-5-24.4-1.3-33.3,0,0,8.5,24.5,6,32.8l-3.1,48.6-20-1.2"/>
      <path class="st17" d="M1689.7,3274.6s27.5-11.3,35.8-50.2c0,0-11.4,17-21.5,19.8,0,0,19.3-19.2,11.8-33.1,0,0-12.9,27.1-23,27.6,0,0,18.7-21.7,14.8-37.2-3.9-15.5,0,0,0,0,0,0-14.1,29.5-21.8,31.2,0,0,20.7-31.2,11.9-38.4,0,0-10,33.1-18.9,34.8,0,0,9.3-25.4,6.5-35.5,0,0-8.8,33.1-12.4,33.7,0,0,5.7-24.3,2.3-33.2,0,0-9.3,24.2-7,32.6l1.7,48.7,20-.6"/>
      <path class="st20" d="M1668.8,3280.5s-33.2,2.4-47.6-3.9c-14.3-6.4,16.7-17.4,16.7-17.4,0,0,25.8,8.5,36.3,6.2s21.3-14.1,31.2-7.6,26.2,16.3,20.4,22.7h-57Z"/>
    </g>
    <g>
      <path class="st17" d="M1324.9,3264.6s-27.4-11.5-35.5-50.4c0,0,11.3,17,21.4,19.9,0,0-19.1-19.4-11.5-33.2,0,0,12.7,27.2,22.8,27.7,0,0-18.6-21.8-14.5-37.3,4-15.5,0,0,0,0,0,0,13.9,29.6,21.6,31.3,0,0-20.4-31.3-11.6-38.5,0,0,9.8,33.2,18.7,34.9,0,0-9.1-25.5-6.2-35.6,0,0,8.6,33.2,12.1,33.8,0,0-5.5-24.3-2-33.2,0,0,9.1,24.3,6.8,32.6l-2,48.7-20-.7"/>
      <path class="st17" d="M1363.6,3263.1s27.2-11.9,34.7-51c0,0-11,17.2-21.1,20.3,0,0,18.8-19.7,11-33.3,0,0-12.3,27.4-22.3,28.1,0,0,18.2-22.1,14-37.5-4.3-15.4,0,0,0,0,0,0-13.4,29.8-21.1,31.6,0,0,19.9-31.6,11-38.7,0,0-9.2,33.3-18.1,35.2,0,0,8.7-25.6,5.7-35.7,0,0-8.1,33.3-11.6,33.9,0,0,5.2-24.4,1.5-33.3,0,0-8.7,24.4-6.3,32.7l2.8,48.7,20-1"/>
      <path class="st20" d="M1342.8,3269.5s-33.2,3.2-47.6-2.9c-14.5-6,16.3-17.8,16.3-17.8,0,0,26,7.9,36.4,5.4s21-14.6,31.1-8.3c10.1,6.3,26.6,15.7,20.9,22.3l-57,1.3Z"/>
    </g>
    <g>
      <path class="st17" d="M986.8,3321.7s-27.3-11.7-35.1-50.7c0,0,11.1,17.1,21.2,20.1,0,0-19-19.5-11.3-33.2,0,0,12.5,27.3,22.6,27.9,0,0-18.4-22-14.3-37.4,4.2-15.4,0,0,0,0,0,0,13.7,29.7,21.4,31.5,0,0-20.2-31.5-11.3-38.6,0,0,9.5,33.2,18.4,35,0,0-8.9-25.5-5.9-35.6,0,0,8.3,33.2,11.9,33.8,0,0-5.3-24.3-1.8-33.3,0,0,8.9,24.3,6.5,32.7l-2.4,48.7-20-.9"/>
      <path class="st17" d="M1025.6,3320.5s27.3-11.7,35.1-50.7c0,0-11.1,17.1-21.2,20.1,0,0,19-19.5,11.3-33.3,0,0-12.5,27.3-22.6,27.9,0,0,18.4-22,14.2-37.4-4.2-15.4,0,0,0,0,0,0-13.6,29.7-21.4,31.5,0,0,20.2-31.5,11.3-38.6,0,0-9.5,33.3-18.4,35,0,0,8.9-25.5,5.9-35.6,0,0-8.3,33.3-11.9,33.8,0,0,5.3-24.3,1.8-33.3,0,0-8.9,24.3-6.5,32.7l2.4,48.7,20-.9"/>
      <path class="st20" d="M1004.7,3326.7s-33.2,2.9-47.6-3.2c-14.4-6.1,16.5-17.7,16.5-17.7,0,0,26,8.1,36.3,5.7,10.4-2.4,21.1-14.5,31.1-8.1,10.1,6.4,26.4,15.9,20.7,22.4l-57,.9Z"/>
    </g>
    <g>
      <path class="st17" d="M659.4,3350s-27.2-12-34.5-51.1c0,0,10.9,17.3,21,20.3,0,0-18.8-19.7-10.9-33.4,0,0,12.2,27.4,22.3,28.2,0,0-18.2-22.2-13.8-37.6,4.3-15.4,0,0,0,0,0,0,13.3,29.8,21,31.7,0,0-19.8-31.7-10.9-38.7,0,0,9.1,33.4,18,35.2,0,0-8.6-25.6-5.5-35.7,0,0,7.9,33.3,11.5,34,0,0-5.1-24.4-1.4-33.3,0,0,8.6,24.4,6.2,32.7l-2.9,48.7-20-1.1"/>
      <path class="st17" d="M698.2,3349.2s27.4-11.4,35.7-50.3c0,0-11.3,17-21.5,19.9,0,0,19.2-19.3,11.6-33.1,0,0-12.8,27.2-22.9,27.7,0,0,18.6-21.8,14.7-37.2-4-15.5,0,0,0,0,0,0-14,29.5-21.7,31.2,0,0,20.5-31.2,11.7-38.5,0,0-9.9,33.1-18.8,34.8,0,0,9.2-25.4,6.3-35.6,0,0-8.7,33.2-12.2,33.7,0,0,5.6-24.3,2.1-33.2,0,0-9.2,24.2-6.9,32.6l1.8,48.7,20-.6"/>
      <path class="st20" d="M677.3,3355.2s-33.2,2.5-47.6-3.8,16.7-17.5,16.7-17.5c0,0,25.9,8.4,36.3,6.1,10.4-2.3,21.2-14.2,31.2-7.7,10,6.5,26.3,16.2,20.4,22.7l-57,.2Z"/>
    </g>
    <g>
      <path class="st17" d="M929.4,1968.5s-27-12.4-33.7-51.6c0,0,10.7,17.4,20.7,20.7,0,0-18.4-20-10.4-33.5,0,0,11.7,27.6,21.8,28.5,0,0-17.8-22.5-13.2-37.8,4.6-15.3,0,0,0,0,0,0,12.9,30,20.5,32,0,0-19.3-32-10.2-38.9,0,0,8.6,33.5,17.5,35.5,0,0-8.2-25.8-5-35.8,0,0,7.4,33.5,11,34.1,0,0-4.7-24.5-.9-33.3,0,0,8.3,24.6,5.7,32.8l-3.7,48.6-19.9-1.4"/>
      <path class="st17" d="M968.2,1968.4s27.6-11,36.4-49.7c0,0-11.6,16.8-21.8,19.5,0,0,19.5-19,12.2-32.9,0,0-13.2,27-23.3,27.3,0,0,19-21.5,15.2-37-3.7-15.5,0,0,0,0,0,0-14.4,29.3-22.2,30.9,0,0,21-30.9,12.3-38.3,0,0-10.4,33-19.3,34.5,0,0,9.6-25.3,6.9-35.5,0,0-9.2,33-12.8,33.5,0,0,6-24.2,2.7-33.2,0,0-9.6,24.1-7.4,32.5l1.1,48.7,20-.3"/>
      <path class="st20" d="M947.2,1974s-33.3,2-47.5-4.5c-14.3-6.5,16.9-17.2,16.9-17.2,0,0,25.7,8.8,36.2,6.6,10.4-2.1,21.4-13.9,31.3-7.2,9.9,6.7,26,16.6,20.1,23l-57-.7Z"/>
    </g>
    <rect class="st25" x="1585.8" y="4142.6" width="328.5" height="62" rx="13" ry="13" transform="translate(5924.9 2426.6) rotate(90)"/>
    <rect class="st21" x="1752.6" y="4331.2" width="28.6" height="82.8" rx="10.3" ry="10.3" transform="translate(6140.7 2608.9) rotate(90)"/>
    <rect class="st21" x="1752.9" y="3930.7" width="28.6" height="82.8" rx="10.3" ry="10.3" transform="translate(5740.6 2207.9) rotate(90)"/>
    <rect class="st21" x="1726.1" y="4028.5" width="18.9" height="53.3" rx="4.3" ry="4.3"/>
    <rect class="st21" x="1726" y="4089.6" width="18.9" height="53.3" rx="4.3" ry="4.3"/>
    <rect class="st21" x="1726" y="4151.5" width="18.9" height="53.3" rx="4.3" ry="4.3"/>
    <rect class="st21" x="1725.9" y="4211.1" width="18.9" height="53.3" rx="4.3" ry="4.3"/>
    <rect class="st21" x="1725.9" y="4269.1" width="18.9" height="53.3" rx="4.3" ry="4.3"/>
    <path class="st21" d="M1191.9,2494.2l-9.1-15.3c-.4-.7-1.1-1.1-1.9-1.1h-6.9c0-.1.1-7.2.1-7.2h3.2c2.6,0,4.7-2,4.7-4.5s-2-4.7-4.6-4.7h-3.2c0,0,0-4.4,0-4.4h3.2c2.6,0,4.7-2,4.7-4.5s-2-4.7-4.6-4.7l-68.3-1.2c-2.6,0-4.7,2-4.7,4.6s2,4.7,4.6,4.7h1.4s0,4.4,0,4.4h-1.5c-2.6,0-4.7,2-4.7,4.6s2,4.7,4.6,4.7h1.5s-.1,7.1-.1,7.1h-5.1c-.8,0-1.5.3-1.9.9l-9.9,14.9c-.5.8-.5,1.7,0,2.4l-.4,26.2h2.2s.4-25.1.4-25.1h8.4c0,.1-.2,9.2-.2,9.2h2.2s.2-9,.2-9l73.4,1.3-.2,9.3h2.2s.2-9.3.2-9.3h7.9c0,.1-.4,25.7-.4,25.7h2.2s.5-26.8.5-26.8c.3-.6.4-1.5,0-2.2ZM1112.9,2455.9l59.3,1v4.4c0,0-59.3-1-59.3-1v-4.4ZM1112.7,2469.6l59.3,1v7.1c-.1,0-59.4-1-59.4-1v-7.1Z"/>
  </g>
  <g>
    <g>
      <circle class="st6" cx="1112.7" cy="4546.5" r="52.5"/>
      <text class="st14" transform="translate(1093.5 4574.1) rotate(.3)"><tspan x="0" y="0">P</tspan></text>
    </g>
    <g>
      <rect class="st12" x="1042.1" y="4427.3" width="144.8" height="51.3" rx="25.6" ry="25.6" transform="translate(25.4 -6.3) rotate(.3)"/>
      <text class="st10" transform="translate(1069.3 4462) rotate(.3)"><tspan x="0" y="0">Parking</tspan></text>
    </g>
  </g>
  <path class="st21" d="M551.5,1641.1c-6.8-4.8-19.8,1.5-24.8,4.2v-6.9c1-.8,1.6-2,1.6-3.3,0-2.6-2-4.7-4.6-4.7s-4.7,2-4.7,4.6.6,2.7,1.6,3.6l-1.9,106.4c-1,.8-1.6,2.1-1.6,3.4,0,2.6,2,4.7,4.6,4.7s4.7-2,4.7-4.6-.5-2.6-1.5-3.5l1.2-69.3c4.6-4,15.9-12.3,23.8-3.7,10,10.8,26.7-1.4,26.7-1.4l1.1-30.1c-7.4,3.2-17.9,6.4-26.4.5Z"/>
  <path class="st21" d="M527,1730.3c-6.8-4.7-19.8,1.8-24.7,4.6v-6.9c.9-.8,1.5-2,1.5-3.4,0-2.6-2.1-4.7-4.7-4.7s-4.7,2.1-4.7,4.7.6,2.7,1.6,3.5v106.5c-1.1.9-1.7,2.1-1.7,3.5,0,2.6,2.1,4.7,4.7,4.7s4.7-2.1,4.7-4.7-.6-2.6-1.5-3.4v-69.4c4.6-4.1,15.8-12.6,23.9-4.1,10.1,10.6,26.7-1.8,26.7-1.8l.7-30.1c-7.4,3.4-17.8,6.7-26.4.9Z"/>
  <path class="st21" d="M1548.3,1337c-6.9-4.6-19.7,2-24.6,4.9v-6.9c.8-.9,1.4-2.1,1.3-3.4,0-2.6-2.1-4.6-4.7-4.6s-4.6,2.1-4.6,4.7.7,2.7,1.7,3.5l1.1,106.4c-.9.9-1.5,2.1-1.5,3.5,0,2.6,2.1,4.6,4.7,4.6s4.6-2.1,4.6-4.7-.6-2.6-1.6-3.4l-.7-69.4c4.5-4.2,15.5-12.8,23.7-4.4,10.3,10.5,26.7-2.1,26.7-2.1l.3-30.1c-7.3,3.5-17.7,6.9-26.4,1.2Z"/>
  <path class="st21" d="M1502.9,1483.1c-6.8-4.7-19.8,1.7-24.7,4.5v-6.9c.9-.8,1.5-2,1.5-3.4,0-2.6-2.1-4.7-4.6-4.7s-4.7,2.1-4.7,4.6.6,2.7,1.6,3.5l-.5,106.5c-1,.8-1.6,2.1-1.6,3.5,0,2.6,2.1,4.7,4.6,4.7,2.6,0,4.7-2.1,4.7-4.6s-.6-2.6-1.5-3.4l.3-69.4c4.5-4.1,15.7-12.5,23.8-4,10.1,10.7,26.7-1.7,26.7-1.7l.7-30.1c-7.4,3.3-17.8,6.7-26.4.8Z"/>
  <text class="st15" transform="translate(1617.6 2541.4) rotate(67.8)"><tspan x="0" y="0">Larry Ladd Trail</tspan></text>
  <rect class="st11" x="-2151" y="2233.3" width="4766.5" height="298.2" transform="translate(2614.8 2151.9) rotate(90)"/>
  <rect class="st11" x="7" y="0" width="2857.8" height="298.2"/>
  <text class="st9" transform="translate(202.1 1950) rotate(90)"><tspan x="0" y="0">Simcoe Street South</tspan></text>
  <text class="st9" transform="translate(1187.1 180.4) rotate(0)"><tspan x="0" y="0">Harbour Rd.</tspan></text>
</svg>