<?xml version="1.0" encoding="UTF-8"?><svg id="Pavement" xmlns="http://www.w3.org/2000/svg" viewBox="0 0 2870.54 4780.48"><defs><style>.cls-1{fill:#0f0b38;}.cls-2{fill:#e0e0e0;}.cls-3{stroke:#b2b2b2;}.cls-3,.cls-4,.cls-5,.cls-6,.cls-7,.cls-8,.cls-9,.cls-10,.cls-11{stroke-miterlimit:10;}.cls-3,.cls-4,.cls-5,.cls-6,.cls-7,.cls-9,.cls-11{fill:none;}.cls-3,.cls-4,.cls-5,.cls-9{stroke-width:18px;}.cls-12{fill:#b7b38a;}.cls-13{fill:#13132d;}.cls-4{stroke:#96937d;}.cls-14{font-family:PTSans-Regular, 'PT Sans';font-size:28px;}.cls-14,.cls-15,.cls-8,.cls-10{fill:#fff;}.cls-5{stroke:#939393;}.cls-16{fill:#e2e2e2;}.cls-17{fill:#c9f78f;}.cls-6{stroke:#7c4700;stroke-width:6px;}.cls-18{fill:#2d8e00;}.cls-19{fill:#969696;}.cls-20{fill:#64d6f9;}.cls-7{stroke:#8b6cdc;stroke-width:4px;}.cls-21{fill:#656565;}.cls-22{fill:#b7b7b7;}.cls-23{fill:#66aa3a;}.cls-24{fill:#515151;}.cls-8{stroke:#686868;}.cls-8,.cls-10{stroke-width:7px;}.cls-9{stroke:#b7b38a;}.cls-25{font-family:PTSans-Bold, 'PT Sans';font-size:71.25px;font-weight:700;letter-spacing:-.04em;}.cls-25,.cls-26{fill:#686868;}.cls-27{fill:#282828;}.cls-10{stroke:#656565;}.cls-28{fill:#aa6500;}.cls-29{letter-spacing:-.02em;}.cls-30{letter-spacing:-.04em;}.cls-31{letter-spacing:-.03em;}.cls-32{fill:#79aa71;}.cls-11{stroke:#0f0b38;stroke-width:3px;}.cls-33{fill:#4c4c4c;}.cls-34{fill:#0fafed;}.cls-35{fill:#b2b2b2;}</style></defs><rect class="cls-32" x="-953.91" y="956.73" width="4778.37" height="2867.02" transform="translate(3826.57 956.73) rotate(90.04)"/><polygon class="cls-34" points="2182.31 780.85 2385.96 831.68 2359.53 901.11 2161.03 828.18 2182.31 780.85"/><path class="cls-20" d="M2182.3,792.42s-945.13-283.49-1034.16-310.54c-89.03-27.05-273.67-65.59-338.05-74.67-64.38-9.08-98.26-14.27-114.53-14.28-16.26-.01-83.71-1.98-110.03,2.79-26.31,4.76-101.43,21.93-113.94,117.12l-1.56,3006.54,10.63,1173.88,938.7.69s242.8-.49,311.53-12.35l159.43-7.21,69.42-3.9,423.38.31,2.83-3839.11s-128.92-28.13-203.66-39.26Z"/><path class="cls-17" d="M2182.31,780.85s.76,278.15-8.28,275.98-16.67,224.96-6.76,225c9.91.05,3.27,176.35-5.36,178.41-8.63,2.05,3.17,193.19-6,199.36-13.26,8.93-21.09,187.58-5.76,191.13,10.33,2.39.55,289.74-8.71,288.82s5.7,135.83-4.23,139.98c-9.92,4.15,3.34,231.47-7.13,235.73-10.48,4.26-25.23,248.04-7.67,252.45,17.57,4.4-5.38,176.28-5.38,176.28,0,0,5.08,272.97-8.52,271.53-13.61-1.44,15.91,426.92,5.83,423.89-10.08-3.03,35.05,152.63-17.12,138.92-52.17-13.7-78.64-11.41-73.47-302.48,4.18-235.17-74.98-118.37-112.19-141.17-13.77-8.43-91.36-2.57-116.28-5.09-24.92-2.52-52.9,32.41-68.11,3.29-15.21-29.13-53.15-12.55-68.93-9.22-15.78,3.32-108.81,6.59-137.06,7.4-12.49.36-127.57,21.55-139.8-5.19-12.22-26.75-172.19-2.91-177.38,9.68-5.4,13.09-204.71,71.58-261.47,61.78-56.76-9.8-161.92,21.04-170.53,11.79-10.25-11.01-157.92,61.66-158.66,31.5-.73-30.17-143.28,48.01-143.28,48.01l1.55-2988.43s-23.42-188.24,338.5-106.04c361.92,82.21,1372.21,386.71,1372.21,386.71Z"/><path class="cls-17" d="M2166.19,846.45s.76,278.15-8.28,275.98c-9.04-2.17-16.67,224.96-6.76,225,9.91.05,3.27,176.35-5.36,178.41-8.63,2.05,3.17,193.19-6,199.36-13.26,8.93-21.09,187.58-5.76,191.13,10.33,2.39.55,289.74-8.71,288.82-9.26-.92,5.7,135.83-4.23,139.98-9.92,4.15,3.34,231.47-7.13,235.73-10.48,4.26-25.23,248.04-7.67,252.45,17.57,4.4-5.38,176.28-5.38,176.28,0,0,5.08,272.97-8.52,271.53-13.61-1.44,15.91,426.92,5.83,423.89-10.08-3.03,35.05,152.63-17.12,138.92-52.17-13.7-78.64-11.41-73.47-302.48,4.18-235.17-74.98-118.37-112.19-141.17-13.77-8.43-91.36-2.57-116.28-5.09-24.92-2.52-52.9,32.41-68.11,3.29-15.21-29.13-53.15-12.55-68.93-9.22-15.78,3.32-108.81,6.59-137.06,7.4-12.49.36-127.57,21.55-139.8-5.19-12.22-26.75-172.19-2.91-177.38,9.68-5.4,13.09-204.71,71.58-261.47,61.78-56.76-9.8-161.92,21.04-170.53,11.79-10.25-11.01-157.92,61.66-158.66,31.5-.73-30.17-143.28,48.01-143.28,48.01l1.55-2988.43s-23.42-188.24,338.5-106.04c361.92,82.21,1372.21,386.71,1372.21,386.71Z"/><path class="cls-17" d="M474.07,3663.84s164.12-3.31,239-44.08c0,0,697.53-38.61,750.27-47.08,0,0,111.22-36.06,117.77-39.33,0,0,37.32,13.78,53.69,16.41,0,0,124.42,3.37,167.64,11.91,0,0,6.91,9.61,15.77,14.26,8.86,4.65,35.46,21.33,38.37,21.68s21.65,7.23,23.97,7.82c2.33.58,7.44,6.76,7.68,7.57s-4.57,38.07-5.5,39.23c-.93,1.16-6.22,5.74-6.22,5.74l3.93,1023.93-218.98,13.28-273.22,5.69-343.13-.25-326.99-.24-234.66-.17-9.39-1036.35Z"/><path class="cls-9" d="M479.96,4615.85l131.13-6.38s-127.55-9.79-117.09,83.79"/><polyline class="cls-4" points="1698.2 3859.06 1697.63 4639.09 1697.59 4685.87"/><path class="cls-9" d="M1867.35,4357.6l-1239.83-1.1s-1.5-26.37-.96-41.88"/><path class="cls-3" d="M1380.92,1348.21s72.24,16.56,78.91,21.38"/><path class="cls-9" d="M1584.65,3844.58s-33.53,136.17,72.39,146.09l200.51.15-.27,366.79"/><path class="cls-9" d="M2168.99,1088.9s-84.16-67.53-97.74-82.48c-13.57-14.95-89.73-86.36-190.17-34.06-100.44,52.31-371.2-54.19-476.04-82.75-104.83-28.56-908.55-258.28-908.55-258.28,0,0-28.56-44.92-10.28-133.68,18.27-88.75,126.01-96.26,129.81-96.26s195.73,11.52,198.76,19.87c3.03,8.35-80.62,273.83-80.62,273.83,0,0-41.35,121.15,3.37,217.87,0,0,107.09-32.15,167.71-13.53,0,0,46.07-124.55,41.61-132.71"/><path class="cls-9" d="M626.85,4319.35c-2.92-42.64,1.04-104.13,7.96-149.01,2.31-14.96,4.94-28.08,7.77-38.03,11.29-39.83,50.32-128.99,69.41-174.01,19.08-45.02,48.55-73.57,48.55-73.57,33.8-41.54,110.04-78.72,167.21-106.41,57.18-27.69,183.62-38.82,260.68-30.1,77.07,8.72,253.68,66,314.36,77.08,60.67,11.08,165.97,48.68,214.07,29.2,48.1-19.48,81.58-75.2,98.33-110.72,16.75-35.53,22.36-77.33,18.9-119.14-3.45-41.81-39.03-356.26-39.03-356.26,0,0,7.31,74.66-10.46-118.35-17.76-193.01-117.08-414.93-135.95-463.69-18.87-48.76-130.69-267.01-143.54-304.94-12.85-37.93-53.7-196.74-65.8-235.36-12.11-38.62-30.74-204.09-35.09-283.51-4.35-79.42,2.94-214.85,6.94-257.55,4-42.69,54.8-262.09,54.8-262.09l111.53-400.08"/><path class="cls-9" d="M1505.11,2381.38s-35.15,16.15-82.43,17.06-233.54,1.72-261.9-.19c-28.36-1.91-182.48,1.76-254.31-40.84-71.83-42.6-222.1-116.46-281.53-303.71,0,0-29.42-133.71-29.93-170.01"/><path class="cls-9" d="M1411.16,1604.96s-73.38-24.28-143.44-16.85c-70.06,7.43-141.85,22.37-183.47,54.08-41.62,31.71-143.33,132.42-178.15,147.63-32.05,13.99-97.29,66.06-234.72,61.15-11.88-.42-24.3-1.27-37.28-2.61l-39.05-3.01-.03,43.9"/><line class="cls-5" x1="611.09" y1="4609.47" x2="616.58" y2="4609.18"/><path class="cls-9" d="M671.38,1850.98c-15.28-25.97-4.74-192.95-4.74-192.95l.72-10.22"/><path class="cls-9" d="M1095.11,1634.71s-14.6-44.93-11.38-77.92l-2.21-17.31"/><path class="cls-2" d="M1337.4,1335.31c-26.76-3.99-152.26-17.19-191.95-14.26-39.7,2.93-175.98,32.45-235.23,45.44-59.25,12.99-307.57,7.48-307.57,7.48l3.31,269.86s218.67-2.85,286.14-27.68c67.47-24.83,151.14-51.9,197.15-77.5,46.01-25.6,216.8-34.51,236.94-32.24l16.08,1.38s24.62-145.57,35.14-161.07c0,0-18.97-8.28-40-11.42Z"/><path class="cls-9" d="M906.09,1789.82s-13.8,38.43-14.02-159.35l-2.5-19.94"/><path class="cls-3" d="M1337.4,1335.72c-26.76-3.99-152.26-17.19-191.95-14.26-39.7,2.93-175.98,32.45-235.23,45.44-59.25,12.99-304.06,7.48-304.06,7.48l-2.53,269.86s221.01-2.85,288.48-27.68c67.47-24.83,151.14-51.9,197.15-77.5,46.01-25.6,216.8-34.51,236.94-32.24l16.08,1.38s24.62-145.57,35.14-161.07c0,0-18.97-8.28-40-11.42Z"/><line class="cls-9" x1="478.45" y1="4165.28" x2="634.81" y2="4170.35"/><path class="cls-12" d="M1512.58,2400.42c.86-2.35.38-5.14-2.39-6.79-.02-2.91-1.89-5.87-5.63-6l-8.18-.29c-1.81-.61-3.65-1.14-5.5-1.6,2.04-1.57,4.1-3.1,6.22-4.57,4.32-3,2.71-8.9-.79-10.64,1.19-3.51,1.96-7.2,2.18-11.03.45-7.51-11.24-7.49-11.68,0-.62,10.48-7.06,19.69-16.27,24.23-1.12.05-2.24.12-3.36.23-4.88.47-6.58,5.68-5.04,9,.69,2.26,2.54,4.13,5.17,4.12.91,1.27,2.43,2.08,4.56,1.89,11.59-1.03,22.46,1.59,32.23,7.92,4.84,3.13,9.41-2.04,8.47-6.47Z"/><path class="cls-12" d="M1411.75,1616.29c-2.95-6.29-7.23-11.75-12.41-16.14,9.4-3.67,17.17-9.95,19.53-21.12,1.55-7.33-9.71-10.48-11.26-3.11-2.22,10.53-11.93,14.38-21.68,16.16-2.01-.81-4.08-1.5-6.2-2.04-3.97-1.01-6.69,1.87-7.18,5-3.48,3.39-2.32,10.63,3.62,10.03,2.57-.26,5.23-.59,7.92-1.01,7.72,3.78,13.76,10.04,17.56,18.14,3.19,6.8,13.27.88,10.09-5.89Z"/><path class="cls-12" d="M1573.63,969.07c.46-1.28,1.06-2.46,1.77-3.54,1.76-.63,3.22-2.22,3.84-4.15,3.71-2.86,8.55-4.21,13.43-3.74,7.48.71,7.44-10.97,0-11.68-6.05-.58-11.86.87-16.83,3.75-.55-1.24-1.09-2.47-1.64-3.71-1.04-4.08-2.53-8-4.57-11.85-2.7-5.11-11.05-2.77-10.89,2.94.23,8.04,2.67,15.51,7.13,21.95-1.44,2.13-2.63,4.45-3.51,6.92-2.52,7.1,8.76,10.16,11.26,3.11Z"/><path class="cls-12" d="M948.77,792.78c1.3-8.53,6.42-16.18,14.64-19.45,6.9-2.74,3.9-14.04-3.1-11.27-5,1.99-9.49,4.94-13.16,8.64-.25-5.98-1.38-11.78-3.62-17.33-1.18-2.92-3.89-4.99-7.18-4.08-2.77.76-5.27,4.24-4.08,7.18,1.87,4.63,3.01,9.34,3.21,14.33.17,4.19,3.9,6.05,7.11,5.56-2.56,3.94-4.33,8.42-5.07,13.3-1.12,7.35,10.13,10.53,11.26,3.11Z"/><path class="cls-12" d="M730.4,732.17c.68-5.25,3.48-10.03,7.41-13.54,3.48-1.01,6.64-2.77,9.24-5.12,1.33-.38,2.7-.64,4.08-.74,4.53-.35,6.32-4.8,5.35-8.11,1.09-2.02,1.2-4.63-.62-6.86-.6-.73-1.17-1.49-1.72-2.26-.47-5.04-2.81-9.86-6.3-13.55-.49-1.88-.85-3.8-1.06-5.74-.78-7.08-11.54-7.46-11.71-.9-.99-.12-1.99-.16-3.01-.12-6.37.28-12.2,3.01-16.29,7.35-4.5,1.43-9.07,2.65-13.68,3.68-7.33,1.64-4.24,12.9,3.1,11.27.94-.21,1.87-.44,2.8-.66.69.74,1.33,1.5,1.95,2.29.45,5.22,2.9,10.22,6.57,13.98.23,1.11.42,2.23.53,3.38.29,2.93,2.3,4.71,4.57,5.34-1.43,3.21-2.42,6.68-2.89,10.34-.96,7.43,10.73,7.37,11.68,0Z"/><path class="cls-12" d="M1080.46,1647.58c5.5-7.29,10.29-15,14.39-23.15,7.58,3.78,16.39,4.87,25.12,2.62,8-2.06,4.62-14.46-3.41-12.39-9.2,2.37-19.21-1.04-24.68-8.93-4.67-6.75-15.82-.35-11.1,6.48,1.11,1.6,2.32,3.1,3.62,4.48-.05.1-.11.19-.16.29-4.2,8.51-9.16,16.54-14.88,24.11-4.98,6.6,6.16,13.02,11.09,6.49Z"/><path class="cls-12" d="M623.5,1857.03c15.24-2.87,29.81-8.05,43.53-15.26.2-.11.39-.22.57-.33,3.95,4.27,8.35,8.14,13.19,11.57,6.76,4.79,13.2-6.34,6.49-11.09-9.04-6.4-16.01-14.87-20.99-24.73-3.73-7.38-14.82-.89-11.1,6.48,1.32,2.61,2.79,5.1,4.37,7.51-12.48,6.43-25.66,10.87-39.47,13.47-8.12,1.53-4.69,13.92,3.41,12.39Z"/><path class="cls-12" d="M1585.35,3875.24c-.02-.59-.05-1.17-.09-1.75.21-.37.39-.77.55-1.21,2.59-7.52,9.82-12.53,17.7-12.68,8.26-.16,8.29-13.01,0-12.85-8.44.17-16.09,3.52-21.81,9.05-2.07-5.77-5-11.23-8.83-16.21-4.97-6.46-16.14-.08-11.1,6.48,6.6,8.58,10.38,18.31,10.72,29.17.26,8.25,13.11,8.29,12.85,0Z"/><path class="cls-12" d="M633.86,4183.59c-1.21-5.52-4.23-10.44-8.31-14.19,3.34-1.3,6.64-2.72,9.91-4.23,7.5-3.47.99-14.55-6.48-11.1-6.99,3.24-14.2,5.82-21.6,7.89-.94-.01-1.89.01-2.83.1-8.15.8-8.25,13.66,0,12.85.09,0,.17,0,.26-.01,1.06.37,2.3.44,3.67.09,6.36.85,11.55,5.34,13,12.01,1.76,8.07,14.16,4.67,12.39-3.41Z"/><rect class="cls-35" x="983.47" y="4017.27" width="252.26" height="991.63" rx="28.83" ry="28.83" transform="translate(5623.5 3406.82) rotate(90.04)"/><path class="cls-23" d="M1281.05,1494.07l.08-107.79c0-1.78,1.72-3.14,3.63-2.88l22.2,2.96c1.86.25,3.23,1.71,3.23,3.43l-.08,102.75c0,1.5-.85,3.09-2.49,3.2l-23.27,1.16c-1.79.12-3.31-1.18-3.31-2.83Z"/><path class="cls-23" d="M1234.56,1497.31l-.13-115.86c0-1.82,1.91-3.23,4.09-3.01l21.15,2.19c1.82.19,3.19,1.48,3.19,3.01l.09,112.37c0,1.62-1.52,2.96-3.47,3.03-5.87.21-13.23.71-20.95,1.29-2.13.16-3.97-1.24-3.97-3.01Z"/><path class="cls-23" d="M1189.68,1501.75l-.11-127.2c0-.37,1.34-2.44,2.38-2.35l19.17,1.55c1.84.15,3.26,1.68,3.26,3.51l.06,120.7c0,2.59-2.13,4.93-4.73,5.18-4.89.47-10.44,1.22-16.48,1.8-1.9.18-3.55-1.3-3.55-3.18Z"/><path class="cls-23" d="M1136.97,1509.85l-.13-132.04c0-.16.03-1.56.1-3.1.11-2.49,2.28-4.54,5.11-4.8l9.12-.86s.09,0,.14,0l8.66.09c2.97.03,5.36,2.15,5.37,4.76l.09,131.22c0,2.19-1.81,4.06-4.28,4.39-5.82.78-12.41,1.86-20.29,3.16-2.01.33-3.89-1.02-3.89-2.82Z"/><path class="cls-23" d="M1089.59,1521.77l-.13-134.69c0-.17,0-1.74.03-3.38.05-2.32,1.92-4.3,4.5-4.77l19.8-3.59c2.37-.43,4.59,1.17,4.58,3.3l-.39,137.23c0,1.54-1.19,2.87-2.88,3.25-5.74,1.3-11.8,3.21-20.09,5.96-2.62.87-5.43-.84-5.43-3.31Z"/><line class="cls-9" x1="595.04" y1="1845.36" x2="600.75" y2="658.99"/><path class="cls-6" d="M1341.59,1916.9s-57.28-18.95-111.97-13.15c-54.69,5.8-110.73,17.46-143.21,42.22-32.49,24.75-111.88,103.37-139.06,115.24-25.02,10.92-75.94,51.56-183.22,47.74-9.27-.33-18.97-.99-29.1-2.04l-30.48-2.35"/><polyline class="cls-11" points="1506.52 4448.63 1506.48 4515.7 1473.31 4515.68 1473.36 4448.6"/><polyline class="cls-11" points="1473.32 4582.69 1473.35 4515.61 1506.52 4515.63 1506.49 4582.7"/><polyline class="cls-11" points="1473.21 4448.61 1473.16 4515.68 1439.99 4515.66 1440.04 4448.59"/><polyline class="cls-11" points="1440 4582.67 1440.04 4515.6 1473.2 4515.61 1473.17 4582.69"/><polyline class="cls-11" points="1439.82 4448.59 1439.77 4515.66 1406.61 4515.64 1406.66 4448.56"/><polyline class="cls-11" points="1406.62 4582.65 1406.65 4515.57 1439.82 4515.59 1439.79 4582.66"/><polyline class="cls-11" points="1406.66 4448.29 1406.61 4515.36 1373.44 4515.34 1373.49 4448.27"/><polyline class="cls-11" points="1373.45 4582.35 1373.48 4515.28 1406.65 4515.29 1406.62 4582.37"/><polyline class="cls-11" points="1373.36 4448.2 1373.31 4515.28 1340.14 4515.25 1340.19 4448.18"/><polyline class="cls-11" points="1340.15 4582.26 1340.18 4515.19 1373.35 4515.21 1373.32 4582.28"/><polyline class="cls-11" points="1338.87 4448.23 1338.82 4515.3 1305.65 4515.28 1305.7 4448.2"/><polyline class="cls-11" points="1305.66 4582.29 1305.7 4515.21 1338.86 4515.23 1338.83 4582.3"/><polyline class="cls-11" points="1304.76 4448.2 1304.71 4515.28 1271.54 4515.25 1271.59 4448.18"/><polyline class="cls-11" points="1271.55 4582.26 1271.59 4515.19 1304.75 4515.2 1304.72 4582.28"/><polyline class="cls-11" points="1271.68 4447.57 1271.63 4514.65 1238.46 4514.62 1238.51 4447.55"/><polyline class="cls-11" points="1238.47 4581.64 1238.5 4514.56 1271.67 4514.58 1271.64 4581.65"/><polyline class="cls-11" points="981.18 4444.54 981.13 4511.61 947.96 4511.59 948.01 4444.51"/><polyline class="cls-11" points="947.97 4578.6 948 4511.53 981.17 4511.54 981.14 4578.62"/><polyline class="cls-11" points="947.79 4444.51 947.74 4511.59 914.57 4511.56 914.62 4444.49"/><polyline class="cls-11" points="914.58 4578.57 914.62 4511.5 947.78 4511.52 947.75 4578.59"/><polyline class="cls-11" points="914.62 4444.22 914.57 4511.29 881.4 4511.27 881.45 4444.19"/><polyline class="cls-11" points="881.41 4578.28 881.45 4511.21 914.61 4511.22 914.58 4578.3"/><polyline class="cls-11" points="881.32 4444.13 881.27 4511.21 848.1 4511.18 848.15 4444.11"/><polyline class="cls-11" points="848.12 4578.19 848.15 4511.12 881.32 4511.13 881.28 4578.21"/><polyline class="cls-11" points="846.83 4444.15 846.79 4511.23 813.62 4511.2 813.67 4444.13"/><polyline class="cls-11" points="813.63 4578.22 813.66 4511.14 846.83 4511.16 846.8 4578.23"/><polyline class="cls-11" points="812.73 4444.13 812.68 4511.2 779.51 4511.18 779.56 4444.11"/><polyline class="cls-11" points="779.52 4578.19 779.55 4511.12 812.72 4511.13 812.69 4578.21"/><polyline class="cls-11" points="779.64 4443.5 779.59 4510.58 746.42 4510.55 746.47 4443.48"/><polyline class="cls-11" points="746.44 4577.56 746.47 4510.49 779.64 4510.51 779.6 4577.58"/><polyline class="cls-11" points="745.87 4444.27 745.82 4511.34 712.65 4511.32 712.7 4444.25"/><polyline class="cls-11" points="712.66 4578.33 712.69 4511.26 745.86 4511.27 745.83 4578.35"/><path class="cls-24" d="M742.76,1131.97l3.62-4.78,16.77,12.7c-1.88-15.79,6.09-33.73,22.7-50.49,23.77-23.98,65.45-44.08,91.37-34.77l495.16,158.34,11.89-42.11,5.77,1.63-13.58,48.08-501.23-160.29c-21.16-7.64-59.34,7.31-85.13,33.33-17.96,18.12-25,37.32-19.3,52.66l3.58,9.65-31.63-23.97Z"/><path class="cls-24" d="M811.44,1010.29l5.19-3.01,8.37,14.41c13.52-25.89,50.57-23.11,50.97-23.08l.34.03.32.1,385.91,123.41,10.82-32.38,5.69,1.9-12.7,38-2.82-.9-388.38-124.2c-3.66-.21-38.14-1.44-46.89,24.76l-2.1,6.3-14.71-25.34Z"/><path class="cls-24" d="M827.53,956.52l5.19-3.01,8.37,14.41c13.52-25.89,50.57-23.11,50.97-23.08l.34.03.32.1,385.91,123.41,10.82-32.38,5.69,1.9-12.7,38-391.2-125.1c-3.66-.21-38.14-1.43-46.89,24.76l-2.1,6.3-14.71-25.34Z"/><path class="cls-24" d="M1561.4,2000.51l-9.13-15.22c-.4-.67-1.12-1.08-1.89-1.09l-6.94-.09.09-7.09,3.19.04c2.57.03,4.69-2.02,4.72-4.6s-2.02-4.69-4.6-4.72l-3.19-.04.06-4.37,3.23.04c2.57.03,4.69-2.02,4.72-4.6h0c.03-2.57-2.02-4.69-4.6-4.72l-68.33-.91c-2.57-.03-4.69,2.02-4.72,4.6h0c-.03,2.57,2.02,4.69,4.6,4.72l1.45.02-.06,4.37-1.49-.02c-2.57-.03-4.69,2.02-4.72,4.6-.03,2.57,2.02,4.69,4.6,4.72l1.49.02-.09,7.09-5.06-.07c-.77-.01-1.48.37-1.9,1.01l-9.82,14.97c-.51.77-.45,1.68-.04,2.37l-.35,26.19,2.19.03.33-25.12,8.38.11-.12,9.02,2.19.03.12-9.02,73.42.98-.12,9.34,2.19.03.12-9.34,7.94.11-.34,25.57,2.19.03.36-26.82c.33-.65.37-1.45-.06-2.17ZM1482.25,1962.51l59.27.79-.06,4.37-59.27-.79.06-4.37ZM1482.07,1976.2l59.27.79-.09,7.09-59.27-.79.09-7.09Z"/><rect class="cls-35" x="1685.13" y="4463.44" width="164.52" height="105.21" rx="21.3" ry="21.3" transform="translate(6284.74 2751.99) rotate(90.04)"/><path class="cls-23" d="M1329.55,1390.08l22.5,4.56c1.92.39,3.14,2.13,2.74,3.89l-14.34,63.06c-.43,1.88-2.29,3.18-4.37,3.06l-8.26-.48c-1.8-.1-3.2-1.49-3.17-3.15l1.07-68.15c.03-1.84,1.89-3.2,3.85-2.8Z"/><path class="cls-23" d="M1029.18,1543.55l-.93-143c-.03-4.34,3.33-8.13,8.1-9.14,6.8-1.44,14.27-3.17,20.93-4.56,4.32-.9,8.46,2.01,8.45,5.94l-.1,141.13c0,4.28-2.88,8.15-7.31,9.87-5.49,2.12-11.64,4.38-17.68,6.55-5.46,1.96-11.42-1.57-11.46-6.78Z"/><path class="cls-23" d="M901.85,1591.48l.12-164.64c0-3.31,2.58-6.14,6.14-6.75,8.36-1.43,17.94-3.07,28.34-4.82,4.64-.78,8.92,2.46,8.92,6.77l-.12,160.69c0,2.97-2.1,5.61-5.2,6.53-9.49,2.8-18.95,5.91-28.26,8.76-4.89,1.5-9.94-1.82-9.94-6.53Z"/><path class="cls-23" d="M850.09,1610.73l-.38-173.05c0-3.37,2.88-6.2,6.66-6.5,5.31-.42,10.68-1,15.57-1.59,3.51-.42,6.63,2.01,6.61,5.15l.37,171.2c-.01,2.85-3.32,5.34-6.41,6.09-5,1.21-10.28,2.35-15.79,3.43-3.4.66-6.62-1.64-6.62-4.73Z"/><path class="cls-23" d="M801.85,1619.67l.22-180.3c0-2.99,2.71-5.43,6.07-5.47,6.15-.08,12.07-1.16,18.08-1.3,2.97-.07,5.42,3.08,5.42,5.72l-.05,178.75c0,2.14-1.78,3.95-4.16,4.25-6.93.85-13.81,1.33-20.99,2.03-2.45.24-4.6-1.47-4.6-3.66Z"/><path class="cls-23" d="M751.96,1624.25l.13-181.55c0-2.8,2.58-5.07,5.76-5.08,5.37-.02,10.83-.05,16.32-.1,3.22-.03,5.84,2.26,5.84,5.09l-.13,180.47c0,2.63-2.29,4.83-5.27,5.06-5.52.43-11,.82-16.41,1.19-3.37.23-6.24-2.11-6.24-5.08Z"/><path class="cls-23" d="M704.55,1625.95l.13-180.76c0-3.21,3.32-5.8,7.39-5.77s8.43.06,12.88.08c4.03.02,7.28,2.6,7.28,5.78l-.13,180.06c0,3.04-3,5.56-6.84,5.76-4.47.23-8.81.43-12.97.62-4.2.19-7.73-2.45-7.73-5.77Z"/><path class="cls-15" d="M793.39,1872.63c6.14-.08,12.31-.19,18.44-.34"/><path class="cls-15" d="M811.65,2131.73c-6.13.75-12.3,1.46-18.44,2.11"/><path class="cls-23" d="M657.4,1629.92l.14-184.01c0-3.27,3.32-5.91,7.39-5.87,4.13.03,8.43.06,12.88.09,4.03.02,7.28,2.65,7.28,5.88l-.14,183.3c0,3.09-3,5.66-6.84,5.86-4.47.23-8.81.44-12.97.63-4.2.19-7.73-2.5-7.73-5.88Z"/><line class="cls-7" x1="1325.23" y1="1443.5" x2="1325.86" y2="1369.07"/><line class="cls-7" x1="1279.16" y1="1435.27" x2="1279.78" y2="1360.83"/><line class="cls-7" x1="1233.64" y1="1429.79" x2="1234.26" y2="1355.36"/><line class="cls-7" x1="1187.89" y1="1426.9" x2="1188.51" y2="1352.46"/><line class="cls-7" x1="1134.45" y1="1432.69" x2="1135.07" y2="1358.25"/><line class="cls-7" x1="1088.94" y1="1446.68" x2="1089.56" y2="1372.25"/><line class="cls-7" x1="1028.95" y1="1456.35" x2="1029.57" y2="1381.91"/><line class="cls-7" x1="901.03" y1="1482.62" x2="901.66" y2="1408.19"/><line class="cls-7" x1="850.25" y1="1495.29" x2="850.87" y2="1420.86"/><line class="cls-7" x1="799.49" y1="1498.37" x2="800.12" y2="1423.93"/><line class="cls-7" x1="750.71" y1="1498.33" x2="751.33" y2="1423.9"/><line class="cls-7" x1="703.24" y1="1498.3" x2="703.86" y2="1423.86"/><line class="cls-7" x1="654.45" y1="1498.26" x2="655.08" y2="1423.83"/><rect class="cls-24" x="1081.96" y="3736.66" width="34.96" height="82.81" rx="10.28" ry="10.28" transform="translate(4820.61 2499.22) rotate(87.26)"/><rect class="cls-24" x="1776.41" y="2977.02" width="34.96" height="82.81" rx="10.28" ry="10.28" transform="translate(4250.64 5527.07) rotate(166.32)"/><rect class="cls-24" x="1518.69" y="2327.46" width="34.96" height="82.81" rx="10.28" ry="10.28" transform="translate(3777.36 4085.97) rotate(160.42)"/><rect class="cls-24" x="1367.01" y="1972.43" width="34.96" height="82.81" rx="10.28" ry="10.28" transform="translate(3006.65 3841.67) rotate(172.92)"/><rect class="cls-24" x="874.16" y="2268.19" width="34.96" height="82.81" rx="10.28" ry="10.28" transform="translate(3337.35 2694.01) rotate(120.04)"/><rect class="cls-24" x="1239.06" y="769.7" width="34.96" height="82.81" rx="10.28" ry="10.28" transform="translate(2358.88 -199.65) rotate(104.64)"/><rect class="cls-24" x="865.12" y="848.78" width="21.93" height="51.93" rx="6.28" ry="6.28" transform="translate(1859.98 123.31) rotate(97.67)"/><rect class="cls-24" x="809.42" y="849.43" width="21.93" height="51.93" rx="6.28" ry="6.28" transform="translate(1599.81 -36.65) rotate(83.66)"/><rect class="cls-24" x="752.87" y="858.74" width="21.93" height="51.93" rx="6.28" ry="6.28" transform="translate(1436.79 -70.94) rotate(75.96)"/><rect class="cls-35" x="1372.09" y="1118.15" width="164.52" height="90.71" rx="19.8" ry="19.8" transform="translate(2965.23 74.4) rotate(105.55)"/><rect class="cls-35" x="584.13" y="1224.8" width="164.52" height="95.3" rx="20.27" ry="20.27" transform="translate(1944.4 616.78) rotate(90.48)"/><path class="cls-23" d="M1681.31,3885.55l-.5,77.21c-.04,5.93-5.17,10.52-11.07,9.93-23.41-2.35-75.76-15.91-72.2-90.43.35-7.26,7.19-12.46,14.25-10.76,23.82,5.76,45.98,8.28,61.94,6.96,4.11-.34,7.6,2.97,7.57,7.09Z"/><path class="cls-24" d="M1557.44,3902.38c0-9.29.63-19.12,1.88-29.47l3.97.48c-1.23,10.2-1.85,19.87-1.86,29-.03,35.62,9.24,63.07,27.69,81.84,31.11,31.65,78.25,27.19,78.72,27.14l.41,3.98c-.49.05-49.48,4.73-81.96-28.29-19.23-19.54-28.89-47.95-28.86-84.68Z"/><path class="cls-24" d="M1602.15,4050.43l-9.36-15.08c-.41-.66-1.13-1.06-1.91-1.06h-6.94s-.02-7.07-.02-7.07h3.19c2.57-.01,4.65-2.1,4.65-4.68s-2.1-4.65-4.67-4.65h-3.19s0-4.37,0-4.37h3.23c2.57-.01,4.65-2.1,4.65-4.68h0c0-2.57-2.1-4.65-4.67-4.65l-68.33.15c-2.57,0-4.65,2.1-4.65,4.67h0c0,2.57,2.1,4.65,4.67,4.65h1.45s0,4.37,0,4.37h-1.49c-2.57,0-4.65,2.1-4.65,4.67,0,2.57,2.1,4.65,4.67,4.65h1.49s.02,7.09.02,7.09h-5.06c-.77.01-1.48.41-1.89,1.05l-9.59,15.12c-.5.78-.43,1.68,0,2.37l.06,26.2h2.19s-.05-25.12-.05-25.12l8.38-.02.02,9.02h2.19s-.02-9.02-.02-9.02l73.43-.16.02,9.34h2.19s-.02-9.35-.02-9.35l7.94-.02.06,25.58h2.19s-.06-26.83-.06-26.83c.32-.65.35-1.46-.1-2.17ZM1522.43,4013.66l59.28-.13v4.37s-59.27.13-59.27.13v-4.37ZM1522.46,4027.35l59.28-.13.02,7.09-59.28.13-.02-7.09Z"/><path class="cls-24" d="M805.67,437.46c-7.36,3.38-17.79,6.77-26.38.95-6.86-4.64-19.75,1.85-24.68,4.67v-6.85c.88-.85,1.43-2.04,1.43-3.36,0-2.57-2.09-4.66-4.67-4.66-2.57,0-4.66,2.09-4.66,4.67,0,1.42.65,2.68,1.66,3.53l.13,106.45c-.96.86-1.57,2.09-1.57,3.47,0,2.57,2.09,4.66,4.67,4.66,2.58,0,4.66-2.09,4.66-4.67,0-1.36-.6-2.57-1.53-3.42l-.09-69.35c4.49-4.13,15.64-12.61,23.76-4.14,10.17,10.61,26.69-1.87,26.69-1.87l.58-30.07Z"/><path class="cls-24" d="M732.43,497.57c-7.37,3.37-17.8,6.73-26.39.9-6.85-4.66-19.75,1.81-24.69,4.61v-6.85c.89-.85,1.45-2.04,1.45-3.36,0-2.57-2.08-4.66-4.66-4.67s-4.66,2.08-4.67,4.66c0,1.42.65,2.68,1.65,3.53l-.1,106.45c-.96.85-1.57,2.08-1.57,3.47,0,2.57,2.08,4.66,4.66,4.67s4.66-2.08,4.67-4.66c0-1.36-.59-2.57-1.52-3.43l.06-69.35c4.5-4.12,15.67-12.58,23.77-4.08,10.14,10.63,26.69-1.82,26.69-1.82l.64-30.07Z"/><path class="cls-24" d="M629.53,535.95c-6.79-4.74-19.77,1.58-24.75,4.33l.09-6.85c.9-.84,1.47-2.02,1.49-3.34.03-2.57-2.03-4.69-4.6-4.72s-4.69,2.03-4.72,4.6c-.02,1.42.62,2.68,1.61,3.55l-1.33,106.44c-.97.84-1.6,2.06-1.61,3.45-.03,2.57,2.03,4.69,4.6,4.72,2.57.03,4.69-2.03,4.72-4.6.02-1.36-.56-2.58-1.48-3.44l.87-69.35c4.55-4.06,15.81-12.4,23.82-3.81,10.02,10.75,26.71-1.51,26.71-1.51l.99-30.06c-7.4,3.28-17.88,6.53-26.4.59Z"/><rect class="cls-24" x="549.5" y="496.36" width="141.15" height="6" transform="translate(-176.07 497.15) rotate(-38.69)"/><polygon class="cls-24" points="669.58 492.18 711.35 459.6 760.5 464.1 759.95 470.08 713.17 465.79 673.27 496.91 669.58 492.18"/><polygon class="cls-24" points="517.05 586.42 518.21 537.08 567.72 495.91 571.56 500.52 524.14 539.95 523.05 586.56 517.05 586.42"/><g id="Layer_1-2"><path class="cls-28" d="M1962.36,847.36c2.89,22.19-2.54,38.22-14.28,49.57l41.46-.42c-19.45-9.39-16.99-30.34-17.24-54.64l-6.22-6.67-3.72,12.15Z"/><circle class="cls-18" cx="1951.28" cy="794.09" r="20.55"/><circle class="cls-18" cx="1937.8" cy="814.82" r="20.55"/><circle class="cls-18" cx="1950.01" cy="838.63" r="20.55"/><circle class="cls-18" cx="1982.66" cy="834.77" r="20.55"/><circle class="cls-18" cx="1975.22" cy="812.02" r="20.55"/><circle class="cls-18" cx="1982.66" cy="796.98" r="20.55"/><circle class="cls-18" cx="1997.78" cy="813.54" r="20.55"/></g><g id="Layer_1-2-2"><path class="cls-28" d="M1633.57,858.65c2.61,22.22-3.03,38.18-14.92,49.38l41.47.11c-19.33-9.63-16.6-30.55-16.54-54.85l-6.13-6.75-3.87,12.11Z"/><circle class="cls-18" cx="1623.17" cy="805.24" r="20.55"/><circle class="cls-18" cx="1609.42" cy="825.8" r="20.55"/><circle class="cls-18" cx="1621.33" cy="849.76" r="20.55"/><circle class="cls-18" cx="1654.03" cy="846.31" r="20.55"/><circle class="cls-18" cx="1646.87" cy="823.48" r="20.55"/><circle class="cls-18" cx="1654.51" cy="808.53" r="20.55"/><circle class="cls-18" cx="1669.41" cy="825.28" r="20.55"/></g><g id="Layer_1-2-3"><path class="cls-28" d="M1363.1,694.16c2.7,22.21-2.87,38.19-14.71,49.44l41.47-.06c-19.37-9.55-16.73-30.49-16.77-54.78l-6.16-6.72-3.82,12.12Z"/><circle class="cls-18" cx="1352.48" cy="640.79" r="20.55"/><circle class="cls-18" cx="1338.82" cy="661.4" r="20.55"/><circle class="cls-18" cx="1350.83" cy="685.32" r="20.55"/><circle class="cls-18" cx="1383.51" cy="681.74" r="20.55"/><circle class="cls-18" cx="1376.26" cy="658.93" r="20.55"/><circle class="cls-18" cx="1383.84" cy="643.95" r="20.55"/><circle class="cls-18" cx="1398.81" cy="660.64" r="20.55"/></g><g id="Layer_1-2-4"><path class="cls-28" d="M1394,1007.43c3.05,22.16-2.27,38.23-13.93,49.67l41.46-.71c-19.52-9.25-17.21-30.22-17.63-54.51l-6.27-6.63-3.63,12.18Z"/><circle class="cls-18" cx="1382.53" cy="954.24" r="20.55"/><circle class="cls-18" cx="1369.2" cy="975.07" r="20.55"/><circle class="cls-18" cx="1381.58" cy="998.79" r="20.55"/><circle class="cls-18" cx="1414.21" cy="994.69" r="20.55"/><circle class="cls-18" cx="1406.6" cy="972" r="20.55"/><circle class="cls-18" cx="1413.94" cy="956.91" r="20.55"/><circle class="cls-18" cx="1429.17" cy="973.36" r="20.55"/></g><g id="Layer_1-2-5"><path class="cls-28" d="M1871.14,1110.97c2.75,22.2-2.78,38.2-14.6,49.48l41.47-.15c-19.39-9.51-16.8-30.45-16.89-54.75l-6.18-6.71-3.8,12.13Z"/><circle class="cls-18" cx="1860.4" cy="1057.63" r="20.55"/><circle class="cls-18" cx="1846.78" cy="1078.27" r="20.55"/><circle class="cls-18" cx="1858.84" cy="1102.16" r="20.55"/><circle class="cls-18" cx="1891.52" cy="1098.5" r="20.55"/><circle class="cls-18" cx="1884.22" cy="1075.71" r="20.55"/><circle class="cls-18" cx="1891.76" cy="1060.72" r="20.55"/><circle class="cls-18" cx="1906.77" cy="1077.37" r="20.55"/></g><g id="Layer_1-2-6"><path class="cls-28" d="M1637.43,1440.22c2.84,22.19-2.63,38.21-14.4,49.54l41.46-.32c-19.43-9.43-16.92-30.38-17.11-54.68l-6.2-6.69-3.75,12.15Z"/><circle class="cls-18" cx="1626.47" cy="1386.92" r="20.55"/><circle class="cls-18" cx="1612.94" cy="1407.62" r="20.55"/><circle class="cls-18" cx="1625.1" cy="1431.46" r="20.55"/><circle class="cls-18" cx="1657.76" cy="1427.67" r="20.55"/><circle class="cls-18" cx="1650.37" cy="1404.91" r="20.55"/><circle class="cls-18" cx="1657.85" cy="1389.88" r="20.55"/><circle class="cls-18" cx="1672.92" cy="1406.48" r="20.55"/></g><g id="Layer_1-2-7"><path class="cls-28" d="M1486.2,1865.79c2.95,22.18-2.43,38.22-14.14,49.61l41.46-.54c-19.48-9.33-17.08-30.29-17.4-54.59l-6.24-6.65-3.68,12.17Z"/><circle class="cls-18" cx="1474.97" cy="1812.55" r="20.55"/><circle class="cls-18" cx="1461.54" cy="1833.32" r="20.55"/><circle class="cls-18" cx="1473.83" cy="1857.1" r="20.55"/><circle class="cls-18" cx="1506.47" cy="1853.14" r="20.55"/><circle class="cls-18" cx="1498.95" cy="1830.42" r="20.55"/><circle class="cls-18" cx="1506.36" cy="1815.35" r="20.55"/><circle class="cls-18" cx="1521.52" cy="1831.87" r="20.55"/></g><g id="Layer_1-2-8"><path class="cls-28" d="M1076.97,929.85c2.97,22.18-2.41,38.22-14.11,49.62l41.46-.56c-19.48-9.32-17.1-30.28-17.43-54.58l-6.24-6.65-3.68,12.17Z"/><circle class="cls-18" cx="1065.71" cy="876.62" r="20.55"/><circle class="cls-18" cx="1052.3" cy="897.4" r="20.55"/><circle class="cls-18" cx="1064.59" cy="921.17" r="20.55"/><circle class="cls-18" cx="1097.23" cy="917.19" r="20.55"/><circle class="cls-18" cx="1089.71" cy="894.47" r="20.55"/><circle class="cls-18" cx="1097.1" cy="879.4" r="20.55"/><circle class="cls-18" cx="1112.27" cy="895.91" r="20.55"/></g><g id="Layer_1-2-9"><path class="cls-28" d="M528.16,800.42c2.5,22.23-3.21,38.16-15.15,49.31l41.46.31c-19.28-9.72-16.46-30.63-16.28-54.93l-6.1-6.78-3.93,12.09Z"/><circle class="cls-18" cx="518.01" cy="746.96" r="20.55"/><circle class="cls-18" cx="504.17" cy="767.45" r="20.55"/><circle class="cls-18" cx="515.96" cy="791.47" r="20.55"/><circle class="cls-18" cx="548.68" cy="788.18" r="20.55"/><circle class="cls-18" cx="541.63" cy="765.31" r="20.55"/><circle class="cls-18" cx="549.34" cy="750.4" r="20.55"/><circle class="cls-18" cx="564.16" cy="767.22" r="20.55"/></g><g id="Layer_1-2-10"><path class="cls-28" d="M525.68,1002.03c2.28,22.26-3.59,38.13-15.64,49.16l41.46.72c-19.18-9.92-16.15-30.8-15.73-55.09l-6.03-6.84-4.05,12.05Z"/><circle class="cls-18" cx="516.06" cy="948.47" r="20.55"/><circle class="cls-18" cx="502.02" cy="968.82" r="20.55"/><circle class="cls-18" cx="513.57" cy="992.96" r="20.55"/><circle class="cls-18" cx="546.32" cy="989.99" r="20.55"/><circle class="cls-18" cx="539.5" cy="967.05" r="20.55"/><circle class="cls-18" cx="547.36" cy="952.22" r="20.55"/><circle class="cls-18" cx="562.01" cy="969.19" r="20.55"/></g><g id="Layer_1-2-11"><path class="cls-28" d="M524.32,1400.46c2.14,22.27-3.82,38.11-15.94,49.06l41.45.98c-19.12-10.03-15.96-30.89-15.39-55.18l-5.99-6.88-4.13,12.02Z"/><circle class="cls-18" cx="515.04" cy="1346.85" r="20.55"/><circle class="cls-18" cx="500.87" cy="1367.12" r="20.55"/><circle class="cls-18" cx="512.27" cy="1391.32" r="20.55"/><circle class="cls-18" cx="545.04" cy="1388.56" r="20.55"/><circle class="cls-18" cx="538.36" cy="1365.58" r="20.55"/><circle class="cls-18" cx="546.31" cy="1350.79" r="20.55"/><circle class="cls-18" cx="560.86" cy="1367.85" r="20.55"/></g><g id="Layer_1-2-12"><path class="cls-28" d="M528.07,1994.63c2.53,22.23-3.15,38.17-15.07,49.33l41.46.25c-19.3-9.7-16.51-30.61-16.37-54.9l-6.11-6.77-3.91,12.09Z"/><circle class="cls-18" cx="517.84" cy="1941.19" r="20.55"/><circle class="cls-18" cx="504.03" cy="1961.7" r="20.55"/><circle class="cls-18" cx="515.86" cy="1985.7" r="20.55"/><circle class="cls-18" cx="548.57" cy="1982.36" r="20.55"/><circle class="cls-18" cx="541.49" cy="1959.5" r="20.55"/><circle class="cls-18" cx="549.18" cy="1944.58" r="20.55"/><circle class="cls-18" cx="564.02" cy="1961.37" r="20.55"/></g><rect class="cls-28" x="884.67" y="815.65" width="23.34" height="33.21" transform="translate(4.79 -5.13) rotate(.33)"/><polygon class="cls-18" points="892.93 702.88 937.72 748.96 853.81 749.69 892.93 702.88"/><polyline class="cls-18" points="855.32 784.76 894.44 737.95 939.23 784.04"/><polyline class="cls-18" points="855.44 821.68 894.57 774.88 939.36 820.96"/><rect class="cls-28" x="1325.05" y="1787.33" width="23.34" height="33.21" transform="translate(39.87 -28.87) rotate(1.26)"/><polygon class="cls-18" points="1335.41 1674.53 1379.45 1721.33 1295.53 1720.69 1335.41 1674.53"/><polyline class="cls-18" points="1296.48 1755.79 1336.35 1709.62 1380.39 1756.42"/><polyline class="cls-18" points="1296 1792.71 1335.88 1746.54 1379.92 1793.34"/><rect class="cls-28" x="776.19" y="769.3" width="25.57" height="36.38" transform="translate(11.27 -11.13) rotate(.81)"/><polygon class="cls-18" points="786.45 645.75 835.08 696.64 743.16 696.65 786.45 645.75"/><polyline class="cls-18" points="744.49 735.09 787.78 684.18 836.41 735.07"/><polyline class="cls-18" points="744.28 775.53 787.57 724.63 836.2 775.52"/><g id="Layer_1-2-13"><path class="cls-28" d="M546.43,3776.56c2.54,22.23-3.14,38.17-15.06,49.34l41.46.23c-19.3-9.69-16.52-30.6-16.39-54.9l-6.11-6.77-3.91,12.09Z"/><circle class="cls-18" cx="536.19" cy="3723.13" r="20.55"/><circle class="cls-18" cx="522.38" cy="3743.64" r="20.55"/><circle class="cls-18" cx="534.22" cy="3767.64" r="20.55"/><circle class="cls-18" cx="566.93" cy="3764.29" r="20.55"/><circle class="cls-18" cx="559.84" cy="3741.43" r="20.55"/><circle class="cls-18" cx="567.52" cy="3726.5" r="20.55"/><circle class="cls-18" cx="582.37" cy="3743.3" r="20.55"/></g><g id="Layer_1-2-14"><path class="cls-28" d="M546.81,4035.04c2.42,22.24-3.35,38.15-15.34,49.25l41.46.46c-19.25-9.8-16.34-30.7-16.08-54.99l-6.08-6.8-3.98,12.07Z"/><circle class="cls-18" cx="536.86" cy="3981.54" r="20.55"/><circle class="cls-18" cx="522.94" cy="4001.98" r="20.55"/><circle class="cls-18" cx="534.64" cy="4026.05" r="20.55"/><circle class="cls-18" cx="567.37" cy="4022.88" r="20.55"/><circle class="cls-18" cx="560.41" cy="3999.98" r="20.55"/><circle class="cls-18" cx="568.18" cy="3985.1" r="20.55"/><circle class="cls-18" cx="582.93" cy="4001.97" r="20.55"/></g><g id="Layer_1-2-15"><path class="cls-28" d="M544.49,4334.92c2.68,22.21-2.89,38.19-14.74,49.44l41.47-.03c-19.36-9.56-16.71-30.5-16.74-54.79l-6.16-6.73-3.83,12.12Z"/><circle class="cls-18" cx="533.9" cy="4281.55" r="20.55"/><circle class="cls-18" cx="520.23" cy="4302.16" r="20.55"/><circle class="cls-18" cx="532.22" cy="4326.08" r="20.55"/><circle class="cls-18" cx="564.91" cy="4322.51" r="20.55"/><circle class="cls-18" cx="557.67" cy="4299.7" r="20.55"/><circle class="cls-18" cx="565.26" cy="4284.73" r="20.55"/><circle class="cls-18" cx="580.22" cy="4301.42" r="20.55"/></g><path class="cls-18" d="M1222.91,2026.95s-26.88-12.63-33.34-51.88c0,0,10.54,17.5,20.53,20.82,0,0-18.29-20.17-10.14-33.62,0,0,11.53,27.72,21.59,28.66,0,0-17.64-22.59-12.96-37.87,4.68-15.29,0,0,0,0,0,0,12.63,30.14,20.28,32.18,0,0-19.1-32.14-9.95-38.96,0,0,8.36,33.56,17.2,35.64,0,0-8.03-25.82-4.71-35.81,0,0,7.17,33.52,10.71,34.23,0,0-4.51-24.51-.64-33.29,0,0,8.07,24.64,5.41,32.86l-4.04,48.58-19.93-1.55"/><path class="cls-18" d="M1261.64,2027.09s27.69-10.76,36.82-49.47c0,0-11.72,16.74-21.91,19.36,0,0,19.63-18.87,12.41-32.84,0,0-13.4,26.87-23.51,27.12,0,0,19.15-21.33,15.52-36.9-3.62-15.57,0,0,0,0,0,0-14.67,29.2-22.44,30.72,0,0,21.25-30.76,12.6-38.19,0,0-10.63,32.91-19.6,34.38,0,0,9.78-25.21,7.15-35.4,0,0-9.45,32.95-13.03,33.42,0,0,6.17-24.15,2.92-33.17,0,0-9.74,24.02-7.65,32.41l.71,48.74,19.99-.18"/><path class="cls-23" d="M1240.61,2032.58s-33.27,1.77-47.47-4.86c-14.21-6.63,17.07-17.12,17.07-17.12,0,0,25.67,8.95,36.13,6.92,10.47-2.04,21.55-13.73,31.37-6.98,9.83,6.75,25.88,16.84,19.91,23.13l-57.01-1.1Z"/><path class="cls-23" d="M1057.18,2105.12s-26.96-12.46-33.67-51.67c0,0,10.65,17.44,20.66,20.69,0,0-18.42-20.06-10.34-33.55,0,0,11.7,27.65,21.77,28.53,0,0-17.78-22.48-13.2-37.79,4.59-15.32,0,0,0,0,0,0,12.82,30.06,20.48,32.06,0,0-19.3-32.02-10.19-38.9,0,0,8.56,33.5,17.42,35.53,0,0-8.19-25.77-4.94-35.78,0,0,7.38,33.47,10.92,34.16,0,0-4.66-24.48-.85-33.29,0,0,8.22,24.58,5.61,32.83l-3.74,48.6-19.94-1.43"/><path class="cls-23" d="M1095.91,2105.02s27.62-10.93,36.51-49.7c0,0-11.61,16.81-21.79,19.5,0,0,19.51-18.99,12.21-32.92,0,0-13.23,26.95-23.34,27.26,0,0,19.02-21.44,15.29-36.99-3.72-15.55,0,0,0,0,0,0-14.48,29.29-22.25,30.86,0,0,21.06-30.89,12.36-38.26,0,0-10.43,32.97-19.38,34.5,0,0,9.62-25.27,6.94-35.45,0,0-9.24,33-12.82,33.5,0,0,6.02-24.18,2.71-33.19,0,0-9.59,24.08-7.45,32.46l1.01,48.74,19.99-.31"/><path class="cls-18" d="M1074.92,2110.64s-33.26,1.98-47.5-4.56c-14.25-6.54,16.97-17.22,16.97-17.22,0,0,25.72,8.79,36.17,6.69,10.45-2.1,21.46-13.86,31.33-7.18,9.87,6.69,25.98,16.68,20.05,23.01l-57.02-.74Z"/><path class="cls-23" d="M1430.71,3699.65s-26.98-12.42-33.75-51.61c0,0,10.68,17.42,20.69,20.65,0,0-18.45-20.03-10.4-33.54,0,0,11.74,27.63,21.82,28.49,0,0-17.82-22.45-13.26-37.77,4.56-15.32,0,0,0,0,0,0,12.87,30.04,20.54,32.02,0,0-19.35-31.99-10.26-38.88,0,0,8.62,33.49,17.48,35.51,0,0-8.23-25.76-4.99-35.77,0,0,7.43,33.46,10.98,34.15,0,0-4.7-24.48-.9-33.29,0,0,8.26,24.57,5.67,32.82l-3.66,48.61-19.95-1.4"/><path class="cls-23" d="M1469.44,3699.48s27.6-10.98,36.43-49.76c0,0-11.59,16.83-21.76,19.53,0,0,19.48-19.02,12.16-32.94,0,0-13.19,26.97-23.29,27.3,0,0,18.98-21.48,15.23-37.02-3.75-15.54,0,0,0,0,0,0-14.44,29.32-22.2,30.89,0,0,21.01-30.93,12.3-38.28,0,0-10.38,32.99-19.33,34.53,0,0,9.58-25.29,6.88-35.46,0,0-9.19,33.02-12.77,33.52,0,0,5.98-24.19,2.66-33.19,0,0-9.55,24.1-7.39,32.47l1.09,48.73,19.99-.34"/><path class="cls-18" d="M1448.46,3705.14s-33.25,2.03-47.51-4.49,16.94-17.25,16.94-17.25c0,0,25.73,8.75,36.18,6.63,10.45-2.12,21.44-13.9,31.32-7.23,9.88,6.67,26.01,16.63,20.09,22.98l-57.02-.65Z"/><path class="cls-23" d="M1118.06,3692.21s-26.96-12.46-33.67-51.67c0,0,10.65,17.44,20.66,20.69,0,0-18.42-20.06-10.34-33.55,0,0,11.7,27.65,21.77,28.53,0,0-17.78-22.48-13.2-37.79,4.59-15.32,0,0,0,0,0,0,12.82,30.06,20.48,32.06,0,0-19.3-32.02-10.19-38.9,0,0,8.56,33.5,17.42,35.53,0,0-8.19-25.77-4.94-35.78,0,0,7.38,33.47,10.92,34.16,0,0-4.66-24.48-.85-33.29,0,0,8.22,24.58,5.61,32.83l-3.74,48.6-19.94-1.43"/><path class="cls-23" d="M1156.79,3692.11s27.62-10.93,36.51-49.7c0,0-11.61,16.81-21.79,19.5,0,0,19.51-18.99,12.21-32.92,0,0-13.23,26.95-23.34,27.26,0,0,19.02-21.44,15.29-36.99-3.72-15.55,0,0,0,0,0,0-14.48,29.29-22.25,30.86,0,0,21.06-30.89,12.36-38.26,0,0-10.43,32.97-19.38,34.5,0,0,9.62-25.27,6.94-35.45,0,0-9.24,33-12.82,33.5,0,0,6.02-24.18,2.71-33.19,0,0-9.59,24.08-7.45,32.46l1.01,48.74,19.99-.31"/><path class="cls-18" d="M1135.8,3697.73s-33.26,1.98-47.5-4.56c-14.25-6.54,16.97-17.22,16.97-17.22,0,0,25.72,8.79,36.17,6.69,10.45-2.1,21.46-13.86,31.33-7.18,9.87,6.69,25.98,16.68,20.05,23.01l-57.02-.74Z"/><path class="cls-23" d="M816.83,3731.86s-27.16-12.02-34.51-51.11c0,0,10.94,17.26,21,20.35,0,0-18.74-19.75-10.89-33.38,0,0,12.15,27.46,22.23,28.17,0,0-18.15-22.18-13.81-37.57,4.34-15.39,0,0,0,0,0,0,13.31,29.85,21.01,31.72,0,0-19.82-31.7-10.83-38.72,0,0,9.11,33.36,18,35.25,0,0-8.61-25.63-5.52-35.69,0,0,7.92,33.35,11.48,33.98,0,0-5.06-24.41-1.39-33.27,0,0,8.62,24.45,6.15,32.73l-2.95,48.66-19.96-1.1"/><path class="cls-23" d="M855.56,3731.12s27.44-11.38,35.69-50.29c0,0-11.34,17-21.47,19.85,0,0,19.2-19.31,11.67-33.12,0,0-12.79,27.17-22.89,27.64,0,0,18.66-21.75,14.69-37.24-3.98-15.49,0,0,0,0,0,0-14,29.53-21.74,31.22,0,0,20.56-31.23,11.73-38.46,0,0-9.89,33.14-18.82,34.81,0,0,9.21-25.43,6.35-35.55,0,0-8.7,33.15-12.27,33.7,0,0,5.63-24.28,2.17-33.23,0,0-9.19,24.24-6.91,32.58l1.8,48.71,19.98-.63"/><path class="cls-18" d="M834.66,3737.09s-33.22,2.52-47.57-3.79c-14.35-6.31,16.68-17.5,16.68-17.5,0,0,25.86,8.37,36.28,6.1,10.42-2.27,21.23-14.21,31.21-7.69,9.98,6.53,26.25,16.25,20.43,22.68l-57.02.19Z"/><path class="cls-23" d="M750.59,2028.08s-27.22-11.89-34.75-50.95c0,0,11.02,17.21,21.09,20.25,0,0-18.84-19.66-11.05-33.33,0,0,12.28,27.4,22.37,28.06,0,0-18.25-22.1-13.99-37.51,4.26-15.41,0,0,0,0,0,0,13.45,29.78,21.15,31.62,0,0-19.97-31.61-11.01-38.67,0,0,9.27,33.32,18.16,35.16,0,0-8.73-25.59-5.69-35.67,0,0,8.08,33.31,11.64,33.93,0,0-5.17-24.38-1.55-33.26,0,0,8.74,24.41,6.3,32.7l-2.72,48.67-19.97-1.01"/><path class="cls-23" d="M789.32,2027.17s27.38-11.51,35.46-50.45c0,0-11.26,17.05-21.37,19.95,0,0,19.11-19.4,11.51-33.17,0,0-12.66,27.23-22.76,27.75,0,0,18.56-21.84,14.51-37.31-4.05-15.47,0,0,0,0,0,0-13.86,29.59-21.6,31.32,0,0,20.41-31.33,11.55-38.51,0,0-9.73,33.18-18.65,34.9,0,0,9.09-25.47,6.19-35.58,0,0-8.55,33.19-12.11,33.76,0,0,5.51-24.31,2.01-33.24,0,0-9.08,24.28-6.76,32.61l2.03,48.7,19.98-.73"/><path class="cls-18" d="M768.45,2033.23s-33.21,2.68-47.59-3.56,16.6-17.58,16.6-17.58c0,0,25.9,8.25,36.31,5.93,10.41-2.32,21.17-14.31,31.17-7.83s26.33,16.13,20.53,22.58l-57.02.46Z"/><path class="cls-18" d="M881.85,2214.65s-27.26-11.8-34.93-50.82c0,0,11.08,17.17,21.16,20.17,0,0-18.9-19.6-11.17-33.29,0,0,12.37,27.36,22.47,27.99,0,0-18.33-22.03-14.12-37.46,4.21-15.42,0,0,0,0,0,0,13.55,29.74,21.27,31.54,0,0-20.08-31.54-11.15-38.63,0,0,9.38,33.28,18.28,35.1,0,0-8.82-25.56-5.81-35.65,0,0,8.2,33.28,11.76,33.89,0,0-5.26-24.36-1.67-33.26,0,0,8.82,24.38,6.42,32.68l-2.54,48.68-19.97-.94"/><path class="cls-18" d="M920.57,2213.6s27.34-11.61,35.28-50.58c0,0-11.2,17.09-21.3,20.03,0,0,19.04-19.47,11.4-33.21,0,0-12.56,27.27-22.66,27.83,0,0,18.48-21.91,14.38-37.36-4.1-15.45,0,0,0,0,0,0-13.76,29.64-21.48,31.4,0,0,20.3-31.4,11.42-38.56,0,0-9.62,33.22-18.53,34.97,0,0,9-25.5,6.06-35.61,0,0-8.43,33.22-11.99,33.8,0,0,5.43-24.33,1.9-33.24,0,0-8.99,24.31-6.64,32.63l2.21,48.7,19.98-.8"/><path class="cls-23" d="M899.72,2219.73s-33.2,2.8-47.6-3.39c-14.4-6.19,16.54-17.63,16.54-17.63,0,0,25.93,8.16,36.33,5.8,10.4-2.36,21.11-14.39,31.14-7.94,10.03,6.44,26.38,16.03,20.61,22.51l-57.02.66Z"/><path class="cls-18" d="M1649.38,3276.25s-27.13-12.1-34.35-51.22c0,0,10.88,17.29,20.93,20.41,0,0-18.68-19.81-10.79-33.41,0,0,12.06,27.49,22.15,28.24,0,0-18.08-22.24-13.7-37.61,4.38-15.37,0,0,0,0,0,0,13.22,29.89,20.91,31.78,0,0-19.72-31.76-10.71-38.76,0,0,9.01,33.39,17.89,35.3,0,0-8.53-25.66-5.41-35.71,0,0,7.82,33.37,11.37,34.02,0,0-4.98-24.42-1.29-33.27,0,0,8.55,24.47,6.05,32.75l-3.09,48.65-19.96-1.16"/><path class="cls-18" d="M1688.11,3275.63s27.47-11.3,35.85-50.18c0,0-11.39,16.97-21.53,19.78,0,0,19.26-19.25,11.77-33.08,0,0-12.87,27.13-22.97,27.57,0,0,18.73-21.7,14.8-37.19-3.93-15.5,0,0,0,0,0,0-14.09,29.48-21.84,31.15,0,0,20.65-31.17,11.85-38.42,0,0-9.99,33.11-18.92,34.76,0,0,9.28-25.4,6.46-35.53,0,0-8.8,33.12-12.37,33.67,0,0,5.7-24.26,2.27-33.22,0,0-9.27,24.21-7.01,32.56l1.66,48.72,19.99-.57"/><path class="cls-23" d="M1667.2,3281.53s-33.23,2.42-47.56-3.93c-14.33-6.35,16.74-17.45,16.74-17.45,0,0,25.83,8.45,36.26,6.21s21.28-14.15,31.23-7.59c9.96,6.56,26.2,16.33,20.36,22.74l-57.03.02Z"/><path class="cls-18" d="M1323.29,3265.69s-27.39-11.49-35.49-50.43c0,0,11.27,17.05,21.39,19.94,0,0-19.12-19.38-11.54-33.16,0,0,12.68,27.22,22.78,27.73,0,0-18.58-21.83-14.54-37.3,4.04-15.47,0,0,0,0,0,0,13.89,29.58,21.62,31.3,0,0-20.43-31.31-11.58-38.51,0,0,9.76,33.18,18.68,34.89,0,0-9.1-25.46-6.21-35.58,0,0,8.57,33.19,12.14,33.75,0,0-5.53-24.3-2.04-33.24,0,0,9.09,24.27,6.78,32.61l-2,48.71-19.98-.71"/><path class="cls-18" d="M1361.99,3264.2s27.21-11.91,34.71-50.97c0,0-11.01,17.22-21.08,20.26,0,0,18.82-19.68,11.02-33.34,0,0-12.26,27.41-22.35,28.08,0,0,18.24-22.11,13.96-37.52-4.28-15.41,0,0,0,0,0,0-13.43,29.79-21.13,31.63,0,0,19.94-31.63,10.98-38.68,0,0-9.24,33.32-18.13,35.17,0,0,8.71-25.6,5.66-35.67,0,0-8.06,33.31-11.61,33.94,0,0,5.16-24.39,1.52-33.26,0,0-8.72,24.41-6.28,32.71l2.75,48.67,19.97-1.02"/><path class="cls-23" d="M1341.21,3270.57s-33.16,3.17-47.63-2.86c-14.47-6.03,16.34-17.82,16.34-17.82,0,0,26.02,7.87,36.39,5.39,10.37-2.47,20.95-14.62,31.05-8.29,10.1,6.33,26.56,15.74,20.86,22.28l-57.01,1.3Z"/><path class="cls-18" d="M985.21,3322.78s-27.3-11.69-35.11-50.69c0,0,11.14,17.13,21.24,20.1,0,0-18.98-19.53-11.29-33.25,0,0,12.48,27.31,22.57,27.9,0,0-18.41-21.97-14.26-37.4,4.15-15.44,0,0,0,0,0,0,13.66,29.69,21.38,31.46,0,0-20.2-31.47-11.29-38.59,0,0,9.51,33.25,18.41,35.03,0,0-8.91-25.53-5.95-35.62,0,0,8.32,33.25,11.88,33.84,0,0-5.35-24.34-1.79-33.25,0,0,8.91,24.34,6.54,32.66l-2.36,48.69-19.98-.86"/><path class="cls-18" d="M1023.93,3321.58s27.3-11.71,35.09-50.71c0,0-11.13,17.13-21.23,20.11,0,0,18.97-19.54,11.27-33.25,0,0-12.46,27.32-22.56,27.91,0,0,18.4-21.97,14.24-37.41-4.16-15.44,0,0,0,0,0,0-13.65,29.69-21.37,31.47,0,0,20.18-31.47,11.27-38.6,0,0-9.49,33.25-18.4,35.04,0,0,8.9-25.53,5.93-35.63,0,0-8.31,33.25-11.87,33.85,0,0,5.34-24.35,1.77-33.25,0,0-8.9,24.35-6.52,32.66l2.39,48.69,19.98-.87"/><path class="cls-23" d="M1003.1,3327.79s-33.19,2.92-47.61-3.22,16.47-17.7,16.47-17.7c0,0,25.96,8.06,36.35,5.67,10.39-2.39,21.06-14.47,31.11-8.06,10.05,6.41,26.44,15.93,20.7,22.43l-57.02.87Z"/><path class="cls-18" d="M657.8,3351.05s-27.17-12-34.54-51.09c0,0,10.95,17.25,21.01,20.33,0,0-18.76-19.74-10.91-33.37,0,0,12.17,27.45,22.25,28.16,0,0-18.16-22.17-13.84-37.56,4.33-15.39,0,0,0,0,0,0,13.33,29.84,21.03,31.7,0,0-19.84-31.69-10.85-38.72,0,0,9.13,33.35,18.02,35.23,0,0-8.62-25.63-5.54-35.69,0,0,7.94,33.34,11.5,33.97,0,0-5.07-24.4-1.41-33.27,0,0,8.64,24.44,6.17,32.73l-2.91,48.66-19.96-1.09"/><path class="cls-18" d="M696.52,3350.29s27.43-11.4,35.66-50.31c0,0-11.33,17.01-21.45,19.86,0,0,19.19-19.32,11.65-33.12,0,0-12.77,27.17-22.87,27.66,0,0,18.65-21.76,14.66-37.25-3.99-15.48,0,0,0,0,0,0-13.98,29.54-21.72,31.23,0,0,20.54-31.24,11.71-38.47,0,0-9.87,33.14-18.79,34.83,0,0,9.19-25.43,6.33-35.56,0,0-8.68,33.16-12.25,33.71,0,0,5.61-24.28,2.15-33.23,0,0-9.18,24.24-6.89,32.58l1.84,48.71,19.98-.65"/><path class="cls-23" d="M675.63,3356.26s-33.22,2.54-47.57-3.76c-14.36-6.3,16.67-17.51,16.67-17.51,0,0,25.87,8.36,36.28,6.08,10.42-2.28,21.22-14.23,31.2-7.71,9.98,6.52,26.26,16.23,20.44,22.67l-57.02.23Z"/><path class="cls-18" d="M927.8,1969.6s-26.98-12.42-33.74-51.62c0,0,10.68,17.42,20.69,20.66,0,0-18.45-20.03-10.39-33.54,0,0,11.74,27.64,21.81,28.5,0,0-17.82-22.45-13.25-37.77,4.57-15.32,0,0,0,0,0,0,12.86,30.04,20.53,32.03,0,0-19.34-32-10.25-38.88,0,0,8.61,33.49,17.47,35.51,0,0-8.22-25.76-4.99-35.77,0,0,7.42,33.46,10.97,34.15,0,0-4.69-24.48-.9-33.29,0,0,8.26,24.57,5.66,32.82l-3.67,48.61-19.95-1.4"/><path class="cls-18" d="M966.53,1969.44s27.6-10.97,36.44-49.75c0,0-11.59,16.83-21.76,19.53,0,0,19.49-19.02,12.16-32.94,0,0-13.19,26.97-23.3,27.3,0,0,18.99-21.47,15.24-37.01-3.74-15.54,0,0,0,0,0,0-14.44,29.31-22.21,30.89,0,0,21.02-30.92,12.31-38.28,0,0-10.38,32.99-19.33,34.53,0,0,9.58-25.29,6.88-35.46,0,0-9.2,33.02-12.77,33.52,0,0,5.99-24.19,2.67-33.19,0,0-9.55,24.1-7.4,32.47l1.08,48.73,19.99-.34"/><path class="cls-23" d="M945.55,1975.09s-33.25,2.03-47.51-4.5c-14.26-6.52,16.94-17.25,16.94-17.25,0,0,25.73,8.76,36.18,6.64,10.45-2.11,21.44-13.89,31.32-7.22,9.88,6.67,26.01,16.64,20.09,22.98l-57.02-.66Z"/><rect class="cls-35" x="1584.2" y="4143.63" width="328.51" height="62.02" rx="13.01" ry="13.01" transform="translate(5924.37 2429.26) rotate(90.04)"/><rect class="cls-24" x="1750.93" y="4332.22" width="28.57" height="82.81" rx="10.28" ry="10.28" transform="translate(6140.13 2611.63) rotate(90.04)"/><rect class="cls-24" x="1751.23" y="3931.8" width="28.57" height="82.81" rx="10.28" ry="10.28" transform="translate(5740.01 2210.62) rotate(90.04)"/><rect class="cls-24" x="1724.46" y="4029.55" width="18.92" height="53.32" rx="4.34" ry="4.34"/><rect class="cls-24" x="1724.41" y="4090.67" width="18.92" height="53.32" rx="4.34" ry="4.34"/><rect class="cls-24" x="1724.37" y="4152.51" width="18.92" height="53.32" rx="4.34" ry="4.34"/><rect class="cls-24" x="1724.32" y="4212.11" width="18.92" height="53.32" rx="4.34" ry="4.34"/><rect class="cls-24" x="1724.23" y="4270.18" width="18.92" height="53.32" rx="4.34" ry="4.34"/><path class="cls-24" d="M1190.27,2495.23l-9.07-15.26c-.4-.67-1.11-1.08-1.89-1.1l-6.94-.12.12-7.09,3.19.05c2.57.04,4.69-2.01,4.74-4.58s-2.01-4.69-4.58-4.74l-3.19-.05.07-4.37,3.23.06c2.57.04,4.69-2.01,4.74-4.58.04-2.57-2.01-4.69-4.58-4.74l-68.32-1.17c-2.57-.04-4.69,2.01-4.74,4.58-.04,2.57,2.01,4.69,4.58,4.74l1.45.02-.07,4.37-1.49-.03c-2.57-.04-4.69,2.01-4.74,4.58-.04,2.57,2.01,4.69,4.58,4.74l1.49.03-.12,7.09-5.06-.09c-.77-.01-1.48.37-1.91,1l-9.87,14.94c-.51.77-.46,1.67-.05,2.37l-.45,26.19,2.19.04.43-25.12,8.38.14-.15,9.01,2.19.04.15-9.01,73.42,1.25-.16,9.34,2.19.04.16-9.34,7.94.14-.44,25.57,2.19.04.46-26.82c.34-.65.37-1.45-.05-2.17ZM1111.27,2456.93l59.27,1.01-.07,4.37-59.27-1.01.07-4.37ZM1111.04,2470.62l59.27,1.01-.12,7.09-59.27-1.01.12-7.09Z"/><circle class="cls-8" cx="1111.11" cy="4547.51" r="52.49"/><text class="cls-25" transform="translate(1091.79 4575.18) rotate(.33)"><tspan x="0" y="0">P</tspan></text><rect class="cls-13" x="1038.51" y="4428.34" width="144.82" height="51.28" rx="25.64" ry="25.64" transform="translate(25.4 -6.26) rotate(.33)"/><text class="cls-14" transform="translate(1066.12 4463.09) rotate(.33)"><tspan class="cls-31" x="0" y="0">P</tspan><tspan x="14.67" y="0">arking</tspan></text><circle class="cls-8" cx="1503.07" cy="1172.24" r="61.71"/><path class="cls-26" d="M1532.75,1176.62c-.75-.02-1.48.04-2.2.15l-14.86-19.1,1.45-4.64c2.67.29,4.78.77,4.78.77.93.04,3.09-1.78,2.22-4.08-.83-2.2-3.4-.78-5.56.02-2.15.81-7.83-.17-7.83-.17-.33-.43-7.76.71-6.18,2.43,1.22,1.34,5.39,1.11,5.39,1.11,1.5-.32,3.29-.36,5.02-.27l-1.13,3.63-32.08-.62,2.25-6.64.07-.22-.03-.23c-.25-2.29.02-5.92,1.42-6.42,2.48-.89,5.61-.07,5.64-.06l.55-2.03c-.15-.04-3.8-1.01-6.91.11-3.27,1.18-2.95,6.99-2.82,8.4l-2.39,7.06-.91-.02.67.75-6.23,18.44c-.58-.1-1.18-.15-1.78-.17-6.88-.15-12.58,5.31-12.72,12.19-.15,6.88,5.31,12.58,12.19,12.72,6.88.15,12.58-5.31,12.72-12.19.12-5.54-3.4-10.31-8.36-12.03l5.8-17.15,21.47,24.15c-.44.67-.71,1.47-.73,2.33-.05,2.44,1.88,4.45,4.32,4.51,2.4.05,4.38-1.82,4.5-4.2l10.42-.67c-.53,1.34-.84,2.79-.87,4.32-.15,6.88,5.31,12.58,12.19,12.72,6.88.15,12.58-5.31,12.72-12.19.15-6.88-5.31-12.58-12.19-12.72ZM1513.27,1158.58l-7.2,21.96c-.77,0-1.5.2-2.13.55l-20.52-23.08,29.85.57ZM1510.07,1183.07c-.41-.87-1.09-1.58-1.94-2.03l6.84-20.87,13.36,17.16c-2.6.92-4.82,2.69-6.3,4.98l-11.95.76Z"/><circle class="cls-8" cx="1826.5" cy="4516.04" r="61.71"/><path class="cls-26" d="M1856.15,4520.63c-.75-.02-1.48.03-2.2.13l-14.73-19.2,1.48-4.63c2.67.31,4.78.8,4.78.8.93.05,3.1-1.76,2.25-4.07-.81-2.2-3.4-.81-5.56-.02-2.16.79-7.83-.22-7.83-.22-.33-.43-7.76.65-6.2,2.39,1.21,1.35,5.38,1.15,5.38,1.15,1.5-.31,3.29-.33,5.02-.23l-1.16,3.62-32.08-.85,2.29-6.63.08-.22-.02-.23c-.24-2.29.07-5.92,1.46-6.41,2.48-.87,5.61-.02,5.64-.02l.57-2.03c-.15-.04-3.79-1.04-6.91.06-3.28,1.16-3,6.97-2.88,8.38l-2.44,7.04-.91-.02.66.75-6.37,18.39c-.58-.1-1.18-.16-1.78-.18-6.88-.2-12.62,5.22-12.81,12.1s5.22,12.62,12.1,12.81c6.88.2,12.62-5.22,12.81-12.1.16-5.54-3.32-10.33-8.27-12.09l5.92-17.1,21.29,24.31c-.45.67-.72,1.46-.75,2.33-.07,2.44,1.85,4.47,4.29,4.54,2.4.07,4.4-1.79,4.53-4.17l10.42-.59c-.54,1.34-.86,2.79-.9,4.31-.2,6.88,5.22,12.62,12.1,12.81,6.88.2,12.62-5.22,12.81-12.1.2-6.88-5.22-12.62-12.1-12.81ZM1836.8,4502.45l-7.36,21.9c-.77,0-1.5.19-2.14.54l-20.35-23.23,29.85.79ZM1833.42,4526.92c-.4-.87-1.08-1.59-1.93-2.05l6.99-20.82,13.23,17.25c-2.61.91-4.84,2.66-6.34,4.93l-11.96.68Z"/><g id="Layer_1-2-16"><circle class="cls-8" cx="1824.01" cy="4156.98" r="61.5"/><path class="cls-19" d="M1851.17,4162.75l-11.18-47.3h-19.94v.04h-9.84l-11.18,47.3s-8.6,17.2-5.16,28.39c.86,2.79,2.36,5.8,4.13,8.74l53.73.73c1.97-3.18,3.67-6.47,4.6-9.51,3.44-11.18-5.16-28.38-5.16-28.38h0ZM1811.64,4121.4h8.76v-.03h17.73l.71,3.01h-27.91l.71-2.98h0ZM1809.88,4128.84h30.01l.83,3.5h-31.67l.83-3.5ZM1808,4136.78h33.77l.97,4.11h-35.71l.97-4.11ZM1805.98,4145.34h37.81l.94,3.94h-39.69l.94-3.94h0ZM1804,4153.74h41.79l1.17,4.96h-44.12l1.17-4.96h0ZM1801.7,4163.46l.08-.31h46.23l.07.29s.93,1.84,2,4.67h-50.35c1.07-2.81,1.99-4.63,1.99-4.63h0ZM1798.2,4172.55h53.38c.38,1.31.75,2.69,1.04,4.11h-55.46c.3-1.42.66-2.8,1.04-4.11h0ZM1849.37,4195.79h-48.98c-.86-1.48-1.65-2.97-2.28-4.43h53.54c-.63,1.46-1.42,2.95-2.28,4.43h0ZM1853.08,4186.9h-56.4c-.33-1.84-.36-3.81-.19-5.8h56.79c.17,1.99.13,3.96-.2,5.8Z"/><path class="cls-33" d="M1845.51,4158.8l-5.57-18.41c-.12-.42-.5-.7-.94-.7h-7.46c-.13,0-.27-.02-.42-.03l-4.11-.02c3.98-.84,6.97-4.37,6.97-8.6,0-4.86-3.94-8.8-8.8-8.8s-8.8,3.94-8.8,8.8c0,4.33,3.13,7.93,7.25,8.65l-4.21.02c-.27,0-.53.04-.77.1h-7.45c-.43,0-.81.29-.94.7l-5.57,18.41c-.2.64.3,1.28.96,1.27l3.27-.08c.44-.01.82-.31.93-.73l3.92-15.19c.11-.43.5-.73.95-.73h1.02l-4.66,17.28c-.36,1.34.45,2.66,1.71,3.02l-1.67,8.5c-.24,1.19-.21,2.42.08,3.6l4.17,17.1c.31,1.3,1.48,2.2,2.82,2.2l2.73-.02c1.35-.01,2.33-1.28,1.99-2.59l-4.36-16.95c-.27-1.05-.28-2.15-.04-3.21l1.97-8.54h5.05v-.05h3.67l1.99,8.59c.25,1.05.23,2.16-.04,3.21l-4.36,16.95c-.34,1.31.65,2.58,1.99,2.59l2.73.02c1.33.01,2.5-.9,2.82-2.2l4.17-17.1c.29-1.18.31-2.41.08-3.6l-1.69-8.63c1.54-.52,2.52-2.16,2.07-3.85l-4.43-16.46h.94c.45,0,.84.3.95.73l3.92,15.19c.11.43.49.72.93.73l3.27.08c.67.02,1.16-.63.96-1.27h.02Z"/></g><path class="cls-24" d="M549.87,1642.13c-6.77-4.77-19.78,1.47-24.77,4.19l.12-6.85c.9-.83,1.48-2.01,1.5-3.33.05-2.57-2-4.7-4.58-4.74s-4.7,2-4.74,4.58c-.03,1.42.6,2.69,1.59,3.56l-1.9,106.44c-.97.84-1.61,2.05-1.63,3.44-.05,2.57,2,4.7,4.58,4.74,2.57.05,4.7-2,4.74-4.58.02-1.36-.55-2.58-1.46-3.45l1.24-69.34c4.57-4.04,15.88-12.31,23.84-3.68,9.96,10.8,26.72-1.36,26.72-1.36l1.15-30.05c-7.42,3.24-17.91,6.43-26.4.45Z"/><path class="cls-24" d="M525.35,1731.37c-6.85-4.66-19.75,1.8-24.7,4.6v-6.85c.9-.85,1.46-2.04,1.46-3.36,0-2.57-2.08-4.67-4.66-4.67-2.58,0-4.67,2.08-4.67,4.66,0,1.42.65,2.68,1.65,3.53l-.15,106.45c-.96.85-1.57,2.08-1.58,3.46,0,2.57,2.08,4.67,4.66,4.67s4.67-2.08,4.67-4.66c0-1.36-.59-2.57-1.52-3.43l.1-69.35c4.51-4.11,15.67-12.57,23.78-4.07,10.14,10.63,26.69-1.8,26.69-1.8l.66-30.07c-7.37,3.36-17.8,6.73-26.39.88Z"/><path class="cls-24" d="M1546.69,1338.1c-6.9-4.58-19.73,2.03-24.64,4.89l-.07-6.85c.88-.86,1.42-2.05,1.41-3.38-.03-2.57-2.14-4.64-4.71-4.61-2.58.03-4.64,2.14-4.61,4.71.01,1.42.68,2.67,1.69,3.51l1.1,106.45c-.95.86-1.55,2.1-1.54,3.48.03,2.57,2.14,4.64,4.71,4.61,2.58-.03,4.64-2.14,4.61-4.71-.01-1.36-.62-2.57-1.56-3.41l-.72-69.35c4.46-4.17,15.52-12.76,23.73-4.35,10.26,10.51,26.67-2.12,26.67-2.12l.3-30.07c-7.33,3.45-17.72,6.93-26.37,1.19Z"/><path class="cls-24" d="M1501.27,1484.12c-6.83-4.68-19.76,1.74-24.71,4.53l.03-6.85c.89-.84,1.45-2.03,1.46-3.35.01-2.57-2.07-4.67-4.64-4.68-2.58-.01-4.67,2.07-4.68,4.64,0,1.42.64,2.68,1.64,3.54l-.45,106.45c-.96.85-1.58,2.08-1.59,3.46-.01,2.57,2.07,4.67,4.64,4.68,2.58.01,4.67-2.07,4.68-4.64,0-1.36-.58-2.58-1.51-3.43l.3-69.35c4.52-4.1,15.71-12.53,23.79-4,10.11,10.66,26.7-1.73,26.7-1.73l.74-30.06c-7.38,3.34-17.82,6.67-26.39.81Z"/><path class="cls-1" d="M1626.47,2568.23l-7.86-19.28,30.46-12.42,2.43,5.96-25.16,10.26,5.43,13.32-5.31,2.17Z"/><path class="cls-1" d="M1648.12,2562.7c1,.95,1.97,2.16,2.93,3.63.96,1.47,1.79,3.08,2.5,4.82.62,1.51.95,2.84,1,4.01.05,1.16-.14,2.18-.56,3.05-.43.87-1.05,1.61-1.88,2.24-.83.62-1.82,1.17-2.98,1.65-1.28.52-2.58,1-3.91,1.44-1.33.44-2.62.91-3.87,1.4-1.25.49-2.45,1.02-3.59,1.59-1.14.57-2.16,1.24-3.06,2.01l-1.88-4.61,2.63-2.14-.09-.22c-1.14-.21-2.24-.7-3.31-1.47-1.07-.76-1.94-1.96-2.6-3.58-.41-1.02-.63-1.99-.66-2.93-.03-.94.12-1.81.46-2.62.33-.81.81-1.53,1.45-2.17s1.44-1.14,2.39-1.53c1.33-.54,2.58-.71,3.74-.48,1.16.22,2.25.78,3.27,1.66,1.02.88,1.96,2.06,2.81,3.52.85,1.46,1.62,3.17,2.32,5.12,1.71-.46,2.83-1.05,3.36-1.78.53-.73.49-1.84-.12-3.35-.46-1.13-1.07-2.28-1.81-3.45s-1.47-2.08-2.18-2.74l3.67-3.07ZM1634.86,2576.49c.46,1.13,1.08,1.93,1.86,2.39.78.46,1.52.73,2.23.81l2.83-1.15c-.28-.94-.62-1.8-1.01-2.61-.4-.8-.83-1.48-1.29-2.04-.46-.55-.96-.95-1.49-1.17-.53-.22-1.09-.22-1.67.02-.81.33-1.35.83-1.6,1.49-.26.66-.21,1.41.13,2.26Z"/><path class="cls-1" d="M1657.82,2598.08c-.05-1.03-.22-1.91-.52-2.63-.41-1.02-1.03-1.75-1.84-2.22-.82-.46-1.69-.64-2.63-.53l-14.06,5.73-2.31-5.66,21.76-8.87,1.79,4.4-2.61,1.82.07.17c1.27.06,2.37.38,3.3.99.92.6,1.62,1.47,2.08,2.6.31.76.5,1.68.57,2.76l-5.61,1.43Z"/><path class="cls-1" d="M1664.05,2613.36c-.05-1.03-.22-1.91-.52-2.63-.41-1.02-1.03-1.75-1.84-2.22-.82-.46-1.69-.64-2.63-.53l-14.06,5.73-2.31-5.66,21.76-8.87,1.79,4.39-2.61,1.82.07.17c1.27.06,2.37.39,3.3.99s1.62,1.47,2.08,2.6c.31.75.5,1.68.57,2.76l-5.61,1.42Z"/><path class="cls-1" d="M1661.69,2627.37l-3.08,2.17.11.26,3.67-.84,13.54-1.66,2.38,5.83-22.32,1.39c-1.85.11-3.55.19-5.11.23-1.56.04-2.95-.04-4.19-.25-1.24-.21-2.27-.57-3.11-1.09-.84-.52-1.46-1.29-1.88-2.31-.61-1.51-.86-2.81-.73-3.91l4.95-.8c0,.51.09.98.27,1.41.27.67.82,1.2,1.64,1.59s2.04.45,3.64.16l18.05-17.97,2.77,6.79-10.6,8.99Z"/><path class="cls-1" d="M1669.18,2672.99l-7.86-19.28,30.46-12.42,2.43,5.96-25.15,10.26,5.43,13.32-5.31,2.17Z"/><path class="cls-1" d="M1690.83,2667.46c1,.95,1.97,2.16,2.93,3.63.96,1.47,1.79,3.08,2.5,4.82.62,1.51.95,2.84,1,4.01.05,1.16-.13,2.18-.56,3.04s-1.05,1.61-1.88,2.24-1.82,1.17-2.98,1.65c-1.28.52-2.58,1-3.91,1.44-1.33.44-2.62.91-3.87,1.4-1.25.49-2.45,1.02-3.59,1.59-1.14.57-2.16,1.24-3.06,2.01l-1.88-4.61,2.63-2.14-.09-.22c-1.14-.21-2.24-.7-3.31-1.47-1.07-.76-1.94-1.96-2.6-3.58-.41-1.02-.63-1.99-.66-2.93s.12-1.81.45-2.62.81-1.53,1.45-2.17,1.44-1.14,2.39-1.54c1.33-.54,2.58-.71,3.74-.48,1.16.22,2.25.78,3.27,1.66s1.96,2.06,2.81,3.53c.85,1.46,1.62,3.17,2.32,5.12,1.71-.46,2.83-1.05,3.36-1.78.53-.72.49-1.84-.12-3.35-.46-1.13-1.07-2.28-1.81-3.45-.75-1.17-1.47-2.08-2.18-2.74l3.67-3.07ZM1677.57,2681.24c.46,1.13,1.08,1.93,1.86,2.39.78.46,1.53.73,2.24.81l2.83-1.15c-.28-.94-.62-1.8-1.01-2.61-.4-.8-.83-1.48-1.29-2.04-.46-.56-.96-.95-1.49-1.17-.53-.22-1.09-.22-1.67.02-.81.33-1.35.83-1.6,1.49-.25.66-.21,1.41.13,2.26Z"/><path class="cls-1" d="M1694.39,2712.91c-1.22.5-2.43,1.01-3.64,1.53-1.21.53-2.5,1.21-3.89,2.04l-1.65-4.05,2.51-1.94-.07-.17c-1.25-.17-2.41-.67-3.48-1.5-1.07-.83-1.9-1.99-2.51-3.47-1.11-2.73-1.08-5.21.11-7.45,1.18-2.24,3.69-4.14,7.52-5.71,3.71-1.51,6.94-1.85,9.69-1.01,2.75.84,4.78,2.89,6.11,6.14.37.9.62,1.66.75,2.28s.21,1.27.21,1.95l8.83-3.6,2.31,5.66-22.81,9.3ZM1686.98,2704.71c.45,1.1,1.07,1.86,1.87,2.28.8.42,1.76.55,2.88.4l9.23-3.76c.15-.54.21-1.08.17-1.64-.04-.56-.22-1.23-.54-2.01-.65-1.6-1.68-2.57-3.07-2.93-1.4-.36-3.4,0-6.02,1.06-1.86.76-3.22,1.69-4.08,2.81-.87,1.11-1.01,2.38-.43,3.8Z"/><path class="cls-1" d="M1703.95,2736.37c-1.22.5-2.43,1.01-3.64,1.53-1.21.53-2.5,1.21-3.89,2.04l-1.65-4.05,2.51-1.94-.07-.17c-1.25-.17-2.41-.67-3.48-1.5-1.07-.83-1.9-1.99-2.51-3.47-1.11-2.73-1.08-5.21.11-7.45,1.18-2.24,3.69-4.14,7.52-5.71,3.71-1.51,6.94-1.85,9.69-1.01,2.75.84,4.78,2.89,6.11,6.14.37.9.62,1.66.75,2.28.13.62.21,1.27.21,1.95l8.83-3.6,2.31,5.66-22.81,9.3ZM1696.55,2728.17c.45,1.1,1.07,1.86,1.87,2.28.8.42,1.76.55,2.88.4l9.23-3.76c.15-.54.21-1.08.17-1.64-.04-.56-.22-1.23-.54-2.01-.65-1.6-1.68-2.57-3.07-2.93-1.4-.36-3.4,0-6.02,1.06-1.86.76-3.22,1.69-4.08,2.81-.87,1.11-1.01,2.38-.43,3.8Z"/><path class="cls-1" d="M1736.19,2765.4l-3.62-8.88-25.16,10.26-2.43-5.96,25.16-10.26-3.64-8.92,5.31-2.17,9.69,23.76-5.31,2.17Z"/><path class="cls-1" d="M1731.73,2779.35c-.05-1.03-.22-1.91-.52-2.63-.41-1.02-1.03-1.75-1.84-2.22s-1.69-.64-2.62-.53l-14.06,5.73-2.31-5.66,21.76-8.87,1.79,4.39-2.61,1.82.07.17c1.27.06,2.37.39,3.3.99s1.62,1.47,2.08,2.6c.31.75.5,1.68.57,2.76l-5.61,1.42Z"/><path class="cls-1" d="M1737.05,2780.83c1,.95,1.97,2.16,2.93,3.63.96,1.47,1.79,3.08,2.5,4.82.62,1.51.95,2.84,1,4.01.05,1.16-.13,2.18-.56,3.04s-1.05,1.61-1.88,2.24-1.82,1.17-2.98,1.65c-1.28.52-2.58,1-3.91,1.44s-2.62.91-3.87,1.4c-1.25.49-2.45,1.02-3.59,1.59-1.14.57-2.16,1.24-3.06,2.01l-1.88-4.61,2.63-2.14-.09-.22c-1.14-.21-2.24-.7-3.31-1.47-1.07-.76-1.94-1.96-2.6-3.58-.41-1.02-.63-1.99-.66-2.93s.12-1.81.45-2.62c.33-.81.81-1.53,1.45-2.17s1.44-1.14,2.39-1.54c1.33-.54,2.58-.71,3.74-.48s2.25.78,3.27,1.66c1.02.89,1.96,2.06,2.81,3.53.85,1.46,1.62,3.17,2.32,5.12,1.71-.46,2.83-1.05,3.36-1.78.53-.72.49-1.84-.12-3.35-.46-1.13-1.07-2.28-1.81-3.45-.75-1.17-1.47-2.08-2.18-2.74l3.67-3.07ZM1723.79,2794.61c.46,1.13,1.08,1.93,1.86,2.39.78.46,1.52.73,2.24.81l2.83-1.15c-.28-.94-.62-1.8-1.01-2.61-.4-.8-.83-1.48-1.29-2.04-.46-.56-.96-.95-1.49-1.17-.53-.22-1.09-.22-1.67.02-.81.33-1.35.83-1.6,1.49-.25.66-.21,1.41.13,2.26Z"/><path class="cls-1" d="M1747.38,2802.56l2.31,5.66-21.76,8.87-2.31-5.66,21.76-8.87ZM1753.18,2799.23c.84-.34,1.69-.32,2.54.06s1.5,1.12,1.95,2.23c.45,1.1.52,2.12.2,3.04-.32.92-.9,1.56-1.74,1.9-.84.34-1.68.29-2.53-.16-.84-.45-1.49-1.23-1.94-2.33-.45-1.1-.52-2.08-.21-2.94.31-.86.89-1.45,1.73-1.8Z"/><path class="cls-1" d="M1739.87,2825.46c-1.02.41-1.7.85-2.06,1.3-.36.45-.42.96-.18,1.55.14.35.31.68.5.99.2.31.49.67.9,1.08l-4.19,2.42c-.42-.37-.94-.99-1.57-1.85-.62-.86-1.14-1.8-1.55-2.82-.67-1.65-.8-3.07-.39-4.26.41-1.18,1.51-2.14,3.28-2.86l26.11-10.65,2.31,5.66-23.15,9.44Z"/><rect class="cls-13" x="1684.56" y="3345.61" width="258.29" height="57.67" rx="28.83" ry="28.83" transform="translate(-3.45 1.85) rotate(-.06)"/><text class="cls-14" transform="translate(1708.98 3382.63) rotate(-.06)"><tspan class="cls-29" x="0" y="0">L</tspan><tspan x="13.92" y="0">arr</tspan><tspan class="cls-30" x="46.84" y="0">y</tspan><tspan x="58.88" y="0"> </tspan><tspan class="cls-29" x="66.36" y="0">L</tspan><tspan x="80.27" y="0">add Bridge</tspan></text><g id="objects"><circle class="cls-10" cx="1815.77" cy="3486.45" r="61.5"/><path class="cls-16" d="M1761.99,3475.16l6.74,17-2.18,16.49h0c16.82-4.89,33.63-7.8,51.4-9.45,15.11-1.4,36.19-2.45,52-1.46l.07.22-5.79-15.67,3.02-18.03-3.09,17.84c-14.6-.91-34.05.06-47.99,1.35-16.4,1.52-31.91,4.2-47.44,8.72"/><path class="cls-21" d="M1761.99,3475.16c1.81,4.24,5.27,12.71,7.03,16.96-.03.07-1.95,16.52-1.97,16.6l-.64-.55c25.08-7.62,51.3-10.62,77.41-11.61,8.95-.3,17.92-.38,26.89.17l.23.67.07.22-1.97.69-5.78-15.67-.09-.26.05-.27,3.04-18.03,1.99.34-3.15,17.82-.15.83c-4.26-.29-8.54-.43-12.82-.46-16.02-.07-32.07.76-47.98,2.68-11.95,1.42-23.79,3.7-35.41,6.84,11.51-3.59,23.35-6.11,35.28-7.87,19.94-2.63,40.09-4.07,60.21-3.14l-.99.78,3.02-17.85,1.99.34-2.99,18.04-.05-.53,5.8,15.67-1.97.69-.07-.22.92.71c-17.29-.96-34.73-.08-51.99,1.34-17.29,1.5-34.49,4.29-51.21,9.01l-.75.21.11-.76,2.4-16.47.02.14c-1.61-4.25-4.9-12.83-6.48-17.1h0Z"/><path class="cls-21" d="M1759.28,3490.27c36.42-12.4,75.63-15.31,113.77-11.38-19.12-.3-38.28-.22-57.31,1.6-19.04,1.85-37.85,5.28-56.46,9.78h0Z"/><path class="cls-21" d="M1759.24,3490.23c1.97,2.73,3.37,5.73,4.63,8.82,1.21,3.11,2.25,6.25,2.68,9.59-1.98-2.73-3.37-5.73-4.63-8.82-1.21-3.11-2.24-6.25-2.68-9.59h0Z"/><path class="cls-21" d="M1776.53,3485.82c1.83,2.79,3.08,5.81,4.17,8.92,1.05,3.12,1.93,6.28,2.19,9.6-1.84-2.78-3.08-5.81-4.17-8.92-1.04-3.13-1.92-6.28-2.19-9.6h0Z"/><path class="cls-21" d="M1796.04,3482.61c1.46,2.84,2.31,5.85,3.01,8.93.65,3.09,1.11,6.18.96,9.37-1.46-2.84-2.31-5.85-3.01-8.93-.64-3.09-1.11-6.18-.96-9.37h0Z"/><path class="cls-21" d="M1815.84,3480.15c1.17,2.96,1.71,6.02,2.08,9.13.33,3.12.48,6.23,0,9.36-1.17-2.96-1.71-6.02-2.08-9.13-.33-3.12-.47-6.23,0-9.36h0Z"/><path class="cls-21" d="M1759.24,3490.23c4.35,1.63,8.39,3.81,12.36,6.15,3.95,2.38,7.79,4.9,11.28,7.95-4.35-1.62-8.39-3.81-12.36-6.15-3.95-2.39-7.79-4.9-11.28-7.95h0Z"/><path class="cls-21" d="M1776.86,3486.01c4.22,1.74,8.12,4.02,11.95,6.46,3.8,2.48,7.49,5.09,10.81,8.22-4.23-1.73-8.12-4.02-11.95-6.46-3.8-2.48-7.49-5.09-10.81-8.22h0Z"/><path class="cls-21" d="M1796.27,3482.77c4.08,1.96,7.8,4.45,11.44,7.09,3.61,2.68,7.11,5.48,10.2,8.79-4.08-1.96-7.8-4.45-11.44-7.09-3.61-2.68-7.11-5.48-10.2-8.79h0Z"/><path class="cls-21" d="M1873.32,3478.45c.28,3.36-.07,6.65-.6,9.94-.57,3.29-1.31,6.51-2.67,9.59-.28-3.36.07-6.65.6-9.94.58-3.29,1.32-6.51,2.67-9.59h0Z"/><path class="cls-21" d="M1855.5,3477.77c.44,3.3.24,6.57-.12,9.85-.41,3.27-1,6.49-2.2,9.59-.44-3.31-.25-6.57.12-9.85.42-3.27,1-6.49,2.2-9.59h0Z"/><path class="cls-21" d="M1835.77,3478.69c.82,3.09,1.01,6.21,1.04,9.36-.03,3.15-.23,6.28-1.06,9.36-.82-3.09-1.02-6.2-1.04-9.36.03-3.15.23-6.28,1.06-9.36h0Z"/><path class="cls-21" d="M1873.32,3478.45c-2.78,3.72-6,6.99-9.36,10.15-3.39,3.13-6.88,6.11-10.79,8.61,2.77-3.72,6-6.99,9.36-10.15,3.4-3.12,6.89-6.11,10.79-8.61h0Z"/><path class="cls-21" d="M1855.22,3478.02c-2.59,3.76-5.65,7.09-8.84,10.31-3.23,3.19-6.56,6.24-10.32,8.82,2.59-3.76,5.65-7.09,8.84-10.31,3.23-3.19,6.56-6.24,10.32-8.82h0Z"/><path class="cls-21" d="M1835.59,3478.89c-2.33,3.87-5.16,7.35-8.13,10.73-3,3.35-6.12,6.57-9.69,9.34,2.33-3.88,5.15-7.35,8.13-10.73,3.01-3.34,6.12-6.56,9.69-9.34h0Z"/><path class="cls-21" d="M1762.02,3475.19c33.58-11.56,69.81-14.23,105-10.5-17.65-.22-35.33-.12-52.89,1.55-17.58,1.71-34.93,4.86-52.12,8.95h0Z"/><path class="cls-21" d="M1777.97,3471.12c1.75,2.55,2.91,5.33,3.93,8.2.97,2.89,1.76,5.81,1.94,8.89-1.75-2.55-2.92-5.33-3.93-8.2-.97-2.89-1.76-5.81-1.94-8.89h0Z"/><path class="cls-21" d="M1795.95,3468.12c1.41,2.6,2.21,5.37,2.86,8.22.59,2.86,1.01,5.72.8,8.67-1.41-2.6-2.21-5.37-2.86-8.22-.59-2.86-1.01-5.72-.8-8.67h0Z"/><path class="cls-21" d="M1814.22,3465.85c1.13,2.71,1.65,5.54,2,8.42.3,2.89.43,5.75-.08,8.66-1.14-2.71-1.65-5.54-2-8.42-.3-2.89-.42-5.75.08-8.66h0Z"/><path class="cls-21" d="M1762.02,3475.19c4.04,1.44,7.78,3.45,11.45,5.61,3.65,2.2,7.19,4.54,10.38,7.41-4.04-1.44-7.78-3.44-11.45-5.61-3.65-2.2-7.19-4.54-10.38-7.41h0Z"/><path class="cls-21" d="M1778.28,3471.29c3.93,1.55,7.53,3.64,11.07,5.89,3.51,2.29,6.91,4.71,9.93,7.65-3.93-1.54-7.54-3.64-11.07-5.89-3.51-2.29-6.9-4.71-9.93-7.65h0Z"/><path class="cls-21" d="M1796.17,3468.27c3.79,1.76,7.24,4.05,10.61,6.48,3.34,2.48,6.55,5.08,9.37,8.17-3.8-1.75-7.24-4.04-10.61-6.48-3.33-2.48-6.55-5.08-9.37-8.17h0Z"/><path class="cls-21" d="M1850.84,3463.66c.46,3.05.29,6.07-.05,9.1-.39,3.02-.94,5.99-2.13,8.84-.47-3.05-.3-6.07.05-9.1.39-3.02.95-5.99,2.13-8.84h0Z"/><path class="cls-21" d="M1832.62,3464.51c.82,2.84,1.01,5.72,1.04,8.64-.03,2.92-.23,5.8-1.06,8.64-.82-2.84-1.02-5.72-1.04-8.64.03-2.92.23-5.8,1.06-8.64h0Z"/><path class="cls-21" d="M1867.29,3464.31c-2.52,3.47-5.5,6.49-8.6,9.41-3.14,2.88-6.38,5.62-10.03,7.87,2.52-3.47,5.49-6.5,8.6-9.41,3.14-2.88,6.38-5.62,10.03-7.87h0Z"/><path class="cls-21" d="M1850.59,3463.89c-2.35,3.51-5.16,6.58-8.11,9.56-2.99,2.94-6.08,5.74-9.59,8.07,2.35-3.51,5.16-6.59,8.11-9.56,2.99-2.94,6.08-5.74,9.59-8.07h0Z"/><path class="cls-21" d="M1832.45,3464.7c-2.1,3.62-4.7,6.83-7.44,9.96-2.78,3.09-5.66,6.05-9.01,8.57,2.1-3.62,4.7-6.84,7.44-9.96,2.78-3.09,5.67-6.05,9.01-8.57h0Z"/></g><rect class="cls-12" x="-2152.67" y="2234.34" width="4766.52" height="298.16" transform="translate(2614.18 2154.59) rotate(90.04)"/><rect class="cls-12" x="5.35" y="1.05" width="2857.8" height="298.16"/><path class="cls-15" d="M218.31,1992.76c2.8,0,5.08-.83,6.85-2.5,1.77-1.67,3.33-3.75,4.7-6.25,1.37-2.5,2.65-5.21,3.86-8.15,1.2-2.93,2.65-5.65,4.36-8.15,1.7-2.5,3.8-4.58,6.3-6.25,2.5-1.67,5.69-2.5,9.55-2.49,5.46,0,9.8,1.91,13,5.71,3.2,3.8,4.79,9.2,4.79,16.2,0,4.07-.31,7.77-.91,11.1-.6,3.33-1.37,5.93-2.31,7.8l-7.4-2.51c.76-1.53,1.48-3.78,2.17-6.75.69-2.97,1.04-6.32,1.04-10.05,0-4.4-.98-7.7-2.94-9.9s-4.28-3.3-6.95-3.31c-2.6,0-4.77.83-6.5,2.5-1.74,1.67-3.29,3.75-4.66,6.25-1.37,2.5-2.72,5.21-4.06,8.15-1.34,2.93-2.89,5.65-4.66,8.15-1.77,2.5-3.89,4.58-6.35,6.25-2.47,1.66-5.54,2.5-9.2,2.49-3,0-5.7-.54-8.1-1.61-2.4-1.07-4.47-2.64-6.2-4.71-1.73-2.07-3.06-4.57-3.99-7.5-.93-2.93-1.4-6.27-1.39-10,0-5,.39-9.13,1.16-12.4.77-3.27,1.62-5.8,2.55-7.6l7.4,2.81c-.84,1.53-1.67,3.8-2.49,6.8-.81,3-1.22,6.36-1.22,10.1,0,2.2.21,4.27.64,6.2.43,1.93,1.13,3.6,2.1,5,.96,1.4,2.18,2.52,3.65,3.35,1.46.83,3.2,1.25,5.2,1.25Z"/><path class="cls-15" d="M250.49,2015.19v8s-50-.04-50-.04v-8s50,.04,50,.04ZM265.69,2013.5c1.53,0,2.85.52,3.95,1.55,1.1,1.03,1.65,2.35,1.65,3.95,0,1.6-.55,2.96-1.65,4.1-1.1,1.13-2.42,1.7-3.95,1.7-1.53,0-2.8-.57-3.8-1.7-1-1.13-1.5-2.5-1.5-4.1,0-1.6.5-2.92,1.5-3.95,1-1.03,2.27-1.55,3.8-1.55Z"/><path class="cls-15" d="M200.45,2069.55l28.3.02c2.67,0,4.98-.11,6.95-.34,1.97-.23,3.62-.68,4.95-1.35,1.33-.67,2.33-1.62,3-2.85.67-1.23,1-2.85,1-4.85,0-3.07-.93-5.62-2.79-7.65-1.87-2.04-4.2-3.45-7-4.25l-34.4-.03v-8s50,.04,50,.04v5.6s-6.11,1.5-6.11,1.5v.4c2.13,1.8,3.88,3.89,5.25,6.25,1.36,2.37,2.05,5.45,2.04,9.25,0,3.2-.62,5.82-1.86,7.85-1.24,2.03-3.39,3.61-6.45,4.75,2.6,1.54,4.63,3.65,6.09,6.35,1.46,2.7,2.2,5.75,2.19,9.15,0,2.8-.32,5.17-.96,7.1-.64,1.93-1.75,3.53-3.35,4.8-1.6,1.26-3.77,2.18-6.5,2.75-2.74.56-6.2.84-10.4.84l-30-.02v-8s30.1.02,30.1.02c2.4,0,4.48-.11,6.25-.34,1.77-.23,3.23-.7,4.4-1.4,1.17-.7,2.03-1.67,2.6-2.9.57-1.23.85-2.85.85-4.85,0-3.33-.93-5.94-2.79-7.8-1.87-1.87-4.53-3.2-8-4.01l-33.4-.03v-8Z"/><path class="cls-15" d="M203.69,2155.55c-1.46-2-2.58-4.37-3.34-7.1-.76-2.73-1.15-5.6-1.14-8.6,0-3.87.62-7.13,1.86-9.8,1.23-2.67,3-4.85,5.3-6.55,2.3-1.7,5.07-2.93,8.3-3.69,3.23-.76,6.82-1.14,10.75-1.14,8.46,0,14.95,1.88,19.45,5.61,4.5,3.74,6.74,9.1,6.74,16.1,0,3.2-.25,5.92-.76,8.15-.5,2.23-1.22,4.25-2.16,6.05l-6.9-2.3c.87-1.53,1.55-3.23,2.05-5.1.5-1.87.75-3.87.75-6,0-9.47-6.39-14.21-19.19-14.21-2.53,0-4.95.25-7.25.75-2.3.5-4.33,1.33-6.1,2.5-1.77,1.16-3.19,2.7-4.25,4.6-1.07,1.9-1.6,4.25-1.61,7.05,0,2.4.36,4.55,1.1,6.45.73,1.9,1.56,3.45,2.5,4.65l-6.1,2.6Z"/><path class="cls-15" d="M225.38,2161.47c8.46,0,14.95,1.89,19.44,5.66,4.5,3.77,6.74,9.19,6.74,16.25,0,3.73-.62,6.98-1.86,9.75-1.24,2.76-3,5.05-5.3,6.85-2.3,1.8-5.07,3.13-8.3,3.99-3.24.86-6.82,1.29-10.75,1.29-8.47,0-14.95-1.9-19.45-5.67s-6.74-9.19-6.74-16.25c0-3.73.62-6.98,1.86-9.75,1.23-2.77,3-5.05,5.3-6.85,2.3-1.8,5.07-3.13,8.3-3.99,3.23-.87,6.82-1.29,10.75-1.29ZM225.38,2169.76c-2.53,0-4.97.25-7.3.75-2.33.5-4.37,1.28-6.1,2.34-1.74,1.06-3.14,2.46-4.2,4.2-1.07,1.73-1.6,3.83-1.61,6.3-.07,9.07,6.32,13.6,19.19,13.61,2.6,0,5.06-.25,7.4-.74,2.33-.5,4.37-1.28,6.1-2.35,1.73-1.07,3.12-2.46,4.15-4.2,1.03-1.73,1.55-3.83,1.55-6.3.07-9.07-6.33-13.6-19.19-13.61Z"/><path class="cls-15" d="M204.31,2254.35c-1.6-2-2.86-4.52-3.79-7.55-.93-3.04-1.4-6.25-1.39-9.65,0-3.8.62-7.1,1.86-9.9,1.23-2.8,3-5.1,5.3-6.9,2.3-1.8,5.05-3.13,8.25-3.99,3.2-.87,6.8-1.29,10.8-1.29,8.53,0,15.03,1.91,19.5,5.71,4.46,3.8,6.69,9.24,6.69,16.31,0,2.27-.25,4.53-.75,6.8-.5,2.27-1.45,4.3-2.85,6.1s-3.39,3.26-5.95,4.4c-2.57,1.13-5.95,1.7-10.15,1.69-2.2,0-4.63-.2-7.3-.61l.02-32.1c-2.93,0-5.53.29-7.8.89-2.27.6-4.19,1.53-5.75,2.8-1.57,1.26-2.77,2.91-3.6,4.95-.83,2.03-1.25,4.51-1.25,7.45,0,2.27.4,4.53,1.19,6.8.8,2.26,1.73,3.97,2.8,5.1l-5.8,3ZM244.53,2237.18c0-3.93-1.03-7.08-3.09-9.45-2.07-2.37-5.6-3.79-10.6-4.26l-.02,24.8c5.07,0,8.62-.96,10.65-2.89,2.03-1.93,3.05-4.66,3.06-8.2Z"/><path class="cls-15" d="M218.06,2327.76c2.8,0,5.08-.83,6.85-2.5,1.77-1.67,3.33-3.75,4.7-6.25,1.37-2.5,2.65-5.21,3.86-8.15,1.2-2.93,2.65-5.65,4.36-8.15,1.7-2.5,3.8-4.58,6.3-6.25,2.5-1.67,5.69-2.5,9.55-2.49,5.46,0,9.8,1.91,13,5.71,3.2,3.8,4.79,9.2,4.79,16.2,0,4.07-.31,7.77-.91,11.1-.6,3.33-1.37,5.93-2.31,7.8l-7.4-2.51c.76-1.53,1.48-3.78,2.17-6.75.69-2.97,1.04-6.32,1.04-10.05,0-4.4-.98-7.7-2.94-9.9-1.97-2.2-4.28-3.3-6.95-3.31-2.6,0-4.77.83-6.5,2.5-1.74,1.67-3.29,3.75-4.66,6.25-1.37,2.5-2.72,5.21-4.06,8.15-1.34,2.93-2.89,5.65-4.66,8.15-1.77,2.5-3.89,4.58-6.35,6.25-2.47,1.66-5.54,2.5-9.2,2.49-3,0-5.7-.54-8.1-1.61-2.4-1.07-4.47-2.64-6.2-4.71-1.73-2.07-3.06-4.57-3.99-7.5-.93-2.93-1.4-6.27-1.39-10,0-5,.39-9.13,1.16-12.4.77-3.27,1.62-5.8,2.56-7.6l7.4,2.81c-.85,1.53-1.67,3.8-2.49,6.8-.81,3-1.22,6.36-1.22,10.1,0,2.2.21,4.27.64,6.2.43,1.93,1.13,3.6,2.1,5,.96,1.4,2.18,2.52,3.65,3.35,1.46.83,3.2,1.25,5.2,1.25Z"/><path class="cls-15" d="M250.25,2341.88v7.8s9.89,0,9.89,0l2.29,8h-12.2s0,13.59,0,13.59h-7s0-13.6,0-13.6l-27.7-.02c-3.47,0-5.92.43-7.35,1.29-1.44.86-2.15,2.33-2.15,4.4,0,1.73.18,3.2.55,4.4s.85,2.53,1.45,4l-6.1,1.8c-.87-1.8-1.56-3.77-2.1-5.9-.53-2.13-.8-4.44-.79-6.9,0-4.07,1.16-6.93,3.46-8.6,2.3-1.67,6.15-2.5,11.55-2.49l29.2.02v-7.8s7.01,0,7.01,0Z"/><path class="cls-15" d="M242.5,2405.97c.67-2,1-3.9,1-5.7,0-2.87-.78-5.13-2.34-6.8-1.57-1.67-3.55-2.7-5.95-3.1l-35-.03v-8s50,.04,50,.04v5.6s-6.1,1.5-6.1,1.5v.4c2.26,1.27,4.01,2.79,5.25,4.55,1.23,1.77,1.85,4.02,1.84,6.75,0,1.93-.34,4.1-1,6.5l-7.7-1.71Z"/><path class="cls-15" d="M204.17,2452.84c-1.6-2-2.86-4.52-3.79-7.55-.93-3.04-1.4-6.25-1.39-9.65,0-3.8.62-7.1,1.86-9.9s3-5.1,5.31-6.9c2.3-1.8,5.05-3.13,8.25-3.99,3.2-.87,6.8-1.29,10.8-1.29,8.53,0,15.03,1.91,19.49,5.71,4.46,3.8,6.69,9.24,6.69,16.31,0,2.27-.25,4.53-.75,6.8-.5,2.26-1.45,4.3-2.86,6.1-1.4,1.8-3.39,3.26-5.95,4.4-2.57,1.13-5.95,1.7-10.15,1.69-2.2,0-4.63-.2-7.3-.61l.02-32.1c-2.93,0-5.53.29-7.8.89-2.27.6-4.19,1.53-5.75,2.79-1.57,1.27-2.77,2.91-3.6,4.95-.84,2.03-1.25,4.52-1.26,7.45,0,2.27.4,4.53,1.2,6.8.8,2.27,1.73,3.97,2.8,5.1l-5.8,3ZM244.38,2435.67c0-3.93-1.03-7.08-3.09-9.45-2.06-2.37-5.6-3.79-10.6-4.26l-.02,24.8c5.07,0,8.62-.96,10.65-2.89,2.03-1.93,3.05-4.66,3.06-8.2Z"/><path class="cls-15" d="M204.13,2502.54c-1.6-2-2.86-4.52-3.79-7.55-.93-3.04-1.4-6.25-1.39-9.65,0-3.8.62-7.1,1.86-9.9,1.23-2.8,3-5.1,5.3-6.9s5.05-3.13,8.25-3.99c3.2-.87,6.8-1.29,10.8-1.29,8.53,0,15.03,1.91,19.5,5.71,4.46,3.8,6.69,9.24,6.69,16.31,0,2.27-.25,4.53-.75,6.8-.5,2.27-1.45,4.3-2.85,6.1s-3.39,3.26-5.95,4.4c-2.57,1.13-5.95,1.7-10.15,1.69-2.2,0-4.63-.2-7.3-.61l.02-32.1c-2.93,0-5.53.29-7.8.89-2.27.6-4.19,1.53-5.75,2.79-1.57,1.27-2.77,2.91-3.6,4.95s-1.25,4.52-1.25,7.45c0,2.27.4,4.53,1.19,6.8.8,2.27,1.73,3.97,2.8,5.1l-5.8,2.99ZM244.34,2485.37c0-3.93-1.03-7.08-3.09-9.45-2.06-2.37-5.6-3.79-10.6-4.26l-.02,24.8c5.07,0,8.62-.96,10.65-2.89,2.03-1.93,3.05-4.66,3.06-8.2Z"/><path class="cls-15" d="M250.12,2510.28v7.8s9.9,0,9.9,0l2.29,8h-12.2s0,13.59,0,13.59h-7s0-13.61,0-13.61l-27.7-.02c-3.47,0-5.92.43-7.35,1.29-1.43.87-2.15,2.33-2.15,4.4,0,1.73.18,3.2.55,4.4.37,1.2.85,2.54,1.45,4l-6.1,1.8c-.87-1.8-1.56-3.77-2.1-5.9-.53-2.13-.8-4.44-.79-6.9,0-4.07,1.16-6.93,3.46-8.6,2.3-1.67,6.15-2.5,11.55-2.49l29.2.02v-7.8s7,0,7,0Z"/><path class="cls-15" d="M217.85,2609.85c2.8,0,5.08-.83,6.85-2.5,1.77-1.67,3.33-3.75,4.7-6.25,1.37-2.5,2.65-5.21,3.86-8.15,1.2-2.93,2.65-5.65,4.36-8.15,1.7-2.5,3.8-4.58,6.3-6.25,2.5-1.67,5.69-2.5,9.55-2.49,5.46,0,9.8,1.91,13,5.71,3.2,3.8,4.79,9.2,4.79,16.2,0,4.07-.31,7.77-.91,11.1-.6,3.33-1.37,5.93-2.31,7.8l-7.4-2.51c.76-1.53,1.48-3.78,2.17-6.75.69-2.97,1.04-6.32,1.04-10.05,0-4.4-.98-7.7-2.94-9.9-1.97-2.2-4.28-3.3-6.95-3.31-2.6,0-4.77.83-6.5,2.5-1.74,1.66-3.29,3.75-4.65,6.25-1.37,2.5-2.72,5.21-4.06,8.15-1.34,2.93-2.89,5.65-4.66,8.15-1.77,2.5-3.89,4.58-6.35,6.24-2.47,1.66-5.54,2.5-9.2,2.49-3,0-5.7-.54-8.1-1.61-2.4-1.07-4.47-2.64-6.2-4.71-1.73-2.07-3.06-4.57-3.99-7.5s-1.4-6.27-1.39-10c0-5,.39-9.13,1.16-12.4.77-3.27,1.62-5.8,2.56-7.6l7.4,2.81c-.84,1.53-1.67,3.8-2.49,6.8-.82,3-1.22,6.37-1.22,10.1,0,2.2.21,4.27.64,6.2.43,1.93,1.13,3.6,2.1,5,.96,1.4,2.18,2.52,3.65,3.35,1.46.83,3.2,1.25,5.2,1.25Z"/><path class="cls-15" d="M225.04,2627.76c8.46,0,14.95,1.89,19.45,5.66s6.74,9.19,6.74,16.25c0,3.73-.62,6.98-1.86,9.75-1.24,2.76-3,5.05-5.3,6.85-2.3,1.8-5.07,3.13-8.3,3.99-3.23.86-6.82,1.29-10.75,1.29-8.47,0-14.95-1.89-19.45-5.66-4.5-3.77-6.74-9.19-6.74-16.26,0-3.73.62-6.98,1.86-9.75,1.23-2.76,3-5.05,5.3-6.84,2.3-1.8,5.07-3.13,8.3-3.99,3.23-.87,6.82-1.29,10.75-1.29ZM225.03,2636.06c-2.53,0-4.97.25-7.3.74-2.34.5-4.37,1.28-6.1,2.34-1.74,1.06-3.14,2.46-4.2,4.2-1.07,1.73-1.6,3.83-1.61,6.3-.07,9.07,6.32,13.61,19.19,13.62,2.6,0,5.06-.25,7.4-.74,2.33-.5,4.37-1.28,6.1-2.35,1.73-1.06,3.12-2.46,4.15-4.2,1.03-1.73,1.55-3.83,1.55-6.3.07-9.07-6.33-13.6-19.19-13.61Z"/><path class="cls-15" d="M249.99,2691.37l-28.5-.02c-2.6,0-4.88.15-6.85.44-1.97.3-3.6.81-4.9,1.55-1.3.73-2.29,1.73-2.95,3-.67,1.27-1,2.87-1,4.8,0,1.8.28,3.4.85,4.8.56,1.4,1.35,2.65,2.35,3.75,1,1.1,2.15,2.07,3.45,2.9,1.3.83,2.68,1.52,4.15,2.05l33.4.02v8s-35.8-.03-35.8-.03c-2.4,0-4.89.08-7.45.24-2.57.16-4.82.45-6.75.84v-5.5s7.91-1.99,7.91-1.99v-.5c-2.6-1.54-4.76-3.6-6.5-6.21-1.73-2.6-2.6-5.9-2.59-9.9,0-2.67.32-5.02.96-7.05.63-2.04,1.75-3.73,3.35-5.1,1.6-1.37,3.75-2.4,6.45-3.1,2.7-.7,6.12-1.04,10.25-1.04l30.2.02v8Z"/><path class="cls-15" d="M249.96,2731.47v7.8s9.89,0,9.89,0l2.29,8h-12.2s0,13.59,0,13.59h-7s0-13.61,0-13.61l-27.7-.02c-3.47,0-5.92.43-7.35,1.29-1.44.87-2.15,2.33-2.15,4.4,0,1.73.18,3.2.55,4.4.37,1.2.85,2.54,1.45,4l-6.1,1.79c-.87-1.8-1.56-3.77-2.1-5.9-.53-2.13-.8-4.44-.79-6.9,0-4.07,1.16-6.93,3.46-8.6,2.3-1.67,6.15-2.5,11.55-2.49l29.2.02v-7.8s7.01,0,7.01,0Z"/><path class="cls-15" d="M199.91,2804.03l28.5.02c2.6,0,4.88-.14,6.85-.45,1.97-.3,3.6-.85,4.9-1.64,1.3-.8,2.29-1.88,2.95-3.25.67-1.37,1-3.15,1-5.35,0-3.13-1.01-5.97-3.04-8.5-2.03-2.54-4.65-4.17-7.85-4.9l-33.3-.03v-8s70,.05,70,.05v8s-25.61-.02-25.61-.02v.4c2.06,1.73,3.71,3.82,4.94,6.25,1.23,2.43,1.85,5.45,1.84,9.05,0,2.8-.32,5.23-.96,7.3-.64,2.07-1.75,3.78-3.35,5.15-1.6,1.37-3.75,2.36-6.45,2.99-2.7.63-6.12.95-10.25.94l-30.2-.02v-8Z"/><path class="cls-15" d="M1235.9,149.45l-33.6-.02-.02,32.1h-8.3s.05-70.01.05-70.01h8.3s-.02,30.51-.02,30.51l33.6.02.02-30.5h8.3s-.05,70.01-.05,70.01h-8.3s.02-32.11.02-32.11Z"/><path class="cls-15" d="M1259.61,135.27c2.53-1.53,5.48-2.66,8.85-3.39,3.37-.73,6.88-1.09,10.55-1.09,3.47,0,6.25.47,8.35,1.41,2.1.94,3.7,2.15,4.8,3.65,1.1,1.5,1.83,3.15,2.2,4.95.36,1.8.55,3.6.55,5.4,0,4-.11,7.9-.31,11.7-.2,3.8-.31,7.4-.31,10.8,0,2.47.1,4.8.3,7,.2,2.2.56,4.23,1.09,6.1h-5.9s-2.09-7.01-2.09-7.01h-.5c-.6.93-1.35,1.85-2.25,2.75-.9.9-1.99,1.7-3.25,2.4-1.27.7-2.74,1.28-4.4,1.75-1.67.46-3.57.7-5.7.7-2.13,0-4.12-.34-5.95-1-1.83-.67-3.42-1.62-4.75-2.85-1.33-1.23-2.38-2.72-3.15-4.45-.77-1.73-1.15-3.7-1.15-5.9,0-2.93.6-5.38,1.81-7.35,1.2-1.96,2.89-3.53,5.05-4.7,2.17-1.16,4.77-2,7.8-2.49s6.38-.75,10.05-.74c.93,0,1.85,0,2.75,0,.9,0,1.82.07,2.75.2.2-2,.3-3.8.3-5.4,0-3.67-.73-6.23-2.19-7.7-1.47-1.47-4.13-2.2-8-2.21-1.13,0-2.35.08-3.65.25s-2.63.41-4,.72c-1.37.31-2.67.68-3.9,1.13-1.24.44-2.32.94-3.25,1.49l-2.5-6.1ZM1273.78,175.38c1.87,0,3.53-.25,5-.75,1.47-.5,2.73-1.13,3.8-1.9,1.07-.76,1.95-1.61,2.65-2.55.7-.93,1.22-1.83,1.55-2.7v-8.3c-.93-.07-1.88-.12-2.84-.15-.97-.03-1.92-.05-2.85-.05-2.07,0-4.08.11-6.05.35-1.97.23-3.7.66-5.2,1.3-1.5.63-2.7,1.5-3.6,2.6-.9,1.1-1.35,2.48-1.35,4.15,0,2.33.83,4.25,2.5,5.75,1.66,1.5,3.8,2.25,6.4,2.25Z"/><path class="cls-15" d="M1333.61,139.32c-2-.67-3.9-1-5.7-1-2.87,0-5.13.78-6.8,2.34-1.67,1.57-2.7,3.55-3.1,5.95l-.03,35h-8s.04-50.01.04-50.01h5.6s1.5,6.11,1.5,6.11h.4c1.27-2.26,2.79-4.01,4.55-5.25,1.77-1.23,4.02-1.85,6.75-1.84,1.93,0,4.1.34,6.5,1l-1.71,7.7Z"/><path class="cls-15" d="M1344.03,111.63h8s-.02,24.91-.02,24.91h.4c1.54-1.93,3.49-3.43,5.85-4.5,2.37-1.06,4.95-1.6,7.75-1.59,6.47,0,11.31,2.08,14.54,6.21,3.23,4.14,4.84,10.54,4.84,19.2,0,8.73-2.15,15.37-6.41,19.9-4.27,4.53-10.27,6.79-18,6.79-3.73,0-7.12-.41-10.15-1.21s-5.32-1.67-6.85-2.61l.05-67.1ZM1364.61,137.45c-3.33,0-6.04.93-8.1,2.79-2.07,1.87-3.57,4.5-4.51,7.9l-.02,25.2c1.26.74,2.8,1.29,4.6,1.65,1.8.37,3.67.55,5.6.55,4.53,0,8.15-1.59,10.85-4.79,2.7-3.2,4.06-8.2,4.06-15,0-2.6-.23-5.03-.7-7.3-.46-2.27-1.2-4.2-2.19-5.8s-2.28-2.87-3.85-3.8c-1.57-.93-3.48-1.4-5.75-1.4Z"/><path class="cls-15" d="M1395.19,156.67c0-8.47,1.89-14.95,5.66-19.45,3.77-4.5,9.19-6.74,16.25-6.74,3.73,0,6.98.62,9.75,1.86,2.76,1.24,5.05,3,6.85,5.3,1.8,2.3,3.13,5.07,3.99,8.3.86,3.24,1.29,6.82,1.29,10.75,0,8.47-1.9,14.95-5.67,19.45s-9.19,6.74-16.25,6.74c-3.73,0-6.98-.62-9.75-1.86-2.77-1.23-5.05-3-6.85-5.3-1.8-2.3-3.13-5.07-3.99-8.3-.87-3.23-1.29-6.82-1.29-10.75ZM1403.49,156.68c0,2.53.25,4.97.75,7.3.5,2.33,1.28,4.37,2.34,6.1,1.06,1.74,2.46,3.14,4.2,4.2,1.73,1.07,3.83,1.6,6.3,1.6,9.07.07,13.6-6.32,13.61-19.19,0-2.6-.25-5.07-.74-7.4-.5-2.33-1.28-4.37-2.35-6.1-1.07-1.73-2.46-3.12-4.2-4.15-1.73-1.03-3.83-1.55-6.3-1.55-9.07-.07-13.6,6.33-13.61,19.19Z"/><path class="cls-15" d="M1458.81,131.72l-.02,28.5c0,2.6.15,4.88.44,6.85.3,1.97.81,3.6,1.55,4.9.73,1.3,1.73,2.29,3,2.95,1.27.67,2.87,1,4.8,1,1.8,0,3.4-.28,4.8-.85,1.4-.56,2.65-1.35,3.75-2.35s2.07-2.15,2.9-3.45c.83-1.3,1.52-2.68,2.05-4.15l.02-33.4h8s-.03,35.81-.03,35.81c0,2.4.08,4.88.24,7.45.16,2.57.45,4.82.84,6.75h-5.5s-1.99-7.91-1.99-7.91h-.5c-1.54,2.6-3.6,4.76-6.21,6.5-2.6,1.73-5.9,2.6-9.9,2.59-2.67,0-5.02-.32-7.05-.96-2.03-.63-3.73-1.75-5.1-3.35-1.37-1.6-2.4-3.75-3.1-6.45-.7-2.7-1.04-6.12-1.04-10.25l.02-30.2h8Z"/><path class="cls-15" d="M1529.11,139.47c-2-.67-3.9-1-5.7-1-2.87,0-5.13.78-6.8,2.34-1.67,1.57-2.7,3.55-3.1,5.95l-.03,35h-8s.04-50.01.04-50.01h5.6s1.5,6.11,1.5,6.11h.4c1.27-2.26,2.79-4.01,4.55-5.25,1.77-1.23,4.02-1.85,6.75-1.84,1.93,0,4.1.34,6.5,1l-1.71,7.7Z"/><path class="cls-15" d="M1567.03,112.5c2.53-.46,5.45-.83,8.75-1.09,3.3-.26,6.32-.4,9.05-.39,3.07,0,5.98.34,8.75,1.01,2.77.67,5.2,1.77,7.3,3.31s3.78,3.54,5.05,6c1.26,2.47,1.9,5.47,1.89,9,0,5.47-1.51,9.9-4.51,13.3-3,3.4-6.8,5.66-11.4,6.79l4.8,3.7,17.38,27.71h-9.7s-19.28-30.22-19.28-30.22l-9.8-1.51-.02,31.7h-8.3s.05-69.31.05-69.31ZM1585.02,118.21c-.87,0-1.77,0-2.7,0-.93,0-1.83.03-2.7.1-.87.07-1.68.13-2.45.2-.77.07-1.38.17-1.85.3l-.02,25.8h7.8c4.6,0,8.4-1.12,11.4-3.38,3-2.26,4.5-5.8,4.51-10.6,0-3.6-1.23-6.57-3.69-8.9-2.46-2.33-5.9-3.5-10.3-3.51Z"/><path class="cls-15" d="M1664.08,164.67c0,3.4.03,6.48.09,9.25.06,2.77.36,5.48.89,8.15h-5.4s-2-7.11-2-7.11h-.4c-1.33,2.33-3.27,4.26-5.8,5.8-2.54,1.53-5.5,2.3-8.9,2.29-6.67,0-11.62-2.11-14.84-6.31-3.23-4.2-4.84-10.77-4.83-19.7,0-8.53,2.03-15.01,6.06-19.45,4.04-4.43,9.59-6.64,16.65-6.64,2.47,0,4.42.14,5.85.4,1.43.27,2.98.7,4.65,1.3v-20.8s8.01,0,8.01,0l-.04,52.8ZM1643.88,176.05c3.4,0,6.1-.88,8.1-2.64,2-1.76,3.37-4.45,4.11-8.05l.02-24.8c-1.2-.93-2.57-1.6-4.1-2-1.53-.4-3.57-.6-6.1-.6-4.6,0-8.2,1.51-10.8,4.54-2.6,3.03-3.91,7.88-3.91,14.55,0,2.73.21,5.27.64,7.6.43,2.33,1.15,4.34,2.15,6,1,1.67,2.31,2.99,3.95,3.95,1.63.97,3.61,1.45,5.95,1.45Z"/><path class="cls-15" d="M1676.68,177.28c0-1.8.52-3.22,1.55-4.25,1.03-1.03,2.42-1.55,4.15-1.55,1.8,0,3.23.52,4.3,1.55,1.06,1.03,1.6,2.45,1.6,4.25,0,1.73-.54,3.13-1.6,4.2-1.07,1.07-2.5,1.6-4.3,1.6-1.73,0-3.12-.54-4.15-1.6-1.03-1.07-1.55-2.47-1.55-4.2Z"/><path class="cls-22" d="M1012.18,1303.68l-16.66-42.95c-.33-.86-1.16-1.44-2.09-1.45l-40.93-.61h0s-1.04-.02-1.04-.02h-.38s0,0,0,0l-11.14-.08h0s-42.35.05-42.35.05c-.93,0-1.76.56-2.1,1.42l-17.24,42.72c-.89,2.18.13,4.72,2.22,5.51,18.37,6.96,37.22,11.28,56.77,11.8,1.28.03,14.45.13,15.73.11,19.55-.25,38.46-4.32,56.92-11.03,2.1-.76,3.15-3.29,2.29-5.48Z"/><path class="cls-27" d="M1012.49,1250.4l-18.7-43.64-46.79.03v-.07l-46.88-.03-18.7,43.64c-.34.79-.4,1.63-.25,2.41l-.17.07,7.91,19.36.05-.02v33.99c0,.97.79,1.76,1.76,1.76s1.76-.79,1.76-1.76v-33.68l5.07-12.4c16.05,4.45,32.45,7.03,49.32,7.11v.07c15.83-.06,31.25-2.32,46.35-6.27l4.63,11.33.05-.02v33.99c0,.97.79,1.76,1.76,1.76s1.76-.79,1.76-1.76v-33.68l6.55-16.03c.7-.23,1.4-.46,2.1-.71,2.24-.77,3.34-3.29,2.41-5.46ZM885.14,1256.24c1.27.43,2.55.85,3.82,1.26v8.1l-3.82-9.36ZM892.49,1265.76v-7.17c.87.26,1.74.53,2.61.78l-2.61,6.39ZM995.69,1260.32c.74-.2,1.47-.41,2.21-.62v6.02l-2.21-5.41ZM1001.43,1265.89v-7.23c1.13-.34,2.26-.7,3.39-1.06l-3.39,8.29Z"/></svg>