<svg width="236" height="236" viewBox="0 0 236 236" fill="none" xmlns="http://www.w3.org/2000/svg">
<g clip-path="url(#clip0_1_1685)">
<path d="M189.347 0H46.6533C20.8874 0 0 20.8874 0 46.6533V189.347C0 215.113 20.8874 236 46.6533 236H189.347C215.113 236 236 215.113 236 189.347V46.6533C236 20.8874 215.113 0 189.347 0Z" fill="#E55C00"/>
<path d="M118.008 195.151C160.613 195.151 195.151 160.613 195.151 118.008C195.151 75.4038 160.613 40.866 118.008 40.866C75.4038 40.866 40.866 75.4038 40.866 118.008C40.866 160.613 75.4038 195.151 118.008 195.151Z" stroke="white" stroke-width="7" stroke-miterlimit="10"/>
<path d="M118.008 92.9017C124.913 92.9017 130.511 87.3041 130.511 80.399C130.511 73.4939 124.913 67.8962 118.008 67.8962C111.103 67.8962 105.506 73.4939 105.506 80.399C105.506 87.3041 111.103 92.9017 118.008 92.9017Z" fill="white"/>
<path d="M118.869 134.493C118.447 134.173 117.047 137.851 116.912 138.205C113.031 147.873 110.196 157.98 106.197 167.614C102.215 173.301 94.0321 169.909 95.0613 163.16C97.2211 156.377 100.073 149.831 102.3 143.081C104.831 135.421 105.539 127.609 105.792 119.544C105.86 117.553 106.096 112.862 105.725 111.158C105.489 110.112 104.763 109.842 103.886 109.521C97.3729 107.159 87.7554 106.923 80.7363 105.05C78.3066 104.409 76.5687 103.599 75.7082 101.068C74.2065 96.6643 77.4799 92.6654 82.0861 92.9354C89.4427 93.3741 98.8746 96.5125 106.535 97.5417C114.904 98.6722 122.8 98.4528 131.169 97.2549C138.239 96.2425 147.08 93.3404 153.88 92.9354C158.486 92.6654 161.76 96.6643 160.258 101.068C159.009 104.73 155.82 104.898 152.564 105.59C145.511 107.109 138.323 108.037 131.27 109.589C129.043 110.163 129.499 113.301 129.6 115.174C130.46 132.249 136.535 147.435 142.322 163.211C143.419 170.145 134.729 173.317 131.119 167.446L118.852 134.51L118.869 134.493Z" fill="white"/>
</g>
<defs>
<clipPath id="clip0_1_1685">
<rect width="236" height="236" fill="white"/>
</clipPath>
</defs>
</svg>
