<?xml version="1.0" encoding="UTF-8"?>
<svg id="Layer_2" data-name="Layer 2" xmlns="http://www.w3.org/2000/svg" viewBox="0 0 139.87 139.87">
  <defs>
    <style>
      .cls-1 {
        fill: #fff;
      }

      .cls-2 {
        fill: #faa02a;
      }
    </style>
  </defs>
  <g id="restaurant">
    <g>
      <rect class="cls-2" width="139.87" height="139.87" rx="27.65" ry="27.65"/>
      <g id="icon1">
        <ellipse class="cls-1" cx="72.02" cy="42.94" rx="8.6" ry="9.04"/>
        <path class="cls-1" d="M84.76,98.87c-1.55,2.38-5.9,7.11-16.13,7.11-8.37,0-11.75-6.28-10.74-12.67l4.33-27.32c.33-2.1-1.21-4.02-3.24-4.02h-1.61c-1.41,0-2.55-1.2-2.55-2.68,0-.74.29-1.41.75-1.89.46-.48,1.1-.78,1.8-.78h17.21c3.37,0,5.9,3.23,5.27,6.71l-5.76,31.42c-.37,2,1.09,3.85,3.03,3.85,1.3,0,2.39-.27,3.27-.65.88-.38,1.55-.87,2.03-1.3.6-.53,1.47-.54,2.06-.01.63.56.75,1.52.29,2.23Z"/>
      </g>
    </g>
  </g>
</svg>