<svg width="51" height="51" viewBox="0 0 51 51" fill="none" xmlns="http://www.w3.org/2000/svg">
<g id="Group">
<path id="Vector" d="M40.9181 0H10.0819C4.5138 0 0 4.5138 0 10.0819V40.9181C0 46.4862 4.5138 51 10.0819 51H40.9181C46.4862 51 51 46.4862 51 40.9181V10.0819C51 4.5138 46.4862 0 40.9181 0Z" fill="#FAA02A"/>
<path id="Vector_2" d="M7.04774 27.0077L20.4805 37.3666C21.7348 38.3329 23.5506 37.4396 23.5506 35.8571V30.2601H42.8648C43.8748 30.2601 44.6952 29.4397 44.6952 28.4297V23.9557C44.6952 22.9457 43.8748 22.1253 42.8648 22.1253H23.5506V15.1355C23.5506 13.553 21.7348 12.6597 20.4805 13.6259L7.04774 23.9849C6.05961 24.747 6.05961 26.2419 7.04774 27.004V27.0077Z" fill="white"/>
</g>
</svg>
