<svg width="22" height="21" viewBox="0 0 22 21" fill="none" xmlns="http://www.w3.org/2000/svg">
<path d="M17.651 0H4.34904C1.94713 0 0 1.85862 0 4.15135V16.8486C0 19.1414 1.94713 21 4.34904 21H17.651C20.0529 21 22 19.1414 22 16.8486V4.15135C22 1.85862 20.0529 0 17.651 0Z" fill="#FAA02A"/>
<path d="M7.5647 15.5787V5.41943H11.0538C12.3763 5.41943 13.2381 5.4712 13.6392 5.57273C14.2564 5.72602 14.7722 6.05651 15.1887 6.56815C15.6053 7.07781 15.8125 7.73877 15.8125 8.54706C15.8125 9.17019 15.6935 9.69578 15.4532 10.1198C15.213 10.5459 14.9088 10.8783 14.5385 11.1212C14.1682 11.3641 13.7935 11.5234 13.41 11.603C12.8898 11.7006 12.1382 11.7483 11.1552 11.7483H9.73796V15.5807H7.5625L7.5647 15.5787ZM9.73796 7.13754V10.0203H10.9282C11.7856 10.0203 12.3587 9.96653 12.6474 9.86102C12.9361 9.7555 13.1632 9.58827 13.3263 9.36131C13.4894 9.13436 13.5731 8.87156 13.5731 8.57095C13.5731 8.20065 13.4585 7.89605 13.2271 7.65516C12.9978 7.41426 12.7047 7.26495 12.352 7.20522C12.092 7.15944 11.5718 7.13554 10.7871 7.13554H9.73576L9.73796 7.13754Z" fill="white"/>
</svg>
