<svg width="22" height="22" viewBox="0 0 22 22" fill="none" xmlns="http://www.w3.org/2000/svg">
<path d="M17.651 0H4.34904C1.94713 0 0 1.94713 0 4.34904V17.651C0 20.0529 1.94713 22 4.34904 22H17.651C20.0529 22 22 20.0529 22 17.651V4.34904C22 1.94713 20.0529 0 17.651 0Z" fill="#FAA02A"/>
<path d="M16.833 18.6372C16.9274 18.6356 17.0123 18.5774 17.0438 18.4893C18.4138 14.6484 10.8906 13.8981 10.9252 10.3842C10.9425 8.66508 11.4396 7.78426 11.1863 6.48977C10.9457 5.26607 9.43257 3.67745 9.05508 3.29681C9.0016 3.24333 8.92768 3.21974 8.85375 3.23232L6.54632 3.61925C6.36387 3.65071 6.28994 3.87406 6.41892 4.00618C6.99617 4.59444 8.1664 5.9141 8.3174 7.08433C8.56119 8.97337 7.46646 8.37252 7.08897 10.8089C6.43622 15.0117 11.4679 15.6817 9.91388 18.4233C9.82422 18.5806 9.9359 18.774 10.1168 18.7709L16.833 18.6356V18.6372Z" fill="white"/>
</svg>
