<svg width="100%" height="100%" viewBox="0 0 24 24" fill="none" xmlns="http://www.w3.org/2000/svg">
<g id="rewind" clip-path="url(#clip0_1_786)">
<path id="rewind__bg" d="M19.2556 0H4.74441C2.12414 0 0 2.12414 0 4.74441V19.2556C0 21.8759 2.12414 24 4.74441 24H19.2556C21.8759 24 24 21.8759 24 19.2556V4.74441C24 2.12414 21.8759 0 19.2556 0Z" fill="#FAA02A"/>
<g id="rewind__arrow-group">
<path id="rewind__arrow-line" d="M12.4659 4.96566C9.78569 4.8301 7.39547 6.14103 6.00732 8.18465H7.58422C8.70125 6.96466 10.3056 6.19766 12.0867 6.19766C15.4498 6.19766 18.1849 8.93277 18.1849 12.2959C18.1849 15.4703 15.7467 18.087 12.6443 18.3701C12.3269 18.3993 12.0867 18.6687 12.0867 18.9878C12.0867 19.3533 12.4007 19.6416 12.7645 19.6073C16.5926 19.2555 19.5816 15.949 19.4221 11.9956C19.2711 8.23098 16.2288 5.1544 12.4659 4.96394V4.96566Z" fill="white" stroke="white" stroke-miterlimit="10"/>
<path id="rewind__arrow" d="M4.62254 8.99464L6.51001 4.7324C6.68846 4.33089 7.23068 4.26911 7.49492 4.61915L10.2232 8.23623C10.4874 8.58627 10.2781 9.09245 9.84396 9.15251L5.22653 9.79768C4.7804 9.85945 4.43722 9.40646 4.62082 8.99464H4.62254Z" fill="white" stroke="white" stroke-miterlimit="10"/>
</g>
</g>
<defs>
<clipPath id="clip0_1_786">
<rect width="24" height="24" fill="white"/>
</clipPath>
</defs>
</svg>
