<svg width="32" height="32" viewBox="0 0 32 32" fill="none" xmlns="http://www.w3.org/2000/svg">
<g id="voice-activation-frame">
<g id="voice-activation">
<path id="voice-activation__stand" fill-rule="evenodd" clip-rule="evenodd" d="M18.7019 28.4495H17.8668C17.3323 28.4495 16.8986 27.9578 16.8986 27.352V23.7652C16.8986 23.2142 17.2597 22.7423 17.7417 22.6764C17.7458 22.6764 17.7478 22.6764 17.7518 22.6764C17.8587 22.6633 17.9636 22.6325 18.0604 22.5821C18.5586 22.323 19.6297 21.7852 20.0452 21.467C20.0876 21.434 20.1259 21.3967 20.1622 21.3572C20.5152 20.9599 21.4108 19.8206 21.6064 19.3926C21.8041 18.9602 22.0764 18.3126 22.1974 17.8626C22.2095 17.8209 22.2176 17.777 22.2237 17.7353C22.2862 17.3534 22.3023 17.0834 22.3064 16.9648C22.3064 16.9144 22.3124 16.8705 22.3205 16.8222C22.4112 16.2536 22.5 15.5183 22.5 14.9651L22.4052 11.3476C22.4052 10.8055 22.3205 10.0723 22.2317 9.60914C22.2196 9.54987 22.2035 9.4928 22.1833 9.43573L21.6085 7.8399C21.5137 7.37016 21.4007 7.37016 21.4007 7.94746V14.9629C21.4007 15.5424 21.3059 17.0066 21.2091 17.4587C21.1123 17.9109 20.5071 19.1577 20.2994 19.3948C20.1078 19.7197 19.1981 20.7514 18.8955 20.8589C18.4961 21.0938 17.3948 21.546 16.9974 21.546C16.5981 21.6535 16.2955 21.6535 16.1987 21.6535H15.7045C15.7045 21.6535 14.7 21.546 14.3006 21.4187C13.9981 21.3111 12.8019 20.7492 12.5942 20.4067C12.2916 20.1719 11.4929 19.1599 11.3012 18.8153C11.0935 18.4729 10.6941 17.1163 10.6941 16.6641C10.5993 16.3195 10.5993 15.5424 10.5993 14.9651V7.94966C10.5993 7.37016 10.4863 7.37016 10.2967 7.8421L9.78642 9.52353C9.5948 9.97572 9.5 10.7703 9.5 11.3498V14.9673C9.5 15.5468 9.5948 17.2458 9.78642 17.8056C9.89938 18.2578 10.4884 19.8492 10.7929 20.1741C11.0955 20.5165 12.1968 21.6579 12.5962 21.8906C12.9633 22.0904 13.5019 22.3955 13.8972 22.6106C13.9678 22.6479 14.0404 22.6786 14.115 22.6962C14.5407 22.795 14.7968 22.795 14.7968 22.795H15.0994V27.3586C15.0994 27.9644 14.6657 28.4561 14.1312 28.4561H13.2013C12.9936 28.4561 12.8019 28.691 12.8019 28.9083V30.0475C12.8019 30.2648 12.9936 30.4997 13.2013 30.4997H17.7377C18.4901 30.4997 19.1053 29.8017 19.1053 28.95V28.9083C19.1053 28.691 18.8975 28.4561 18.7059 28.4561L18.7019 28.4495Z" fill="black" fill-opacity="0.45"/>
<path id="voice-activation__mic" fill-rule="evenodd" clip-rule="evenodd" d="M20.5 10.9999V15.5857C20.5 18.3266 18.5733 20.4998 16.064 20.4998C13.5547 20.4998 11.5 18.3266 11.5 15.5857V6.43178C11.5022 3.67318 13.537 1.5 16.064 1.5C18.591 1.5 20.5 3.67318 20.5 6.43178V10.9977V10.9999Z" fill="black" fill-opacity="0.45"/>
</g>
</g>
</svg>
