<?xml version="1.0" encoding="UTF-8"?>
<svg id="Layer_2" data-name="Layer 2" xmlns="http://www.w3.org/2000/svg" viewBox="0 0 241.35 241.35">
  <defs>
    <style>
      .cls-1 {
        fill: #eaeaea;
      }

      .cls-2 {
        fill: #656565;
      }

      .cls-3 {
        fill: #fff;
        stroke: #656565;
        stroke-miterlimit: 10;
        stroke-width: 7px;
      }
    </style>
  </defs>
  <g id="objects">
    <g>
      <circle class="cls-3" cx="120.67" cy="120.67" r="117.17"/>
      <g>
        <path class="cls-1" d="M200.94,171.72l-19.91-51.33c-.4-1.03-1.39-1.72-2.49-1.73l-48.92-.72h0s-1.24-.02-1.24-.02h-.45s0,0,0,0l-13.31-.09h0s-50.62.05-50.62.05c-1.11,0-2.1.67-2.52,1.7l-20.6,51.05c-1.06,2.61.15,5.64,2.65,6.58,21.95,8.32,44.48,13.48,67.84,14.1,1.52.04,17.27.15,18.79.13,23.37-.3,45.96-5.16,68.03-13.18,2.51-.91,3.76-3.93,2.74-6.55Z"/>
        <g>
          <path class="cls-2" d="M64.14,111.14l-6.24,15.27v-13.81h-4.22v13.61l-6.71-16.43-2.8,1.15,9.46,23.14.06-.02v40.62c0,1.16.94,2.11,2.11,2.11s2.11-.94,2.11-2.11v-40.25l9.04-22.13-2.8-1.15Z"/>
          <path class="cls-2" d="M197.14,112.44l-2.8-1.15-6.24,15.27v-13.81h-4.22v13.61l-6.71-16.43-2.8,1.15,9.46,23.14.06-.02v40.62c0,1.16.94,2.11,2.11,2.11s2.11-.94,2.11-2.11v-40.25l9.04-22.13Z"/>
        </g>
        <path class="cls-2" d="M201.31,108.05l-22.35-52.15-55.92.04v-.08s-56.02-.04-56.02-.04l-22.35,52.15c-1.11,2.6.21,5.61,2.88,6.53,24.38,8.43,49.4,13.48,75.35,13.6v.08c26.02-.1,51.1-5.16,75.54-13.6,2.67-.92,3.99-3.93,2.88-6.53Z"/>
      </g>
    </g>
  </g>
</svg>