<?xml version="1.0" encoding="UTF-8"?><svg id="Layer_2" xmlns="http://www.w3.org/2000/svg" viewBox="0 0 228.63 228.63"><defs><style>.cls-1{fill:#0f0b38;}.cls-2{fill:#237738;}.cls-3{fill:#fff;stroke:#0f0b38;stroke-miterlimit:10;stroke-width:7px;}.cls-4{fill:#c1c1c6;}</style></defs><g id="Layer_2-2"><circle class="cls-2" cx="114.31" cy="114.31" r="114.31"/><g id="objects"><circle class="cls-3" cx="114.31" cy="114.32" r="104.2"/><path class="cls-4" d="M185.7,159.72l-17.71-45.65c-.36-.92-1.24-1.53-2.21-1.54l-43.51-.64h0l-1.1-.02h-.4l-11.84-.08h0l-45.02.04c-.99,0-1.87.6-2.24,1.51l-18.32,45.4c-.94,2.32.13,5.02,2.36,5.85,19.52,7.4,39.56,11.99,60.33,12.54,1.35.04,15.36.13,16.71.12,20.78-.27,40.87-4.59,60.5-11.72,2.23-.81,3.34-3.5,2.44-5.83h0Z"/><path class="cls-1" d="M64.04,105.84l-5.55,13.58v-12.28h-3.75v12.1l-5.97-14.61-2.49,1.02,8.41,20.58.05-.02v36.12c0,1.03.84,1.88,1.88,1.88s1.88-.84,1.88-1.88v-35.8l8.04-19.68-2.49-1.02h0Z"/><path class="cls-1" d="M182.32,107l-2.49-1.02-5.55,13.58v-12.28h-3.75v12.1l-5.97-14.61-2.49,1.02,8.41,20.58.05-.02v36.12c0,1.03.84,1.88,1.88,1.88s1.88-.84,1.88-1.88v-35.8l8.04-19.68h0Z"/><path class="cls-1" d="M186.03,103.09l-19.88-46.38-49.73.04v-.07l-49.82-.04-19.88,46.38c-.99,2.31.19,4.99,2.56,5.81,21.68,7.5,43.93,11.99,67.01,12.09v.07c23.14-.09,45.44-4.59,67.18-12.09,2.37-.82,3.55-3.5,2.56-5.81h0Z"/></g></g></svg>