<?xml version="1.0" encoding="UTF-8"?>
<svg id="Layer_2" data-name="Layer 2" xmlns="http://www.w3.org/2000/svg" viewBox="0 0 226.3 226.3">
  <defs>
    <style>
      .cls-1 {
        fill: #969696;
      }

      .cls-2 {
        fill: #fff;
        stroke: #686868;
        stroke-miterlimit: 10;
        stroke-width: 7px;
      }

      .cls-3 {
        fill: #4c4c4c;
      }
    </style>
  </defs>
  <g id="Layer_1-2" data-name="Layer 1">
    <g>
      <circle class="cls-2" cx="113.15" cy="113.15" r="109.65"/>
      <path class="cls-1" d="M161.57,123.43l-19.93-84.33h-35.56v.07h-17.55l-19.93,84.33s-15.34,30.67-9.2,50.61c1.53,4.98,4.21,10.34,7.37,15.59l95.79,1.3c3.52-5.67,6.54-11.54,8.21-16.96,6.14-19.93-9.2-50.6-9.2-50.6ZM91.1,49.72h15.61v-.06h31.62l1.27,5.37h-49.77l1.26-5.32ZM87.96,62.97h53.51l1.48,6.24h-56.47l1.48-6.24ZM84.61,77.14h60.21l1.73,7.33h-63.67l1.73-7.33ZM81.01,92.4h67.42l1.67,7.02h-70.76l1.67-7.02ZM77.47,107.37h74.5l2.09,8.84h-78.67l2.09-8.84ZM73.37,124.71l.14-.56h82.42l.12.51s1.65,3.28,3.56,8.32h-89.77c1.91-5.01,3.54-8.26,3.54-8.26ZM67.13,140.91h95.17c.68,2.33,1.33,4.79,1.85,7.32h-98.89c.53-2.53,1.18-4.99,1.86-7.32ZM158.36,182.34h-87.32c-1.54-2.64-2.94-5.3-4.07-7.9h95.46c-1.13,2.6-2.53,5.26-4.07,7.9ZM164.98,166.5h-100.55c-.58-3.28-.64-6.79-.34-10.34h101.25c.3,3.55.23,7.06-.36,10.34Z"/>
      <path class="cls-3" d="M151.48,116.39l-9.93-32.82c-.22-.74-.9-1.24-1.68-1.24h-13.3v.02c-.24-.03-.49-.06-.75-.07l-7.32-.03c7.1-1.5,12.42-7.8,12.42-15.34,0-8.67-7.02-15.69-15.69-15.69s-15.69,7.02-15.69,15.69c0,7.72,5.58,14.13,12.93,15.43l-7.51.03c-.48,0-.94.08-1.38.18h-13.29c-.77,0-1.45.51-1.68,1.24l-9.93,32.82c-.35,1.14.53,2.29,1.72,2.26l5.83-.15c.78-.02,1.46-.56,1.65-1.31l6.99-27.08c.2-.77.9-1.31,1.69-1.31h1.82l-8.3,30.81c-.64,2.39.81,4.75,3.05,5.39l-2.97,15.16c-.42,2.12-.37,4.31.15,6.42l7.43,30.48c.56,2.31,2.64,3.93,5.02,3.92l4.86-.04c2.4-.02,4.15-2.29,3.55-4.61l-7.77-30.22c-.48-1.87-.5-3.83-.07-5.72l3.52-15.22h9.01v-.09s6.54,0,6.54,0l3.54,15.31c.44,1.88.41,3.85-.07,5.72l-7.77,30.22c-.6,2.33,1.15,4.6,3.55,4.61l4.86.04c2.38.02,4.46-1.6,5.02-3.92l7.43-30.48c.51-2.1.56-4.29.15-6.42l-3.01-15.38c2.75-.92,4.49-3.86,3.69-6.86l-7.9-29.35h1.67c.8,0,1.5.54,1.7,1.31l6.99,27.08c.2.76.87,1.29,1.65,1.31l5.83.15c1.19.03,2.06-1.12,1.72-2.26Z"/>
    </g>
  </g>
</svg>