<?xml version="1.0" encoding="UTF-8"?>
<svg id="Layer_2" data-name="Layer 2" xmlns="http://www.w3.org/2000/svg" viewBox="0 0 241.35 241.35">
  <defs>
    <style>
      .cls-1 {
        fill: #003;
      }

      .cls-2 {
        fill: #e2e2e2;
      }

      .cls-3 {
        fill: #fff;
        stroke: #003;
        stroke-miterlimit: 10;
        stroke-width: 7px;
      }
    </style>
  </defs>
  <g id="objects">
    <g>
      <circle class="cls-3" cx="120.67" cy="120.67" r="117.17"/>
      <g>
        <g>
          <path class="cls-2" d="M18.21,99.15l12.85,32.38-4.16,31.42h0c32.05-9.32,64.08-14.87,97.92-18,28.79-2.66,68.95-4.67,99.07-2.79l.14.42-11.03-29.85,5.75-34.36-5.88,33.98c-27.81-1.73-64.87.11-91.44,2.57-31.24,2.89-60.8,8.01-90.38,16.61"/>
          <path class="cls-1" d="M18.21,99.15c3.44,8.08,10.04,24.21,13.4,32.31-.05.13-3.72,31.47-3.76,31.62,0,0-1.21-1.04-1.21-1.04,47.78-14.51,97.73-20.24,147.49-22.11,17.05-.58,34.14-.72,51.23.33l.43,1.28.14.42-3.75,1.31-11.02-29.86-.18-.49.09-.51,5.8-34.35,3.79.65-6,33.96-.28,1.59c-8.12-.56-16.27-.81-24.43-.87-30.52-.14-61.1,1.44-91.41,5.11-22.77,2.71-45.32,7.05-67.47,13.04,21.92-6.84,44.48-11.65,67.21-15,37.99-5.02,76.38-7.75,114.72-5.99,0,0-1.88,1.49-1.88,1.49l5.76-34,3.79.65-5.7,34.37-.1-1.01,11.05,29.85-3.75,1.31-.14-.42,1.76,1.36c-32.95-1.82-66.16-.16-99.05,2.55-32.94,2.85-65.71,8.17-97.56,17.17,0,0-1.42.4-1.42.4l.21-1.44,4.57-31.37.03.27c-3.06-8.1-9.34-24.45-12.35-32.58h0Z"/>
        </g>
        <path class="cls-1" d="M13.05,127.94c69.39-23.63,144.1-29.16,216.75-21.68-36.43-.58-72.94-.41-109.19,3.04-36.28,3.52-72.12,10.05-107.56,18.64h0Z"/>
        <path class="cls-1" d="M12.98,127.87c3.76,5.21,6.43,10.92,8.82,16.81,2.3,5.92,4.28,11.91,5.1,18.28-3.77-5.2-6.43-10.92-8.82-16.81-2.3-5.92-4.27-11.91-5.1-18.28h0Z"/>
        <path class="cls-1" d="M45.91,119.46c3.49,5.31,5.86,11.07,7.95,16.99,2,5.95,3.67,11.96,4.17,18.29-3.5-5.3-5.87-11.06-7.95-16.99-1.99-5.96-3.66-11.96-4.17-18.29h0Z"/>
        <path class="cls-1" d="M83.09,113.34c2.78,5.41,4.41,11.14,5.73,17.01,1.23,5.88,2.12,11.78,1.82,17.85-2.79-5.41-4.41-11.14-5.73-17.01-1.22-5.89-2.11-11.78-1.82-17.85h0Z"/>
        <path class="cls-1" d="M120.81,108.66c2.22,5.63,3.25,11.46,3.97,17.4.62,5.94.91,11.86,0,17.84-2.22-5.63-3.26-11.46-3.97-17.4-.62-5.95-.9-11.86,0-17.84h0Z"/>
        <path class="cls-1" d="M12.98,127.87c8.28,3.1,15.98,7.26,23.55,11.72,7.53,4.54,14.85,9.33,21.5,15.15-8.28-3.09-15.98-7.25-23.55-11.72-7.52-4.55-14.84-9.34-21.5-15.15h0Z"/>
        <path class="cls-1" d="M46.54,119.82c8.04,3.31,15.47,7.66,22.76,12.3,7.24,4.72,14.27,9.69,20.59,15.66-8.05-3.3-15.47-7.65-22.76-12.3-7.24-4.73-14.27-9.7-20.59-15.66h0Z"/>
        <path class="cls-1" d="M83.53,113.65c7.77,3.74,14.86,8.48,21.8,13.51,6.88,5.1,13.54,10.44,19.43,16.74-7.77-3.73-14.86-8.48-21.8-13.51-6.88-5.11-13.54-10.45-19.43-16.74h0Z"/>
        <path class="cls-1" d="M230.33,105.42c.53,6.4-.14,12.67-1.14,18.94-1.09,6.26-2.5,12.41-5.09,18.28-.53-6.4.14-12.67,1.14-18.94,1.1-6.26,2.51-12.4,5.09-18.28h0Z"/>
        <path class="cls-1" d="M196.37,104.12c.83,6.29.46,12.52-.23,18.76-.79,6.23-1.9,12.36-4.2,18.28-.84-6.3-.47-12.52.23-18.76.8-6.23,1.91-12.36,4.2-18.28h0Z"/>
        <path class="cls-1" d="M158.79,105.88c1.56,5.88,1.93,11.83,1.98,17.84-.05,6.01-.43,11.96-2.02,17.83-1.57-5.88-1.94-11.82-1.98-17.84.06-6.01.44-11.96,2.02-17.83h0Z"/>
        <path class="cls-1" d="M230.33,105.42c-5.29,7.08-11.44,13.31-17.84,19.33-6.46,5.96-13.11,11.65-20.56,16.41,5.28-7.09,11.43-13.31,17.84-19.33,6.47-5.95,13.12-11.64,20.56-16.41h0Z"/>
        <path class="cls-1" d="M195.84,104.61c-4.93,7.16-10.76,13.5-16.84,19.64-6.15,6.08-12.5,11.89-19.67,16.81,4.93-7.16,10.76-13.5,16.84-19.64,6.15-6.07,12.5-11.89,19.67-16.81h0Z"/>
        <path class="cls-1" d="M158.43,106.27c-4.44,7.38-9.83,14.01-15.48,20.45-5.72,6.38-11.66,12.51-18.47,17.79,4.44-7.39,9.82-14.01,15.48-20.45,5.73-6.37,11.66-12.5,18.47-17.79h0Z"/>
        <path class="cls-1" d="M18.28,99.22c63.98-22.03,133.01-27.12,200.05-20.01-33.62-.41-67.31-.23-100.76,2.96-33.49,3.25-66.55,9.25-99.29,17.05h0Z"/>
        <path class="cls-1" d="M48.67,91.46c3.33,4.85,5.55,10.16,7.49,15.63,1.85,5.51,3.36,11.06,3.7,16.93-3.34-4.85-5.56-10.15-7.49-15.63-1.84-5.51-3.35-11.06-3.7-16.93h0Z"/>
        <path class="cls-1" d="M82.92,85.75c2.68,4.96,4.21,10.24,5.44,15.66,1.13,5.44,1.93,10.89,1.53,16.51-2.69-4.95-4.22-10.24-5.44-15.66-1.13-5.44-1.92-10.89-1.53-16.51h0Z"/>
        <path class="cls-1" d="M117.73,81.42c2.16,5.17,3.15,10.55,3.81,16.04.57,5.5.81,10.96-.16,16.49-2.17-5.17-3.15-10.55-3.81-16.04-.57-5.5-.8-10.96.16-16.49h0Z"/>
        <path class="cls-1" d="M18.28,99.22c7.69,2.75,14.82,6.57,21.82,10.68,6.95,4.2,13.69,8.65,19.77,14.12-7.7-2.74-14.82-6.56-21.82-10.68-6.95-4.2-13.69-8.65-19.77-14.12h0Z"/>
        <path class="cls-1" d="M49.25,91.79c7.48,2.95,14.35,6.94,21.09,11.22,6.69,4.36,13.16,8.98,18.92,14.58-7.48-2.94-14.36-6.93-21.09-11.22-6.68-4.37-13.15-8.98-18.92-14.58h0Z"/>
        <path class="cls-1" d="M83.33,86.03c7.23,3.35,13.8,7.71,20.21,12.35,6.36,4.72,12.48,9.67,17.85,15.57-7.24-3.34-13.8-7.7-20.21-12.35-6.35-4.72-12.48-9.68-17.85-15.57h0Z"/>
        <path class="cls-1" d="M187.5,77.24c.88,5.81.56,11.56-.09,17.33-.74,5.76-1.8,11.41-4.06,16.85-.89-5.82-.57-11.56.09-17.33.75-5.76,1.81-11.41,4.06-16.85h0Z"/>
        <path class="cls-1" d="M152.79,78.86c1.56,5.41,1.93,10.9,1.98,16.46-.05,5.56-.44,11.05-2.02,16.46-1.57-5.41-1.94-10.9-1.98-16.46.06-5.56.44-11.05,2.02-16.46h0Z"/>
        <path class="cls-1" d="M218.84,78.48c-4.8,6.61-10.47,12.37-16.38,17.93-5.98,5.49-12.15,10.71-19.1,15,4.8-6.62,10.46-12.38,16.38-17.93,5.98-5.49,12.15-10.71,19.1-15h0Z"/>
        <path class="cls-1" d="M187.01,77.69c-4.47,6.68-9.84,12.54-15.46,18.21-5.69,5.6-11.58,10.94-18.28,15.38,4.47-6.69,9.83-12.55,15.46-18.21,5.7-5.6,11.58-10.94,18.28-15.38h0Z"/>
        <path class="cls-1" d="M152.45,79.22c-4.01,6.89-8.96,13.02-14.17,18.97-5.29,5.89-10.79,11.53-17.16,16.32,4-6.9,8.95-13.03,14.17-18.97,5.29-5.89,10.8-11.52,17.16-16.32h0Z"/>
      </g>
    </g>
  </g>
</svg>