<?xml version="1.0" encoding="UTF-8"?><svg id="Layer_2" xmlns="http://www.w3.org/2000/svg" viewBox="0 0 228.63 228.63"><defs><style>.cls-1{fill:#003;}.cls-2{fill:#fff;}.cls-3{fill:#237738;}</style></defs><g id="Layer_2-2"><circle class="cls-3" cx="114.31" cy="114.31" r="114.31"/><g id="objects"><circle class="cls-2" cx="114.31" cy="112.69" r="101.9"/><path class="cls-1" d="M114.31,218.6c-58.4,0-105.91-47.51-105.91-105.91S55.92,6.79,114.31,6.79s105.91,47.51,105.91,105.91-47.51,105.91-105.91,105.91ZM114.31,14.79c-53.98,0-97.9,43.92-97.9,97.9s43.92,97.9,97.9,97.9,97.9-43.92,97.9-97.9S168.29,14.79,114.31,14.79Z"/><path class="cls-1" d="M118.79,146.2c6.81,0,12.32-5.52,12.32-12.32s-5.52-12.32-12.32-12.32-12.32,5.52-12.32,12.32,5.52,12.32,12.32,12.32Z"/><path class="cls-1" d="M85.15,158.96c6.81,0,12.32-5.52,12.32-12.32s-5.52-12.32-12.32-12.32-12.32,5.52-12.32,12.32,5.52,12.32,12.32,12.32Z"/><path class="cls-1" d="M152.27,158.96c6.81,0,12.32-5.52,12.32-12.32s-5.52-12.32-12.32-12.32-12.32,5.52-12.32,12.32,5.52,12.32,12.32,12.32Z"/><path class="cls-1" d="M171.16,165.93c-1.47-7.59-9.11-6.63-9.11-6.63,0,0-4.35,3.04-10,3.26-5.65.22-10.11-3.26-10.11-3.26-1.79-.14-3.22.23-4.35.83v-5.91h-.03c-1.47-7.59-9.11-6.63-9.11-6.63,0,0-4.35,3.04-10,3.26-5.65.22-10.11-3.26-10.11-3.26-7.06-.54-8.48,6.63-8.48,6.63v6.33c-2.52-1.37-5.29-1.03-5.29-1.03,0,0-4.35,3.04-10,3.26-5.65.22-10.11-3.26-10.11-3.26-7.06-.54-8.48,6.63-8.48,6.63v18.25h37.71v-11.93h29.74v11.7h37.71v-18.25h-.03.02Z"/><path class="cls-1" d="M108.33,24.22s17.59,7.77,18.05,24.4c0,0,13.08-11.98,24.13-10.2,0,0,2.93.89,6.54-1.56,0,0,1.13,9.31,0,11.09-1.13,1.77-6.77,13.53-12.63,16.19l6.77,4.22c2.25.84,7.69,9.26,10.15,13.98.64.77-9.65,10.75-27.29,1.33,0,0-4.51,22.4-8.35,25.52,0,0-2.7,2.22-3.84,4.88,0,0-5.41-5.11-5.41-6.88s-5.41-8.87-5.64-18.85c0,0-12.85,3.99-18.95-1.33,0,0-2.48-8.43,6.31-14.65,0,0-22.33-8.65-24.81-13.98-2.48-5.32-1.13-2.44-3.84-5.99,0,0,5.17,1.19,8.91-1.72,0,0,17.67-5.51,26.23.76,0,0-2.77-25.27,3.66-27.21h0Z"/><path class="cls-2" d="M128.5,52.82c1.38,4.31-.55,10.26-5.11,11.74,1.74-3.84,2.91-8.1,5.11-11.74h0Z"/><path class="cls-2" d="M109.15,51.73c4.81-1.47,12.24,2.97,9.71,8.46-1.55-4.66-5.96-5.95-9.71-8.46h0Z"/><path class="cls-2" d="M103.6,67.83c.17-4.06,6.41-8.4,9.16-4.1-3.83-.24-5.85,2.68-9.16,4.1h0Z"/><path class="cls-2" d="M114.7,67.28c-1.35,2.47-3.38,4.17-5.16,6.2-.5.62-1.01,1.19-1.23,2.26-.89-.73-.94-2.15-.62-3.17,1.03-2.99,3.88-5.05,7-5.29h0Z"/><path class="cls-2" d="M119.7,71.11c1.11,2.55,1.13,5.18,1.1,7.85.02.89-.12,1.64.29,2.52-1.11,0-1.89-1.17-2.29-2.06-1.09-2.74-.8-5.88.9-8.31h0Z"/><path class="cls-2" d="M125.8,69.75c3.76-3.59,11.16-1.9,12.49,3.28-4.09-2.28-7.84-3-12.49-3.28h0Z"/></g></g></svg>