<?xml version="1.0" encoding="UTF-8"?>
<svg id="Layer_2" data-name="Layer 2" xmlns="http://www.w3.org/2000/svg" viewBox="0 0 241.35 241.35">
  <defs>
    <style>
      .cls-1 {
        fill: #003;
      }

      .cls-2, .cls-3 {
        fill: #fff;
      }

      .cls-3 {
        stroke: #003;
        stroke-miterlimit: 10;
        stroke-width: 7px;
      }
    </style>
  </defs>
  <g id="objects">
    <g>
      <g>
        <circle class="cls-3" cx="120.67" cy="120.67" r="117.17"/>
        <g>
          <path class="cls-1" d="M125.82,159.2c7.83,0,14.17-6.35,14.17-14.17s-6.35-14.17-14.17-14.17-14.17,6.35-14.17,14.17,6.35,14.17,14.17,14.17Z"/>
          <path class="cls-1" d="M87.14,173.87c7.83,0,14.17-6.35,14.17-14.17s-6.35-14.17-14.17-14.17-14.17,6.35-14.17,14.17,6.35,14.17,14.17,14.17Z"/>
          <path class="cls-1" d="M164.31,173.87c7.83,0,14.17-6.35,14.17-14.17s-6.35-14.17-14.17-14.17-14.17,6.35-14.17,14.17,6.35,14.17,14.17,14.17Z"/>
          <path class="cls-1" d="M186.04,181.89c-1.69-8.73-10.47-7.62-10.47-7.62,0,0-5,3.5-11.5,3.75-6.5.25-11.62-3.75-11.62-3.75-2.06-.16-3.7.26-5,.96v-6.79h-.03c-1.69-8.73-10.47-7.62-10.47-7.62,0,0-5,3.5-11.5,3.75s-11.62-3.75-11.62-3.75c-8.12-.62-9.75,7.62-9.75,7.62v7.28c-2.9-1.58-6.08-1.18-6.08-1.18,0,0-5,3.5-11.5,3.75-6.5.25-11.62-3.75-11.62-3.75-8.12-.62-9.75,7.62-9.75,7.62v20.99h43.36v-13.72h34.2v13.45h43.36v-20.99h-.03Z"/>
        </g>
        <path class="cls-1" d="M113.79,18.94s20.23,8.93,20.75,28.06c0,0,15.04-13.78,27.75-11.73,0,0,3.37,1.02,7.52-1.79,0,0,1.3,10.71,0,12.75-1.3,2.04-7.78,15.56-14.52,18.62l7.78,4.85c2.59.97,8.84,10.65,11.67,16.07.74.88-11.1,12.36-31.38,1.53,0,0-5.19,25.76-9.6,29.34,0,0-3.11,2.55-4.41,5.61,0,0-6.22-5.87-6.22-7.91s-6.22-10.2-6.48-21.68c0,0-14.78,4.59-21.79-1.53,0,0-2.85-9.69,7.26-16.84,0,0-25.68-9.95-28.53-16.07-2.85-6.12-1.3-2.81-4.41-6.89,0,0,5.95,1.37,10.24-1.98,0,0,20.32-6.33,30.16.87,0,0-3.19-29.06,4.21-31.29Z"/>
      </g>
      <path class="cls-2" d="M136.98,51.83c1.59,4.96-.63,11.8-5.88,13.5,2-4.41,3.35-9.31,5.88-13.5h0Z"/>
      <path class="cls-2" d="M114.73,50.57c5.53-1.69,14.07,3.42,11.17,9.73-1.78-5.36-6.85-6.84-11.17-9.73h0Z"/>
      <path class="cls-2" d="M108.35,69.09c.2-4.67,7.37-9.66,10.53-4.71-4.4-.28-6.73,3.08-10.53,4.71h0Z"/>
      <path class="cls-2" d="M121.12,68.46c-1.55,2.84-3.89,4.8-5.93,7.13-.58.71-1.16,1.37-1.41,2.6-1.02-.84-1.08-2.47-.71-3.65,1.19-3.44,4.46-5.81,8.05-6.08h0Z"/>
      <path class="cls-2" d="M126.86,72.86c1.28,2.93,1.3,5.96,1.26,9.03.02,1.02-.14,1.89.33,2.9-1.28-.01-2.17-1.34-2.63-2.37-1.25-3.15-.92-6.76,1.04-9.55h0Z"/>
      <path class="cls-2" d="M133.88,71.29c4.32-4.13,12.83-2.18,14.36,3.77-4.7-2.62-9.02-3.45-14.36-3.77h0Z"/>
    </g>
  </g>
</svg>