<?xml version="1.0" encoding="UTF-8"?><svg id="Layer_2" xmlns="http://www.w3.org/2000/svg" viewBox="0 0 228.63 228.63"><defs><style>.cls-1{fill:#003;}.cls-2{fill:#fff;}.cls-3{fill:#237738;}</style></defs><g id="Layer_2-2"><circle class="cls-3" cx="114.31" cy="114.31" r="114.31"/><g id="objects"><circle class="cls-2" cx="114.31" cy="114.31" r="99.33"/><path class="cls-1" d="M114.31,218.14c-57.25,0-103.83-46.58-103.83-103.83S57.06,10.48,114.31,10.48s103.83,46.58,103.83,103.83-46.58,103.83-103.83,103.83ZM114.31,19.48c-52.29,0-94.83,42.54-94.83,94.83s42.54,94.83,94.83,94.83,94.83-42.54,94.83-94.83S166.6,19.48,114.31,19.48Z"/><path class="cls-1" d="M105.56,50.61c-8.05-5.46-23.2,2.14-29.01,5.44v-8.05c1.04-1,1.7-2.4,1.7-3.96,0-3.03-2.45-5.48-5.48-5.48s-5.48,2.45-5.48,5.48c0,1.68.75,3.17,1.94,4.18v125.02c-1.13,1-1.85,2.47-1.85,4.09,0,3.03,2.45,5.48,5.48,5.48s5.48-2.45,5.48-5.48c0-1.6-.7-3.03-1.79-4.04v-81.46c5.29-4.84,18.4-14.79,27.92-4.82,11.93,12.48,31.36-2.16,31.36-2.16l.72-35.33c-8.65,3.97-20.91,7.93-31,1.09h0Z"/><path class="cls-1" d="M129.63,113.95s13.4,5.92,13.75,18.59c0,0,9.97-9.13,18.39-7.77,0,0,2.24.68,4.98-1.19,0,0,.86,7.1,0,8.45s-5.15,10.31-9.62,12.34l5.15,3.21c1.71.64,5.86,7.06,7.73,10.65.49.58-7.36,8.19-20.8,1.02,0,0-3.43,17.07-6.36,19.44,0,0-2.06,1.69-2.92,3.72,0,0-4.13-3.89-4.13-5.24s-4.13-6.76-4.3-14.37c0,0-9.8,3.04-14.44-1.02,0,0-1.89-6.43,4.82-11.16,0,0-17.01-6.6-18.9-10.65-1.89-4.06-.86-1.86-2.92-4.56,0,0,3.94.91,6.79-1.31,0,0,13.46-4.2,19.99.58,0,0-2.12-19.26,2.79-20.74h0Z"/><path class="cls-2" d="M145,135.74c1.48,3.27-.18,8.15-3.9,8.94,1.06-3.26,1.81-6.16,3.9-8.94h0Z"/><path class="cls-2" d="M130.26,134.91c3.74-1.6,9.77,2.25,7.4,6.45-1.55-3.38-4.7-4.2-7.4-6.45h0Z"/><path class="cls-2" d="M126.03,147.19c0-1.73.92-3.13,2.33-4.04,1.35-.99,4.03-.89,4.65.92-2.92.22-4.23,2.32-6.98,3.12h0Z"/><path class="cls-2" d="M134.49,146.77c-.83,2.03-2.26,3.38-3.73,4.82-.41.42-.86.77-1.14,1.63-.76-.53-.9-1.67-.66-2.52.72-2.41,3.02-4.04,5.52-3.93h0Z"/><path class="cls-2" d="M138.3,149.68c1.26,2.16,1.22,4.5.97,6.85-.03.33-.04.61.09,1.05-.43.06-.9-.2-1.21-.5-1.88-2.03-1.65-5.38.15-7.4h0Z"/><path class="cls-2" d="M142.95,148.64c2.7-3.16,8.86-1.73,9.52,2.49-3.26-1.4-6.04-1.92-9.52-2.49h0Z"/></g></g></svg>