<?xml version="1.0" encoding="UTF-8"?>
<svg id="Layer_2" data-name="Layer 2" xmlns="http://www.w3.org/2000/svg" viewBox="0 0 241.35 241.35">
  <defs>
    <style>
      .cls-1 {
        fill: #656565;
      }

      .cls-2, .cls-3 {
        fill: #fff;
      }

      .cls-3 {
        stroke: #656565;
        stroke-miterlimit: 10;
        stroke-width: 7px;
      }
    </style>
  </defs>
  <g id="objects">
    <g>
      <circle class="cls-3" cx="120.67" cy="120.67" r="117.17"/>
      <path class="cls-1" d="M110.35,45.53c-9.5-6.44-27.37,2.53-34.22,6.42v-9.49c1.23-1.18,2-2.83,2-4.67,0-3.57-2.89-6.46-6.46-6.46s-6.46,2.89-6.46,6.46c0,1.98.89,3.74,2.29,4.93v147.47c-1.33,1.18-2.18,2.91-2.18,4.83,0,3.57,2.89,6.46,6.46,6.46s6.46-2.89,6.46-6.46c0-1.89-.82-3.58-2.11-4.77v-96.09c6.24-5.71,21.7-17.45,32.94-5.69,14.07,14.72,36.99-2.55,36.99-2.55l.85-41.67c-10.2,4.68-24.66,9.35-36.57,1.28Z"/>
      <g>
        <path class="cls-1" d="M138.74,120.24s15.81,6.98,16.22,21.93c0,0,11.76-10.77,21.69-9.17,0,0,2.64.8,5.88-1.4,0,0,1.01,8.37,0,9.97-1.01,1.6-6.08,12.16-11.35,14.56l6.08,3.79c2.02.76,6.91,8.33,9.12,12.56.58.69-8.68,9.66-24.53,1.2,0,0-4.05,20.14-7.5,22.93,0,0-2.43,1.99-3.45,4.39,0,0-4.87-4.59-4.87-6.18s-4.87-7.98-5.07-16.95c0,0-11.56,3.59-17.03-1.2,0,0-2.23-7.58,5.68-13.16,0,0-20.07-7.78-22.3-12.56-2.23-4.79-1.01-2.19-3.45-5.38,0,0,4.65,1.07,8.01-1.55,0,0,15.88-4.95,23.58.68,0,0-2.5-22.72,3.29-24.46Z"/>
        <path class="cls-2" d="M156.87,145.95c1.74,3.86-.21,9.61-4.6,10.55,1.25-3.85,2.14-7.27,4.6-10.55h0Z"/>
        <path class="cls-2" d="M139.48,144.97c4.41-1.89,11.53,2.65,8.73,7.61-1.83-3.99-5.54-4.95-8.73-7.61h0Z"/>
        <path class="cls-2" d="M134.49,159.45c0-2.04,1.08-3.69,2.75-4.77,1.59-1.17,4.75-1.05,5.48,1.09-3.44.26-4.99,2.74-8.23,3.68h0Z"/>
        <path class="cls-2" d="M144.47,158.96c-.98,2.39-2.67,3.99-4.4,5.68-.48.5-1.01.91-1.34,1.92-.9-.63-1.06-1.97-.78-2.97.85-2.84,3.56-4.76,6.51-4.64h0Z"/>
        <path class="cls-2" d="M148.96,162.39c1.49,2.55,1.44,5.31,1.14,8.08-.04.39-.05.72.11,1.24-.51.07-1.06-.24-1.43-.59-2.22-2.39-1.95-6.35.18-8.73h0Z"/>
        <path class="cls-2" d="M154.45,161.16c3.19-3.73,10.45-2.04,11.23,2.94-3.84-1.65-7.12-2.27-11.23-2.94h0Z"/>
      </g>
    </g>
  </g>
</svg>