<?xml version="1.0" encoding="UTF-8"?>
<svg id="icon--map-cf" xmlns="http://www.w3.org/2000/svg" viewBox="0 0 234.76 234.55">
  <rect x=".8" y=".33" width="233.61" height="233.64" rx="11.96" ry="11.96" fill="#e55c00"/>
  <g>
    <polygon points="205.89 101.56 197.95 114.33 205.11 103.96 206.51 101.71 205.89 101.56" fill="#0fafed"/>
    <polygon points="140.82 157.55 182.62 136.52 120.01 101.07 65.94 104.77 140.82 157.55" fill="#ffc299"/>
    <polygon points="65.94 104.77 140.82 157.55 103.28 196.59 46.21 117.57 65.94 104.77" fill="#fff"/>
    <polygon points="182.62 136.52 206.51 101.71 137.38 84.52 120.01 101.07 182.62 136.52" fill="#fff"/>
    <polygon points="65.94 104.77 46.21 117.57 103.28 196.59 140.82 157.55 182.69 136.61 206.64 101.74 137.38 84.52 120.01 101.07 68 104.63 65.94 104.77" fill="none"/>
    <path d="M118.08,38.3c-18.81.38-32,18.74-26.73,36.8,2.85,9.76,11.81,27.37,27.42,43.9,15.61-16.53,24.48-34.09,27.32-43.85,5.27-18.06-7.98-36.48-26.79-36.86,0,0-1.2,0-1.23,0h0Z" fill="#fff" stroke="#e55c00" stroke-miterlimit="10" stroke-width="4.4"/>
    <circle cx="118.77" cy="67.53" r="11.12" fill="#e55c00"/>
  </g>
</svg>