<?xml version="1.0" encoding="UTF-8"?>
<svg id="icon--bridge-cf" xmlns="http://www.w3.org/2000/svg" viewBox="0 0 234.76 234.55">
  <circle cx="117.61" cy="117.15" r="117.15" fill="#e55c00"/>
  <g>
    <path d="M217.03,139.22c-32.52-7.81-65.97-11.77-99.42-11.77s-66.9,3.96-99.42,11.77l-1.46.35-1.91-7.94,1.46-.35c33.15-7.96,67.24-11.99,101.33-11.99s68.18,4.04,101.33,11.99l1.46.35-1.91,7.94-1.46-.35Z" fill="#fff"/>
    <path d="M117.61,120.78c33.89,0,67.79,3.98,100.98,11.95-.4,1.68-.8,3.35-1.21,5.03-32.79-7.87-66.28-11.81-99.77-11.81s-66.98,3.94-99.77,11.81c-.4-1.68-.8-3.35-1.21-5.03,33.19-7.97,67.08-11.95,100.98-11.95M117.61,117.78c-34.21,0-68.42,4.05-101.68,12.03l-2.92.7.7,2.92.6,2.51.6,2.51.7,2.92,2.92-.7c32.41-7.78,65.74-11.73,99.07-11.73s66.66,3.95,99.07,11.73l2.92.7.7-2.92.6-2.51.6-2.51.7-2.92-2.92-.7c-33.26-7.99-67.47-12.03-101.68-12.03h0Z" fill="#e55c00"/>
  </g>
  <g>
    <rect x="34.63" y="72.42" width="12.92" height="89.46" fill="#fff"/>
    <path d="M46.06,73.92v86.46h-9.92v-86.46h9.92M49.06,70.92h-15.92v92.46h15.92v-92.46h0Z" fill="#e55c00"/>
  </g>
  <g>
    <rect x="72.89" y="69.44" width="12.92" height="89.46" fill="#fff"/>
    <path d="M84.31,70.94v86.46h-9.92v-86.46h9.92M87.31,67.94h-15.92v92.46h15.92v-92.46h0Z" fill="#e55c00"/>
  </g>
  <g>
    <rect x="149.4" y="69.44" width="12.92" height="89.46" fill="#fff"/>
    <path d="M160.83,70.94v86.46h-9.92v-86.46h9.92M163.83,67.94h-15.92v92.46h15.92v-92.46h0Z" fill="#e55c00"/>
  </g>
  <g>
    <rect x="111.15" y="67.33" width="12.92" height="89.46" fill="#fff"/>
    <path d="M122.57,68.83v86.46h-9.92v-86.46h9.92M125.57,65.83h-15.92v92.46h15.92v-92.46h0Z" fill="#e55c00"/>
  </g>
  <g>
    <rect x="187.66" y="72.42" width="12.92" height="89.46" fill="#fff"/>
    <path d="M199.08,73.92v86.46h-9.92v-86.46h9.92M202.08,70.92h-15.92v92.46h15.92v-92.46h0Z" fill="#e55c00"/>
  </g>
  <path d="M217.38,171.52c-65.58-15.74-133.96-15.74-199.54,0-.72-3-1.44-6-2.16-9,67-16.09,136.86-16.09,203.86,0-.72,3-1.44,6-2.16,9Z" fill="#fff"/>
  <path d="M217.38,83.49c-65.58-15.74-133.96-15.74-199.54,0-.51-2.14-1.03-4.27-1.54-6.41,66.59-15.99,136.02-15.99,202.62,0-.51,2.14-1.03,4.27-1.54,6.41Z" fill="#fff"/>
</svg>